<svg width="30" height="30" viewBox="0 0 30 30" fill="none" xmlns="http://www.w3.org/2000/svg">
<path d="M30 15C30 23.2843 23.2843 30 15 30C6.71573 30 0 23.2843 0 15C0 6.71573 6.71573 0 15 0C23.2843 0 30 6.71573 30 15Z" fill="#BE1452"/>
<path d="M20.75 13.75H16.5C16.3619 13.75 16.25 13.6381 16.25 13.5V9.25C16.25 8.55969 15.6903 8 15 8C14.3097 8 13.75 8.55969 13.75 9.25V13.5C13.75 13.6381 13.6381 13.75 13.5 13.75H9.25C8.55969 13.75 8 14.3097 8 15C8 15.6903 8.55969 16.25 9.25 16.25H13.5C13.6381 16.25 13.75 16.3619 13.75 16.5V20.75C13.75 21.4403 14.3097 22 15 22C15.6903 22 16.25 21.4403 16.25 20.75V16.5C16.25 16.3619 16.3619 16.25 16.5 16.25H20.75C21.4403 16.25 22 15.6903 22 15C22 14.3097 21.4403 13.75 20.75 13.75Z" fill="white"/>
</svg>
