<svg width="30" height="30" viewBox="0 0 30 30" fill="none" xmlns="http://www.w3.org/2000/svg">
<g clip-path="url(#clip0)">
<path d="M19.7764 29.2188C19.6202 29.2715 19.463 29.3227 19.3047 29.3698C19.4635 29.3222 19.6202 29.271 19.7764 29.2188Z" fill="#ECECEC"/>
<path d="M20.5597 28.9312C20.3911 28.9984 20.2225 29.0646 20.0508 29.1256C20.2225 29.0641 20.3916 28.9984 20.5597 28.9312Z" fill="#ECECEC"/>
<path d="M15 30C23.2843 30 30 23.2843 30 15C30 6.71573 23.2843 0 15 0C6.71573 0 0 6.71573 0 15C0 23.2843 6.71573 30 15 30Z" fill="#ECECEC"/>
<path d="M19.002 29.4561C18.8489 29.4985 18.6948 29.5388 18.5391 29.5766C18.6948 29.5388 18.8489 29.4985 19.002 29.4561Z" fill="#ECECEC"/>
<path d="M13.9134 29.9567C13.7303 29.9438 13.5477 29.9298 13.3672 29.9102C13.5482 29.9298 13.7308 29.9438 13.9134 29.9567Z" fill="#ECECEC"/>
<path d="M11.46 29.5756C11.3048 29.5378 11.1507 29.4975 10.9971 29.4551C11.1507 29.498 11.3048 29.5384 11.46 29.5756Z" fill="#ECECEC"/>
<path d="M13.0562 29.8706C12.8923 29.8494 12.7288 29.8272 12.5664 29.8008C12.7283 29.8272 12.8923 29.8489 13.0562 29.8706Z" fill="#ECECEC"/>
<path d="M14.9992 29.9998C14.723 29.9998 14.4493 29.991 14.1768 29.9766C14.4493 29.991 14.723 29.9998 14.9992 29.9998Z" fill="#ECECEC"/>
<path d="M12.2465 29.7431C12.0892 29.7141 11.9325 29.6831 11.7773 29.6489C11.9325 29.6831 12.0892 29.7141 12.2465 29.7431Z" fill="#ECECEC"/>
<path d="M9.21936 28.8444C8.98608 28.7467 8.75539 28.6443 8.52832 28.5356C8.75591 28.6443 8.9866 28.7472 9.21936 28.8444Z" fill="#ECECEC"/>
<path d="M9.94842 29.1256C9.77721 29.0641 9.60807 28.9984 9.43945 28.9312C9.60807 28.9984 9.77721 29.0641 9.94842 29.1256Z" fill="#ECECEC"/>
<path d="M15.8224 29.9766C15.5498 29.991 15.2762 29.9998 15 29.9998C15.2762 29.9998 15.5498 29.991 15.8224 29.9766Z" fill="#ECECEC"/>
<path d="M16.6322 29.9102C16.4511 29.9298 16.2685 29.9438 16.0859 29.9567C16.2685 29.9438 16.4511 29.9298 16.6322 29.9102Z" fill="#ECECEC"/>
<path d="M18.2221 29.6489C18.0664 29.6831 17.9102 29.7141 17.7529 29.7431C17.9097 29.7141 18.0664 29.6831 18.2221 29.6489Z" fill="#ECECEC"/>
<path d="M17.4332 29.8003C17.2708 29.8267 17.1073 29.8489 16.9434 29.8701C17.1068 29.8489 17.2708 29.8272 17.4332 29.8003Z" fill="#ECECEC"/>
<path d="M21.4663 28.5366C21.2402 28.6447 21.0106 28.7471 20.7783 28.8444C21.0106 28.7471 21.2402 28.6452 21.4663 28.5366Z" fill="#ECECEC"/>
<path d="M10.6954 29.3703C10.5366 29.3227 10.3798 29.2715 10.2236 29.2192C10.3798 29.2715 10.5366 29.3227 10.6954 29.3703Z" fill="#ECECEC"/>
<path d="M20.7799 28.8442C20.7074 28.8748 20.6335 28.9016 20.5605 28.9306C20.633 28.9016 20.7069 28.8748 20.7799 28.8442Z" fill="#ECECEC"/>
<path d="M21.4875 28.5273C21.4808 28.5304 21.4735 28.5336 21.4668 28.5367C21.4735 28.5336 21.4808 28.531 21.4875 28.5273Z" fill="#ECECEC"/>
<path d="M11.7765 29.6491C11.6705 29.6258 11.565 29.6015 11.46 29.5762C11.565 29.6015 11.6705 29.6258 11.7765 29.6491Z" fill="#ECECEC"/>
<path d="M12.5663 29.8005C12.4592 29.783 12.3526 29.7633 12.2461 29.7437C12.3532 29.7633 12.4592 29.7835 12.5663 29.8005Z" fill="#ECECEC"/>
<path d="M14.1774 29.9767C14.0889 29.9721 14.001 29.9628 13.9131 29.9565C14.0015 29.9628 14.0889 29.9721 14.1774 29.9767Z" fill="#ECECEC"/>
<path d="M13.366 29.9099C13.262 29.8985 13.1591 29.8841 13.0557 29.8706C13.1591 29.8841 13.262 29.8985 13.366 29.9099Z" fill="#ECECEC"/>
<path d="M8.5293 28.5356C8.52361 28.533 8.51741 28.5304 8.51172 28.5278C8.51741 28.5304 8.52361 28.533 8.5293 28.5356Z" fill="#ECECEC"/>
<path d="M16.0856 29.9565C15.9972 29.9628 15.9097 29.9721 15.8213 29.9767C15.9097 29.9721 15.9972 29.9628 16.0856 29.9565Z" fill="#ECECEC"/>
<path d="M19.3045 29.3696C19.2042 29.3996 19.1033 29.4276 19.002 29.4555C19.1033 29.4276 19.2042 29.3996 19.3045 29.3696Z" fill="#ECECEC"/>
<path d="M20.051 29.1255C19.96 29.1581 19.8679 29.1876 19.7764 29.2186C19.8679 29.1876 19.96 29.1581 20.051 29.1255Z" fill="#ECECEC"/>
<path d="M9.43904 28.9311C9.36611 28.9021 9.29214 28.8747 9.21973 28.8447C9.29214 28.8747 9.36611 28.9016 9.43904 28.9311Z" fill="#ECECEC"/>
<path d="M10.2229 29.2186C10.1313 29.1876 10.0388 29.1581 9.94824 29.1255C10.0388 29.1581 10.1308 29.1876 10.2229 29.2186Z" fill="#ECECEC"/>
<path d="M16.9432 29.8706C16.8397 29.8841 16.7368 29.8991 16.6328 29.9099C16.7368 29.8985 16.8397 29.8841 16.9432 29.8706Z" fill="#ECECEC"/>
<path d="M18.5382 29.5757C18.4332 29.601 18.3277 29.6253 18.2217 29.6486C18.3277 29.6259 18.4332 29.6015 18.5382 29.5757Z" fill="#ECECEC"/>
<path d="M17.7528 29.7437C17.6462 29.7633 17.5402 29.7835 17.4326 29.8005C17.5402 29.7835 17.6462 29.7633 17.7528 29.7437Z" fill="#ECECEC"/>
<path d="M10.9969 29.4555C10.8961 29.4276 10.7947 29.3996 10.6943 29.3696C10.7947 29.3996 10.8955 29.4276 10.9969 29.4555Z" fill="#ECECEC"/>
<path d="M18.4337 16.0315C20.1049 14.9189 21.2071 13.0201 21.2071 10.8622C21.2071 7.43441 18.428 4.65527 15.0003 4.65527C11.5725 4.65527 8.79336 7.43441 8.79336 10.8622C8.79336 13.0201 9.8956 14.9189 11.5668 16.0315C11.5668 16.0315 11.5673 16.032 11.5678 16.032C11.5673 16.032 11.5673 16.0315 11.5673 16.0315C7.56698 17.2372 4.45215 20.4839 3.44922 24.5685L3.44974 24.5691C3.61318 24.7661 3.78284 24.9585 3.95612 25.1473C3.99801 25.1934 4.04198 25.2373 4.08491 25.2823C4.21836 25.4241 4.35336 25.5637 4.49198 25.7003C4.54939 25.7567 4.60784 25.811 4.66629 25.8663C4.79456 25.9884 4.92439 26.1089 5.0568 26.2263C5.12249 26.2842 5.18922 26.3417 5.25543 26.3985C5.38525 26.5098 5.51663 26.6189 5.6506 26.7254C5.72094 26.7818 5.7918 26.8372 5.86267 26.8925C5.99818 26.997 6.13577 27.0984 6.27491 27.1977C6.3468 27.2489 6.41767 27.3011 6.4906 27.3513C6.63749 27.4527 6.78698 27.5499 6.93749 27.6461C7.00525 27.6891 7.07146 27.7335 7.13974 27.776C7.31353 27.883 7.49043 27.9854 7.66887 28.0858C7.71594 28.1122 7.76198 28.1406 7.80956 28.1665C8.04025 28.2927 8.27456 28.4137 8.51249 28.528C8.51818 28.5306 8.52439 28.5332 8.53008 28.5358C8.75715 28.6444 8.98784 28.7473 9.22111 28.8446C9.29353 28.8751 9.36749 28.902 9.44043 28.931C9.60905 28.9982 9.77767 29.0644 9.94939 29.1254C10.0404 29.158 10.1325 29.1875 10.224 29.2185C10.3803 29.2713 10.5375 29.3225 10.6958 29.3696C10.7961 29.3996 10.897 29.4275 10.9984 29.4554C11.1515 29.4979 11.3056 29.5382 11.4613 29.576C11.5663 29.6013 11.6718 29.6256 11.7778 29.6489C11.9335 29.683 12.0897 29.7141 12.247 29.743C12.3535 29.7627 12.4596 29.7829 12.5671 29.7999C12.7296 29.8263 12.893 29.8485 13.057 29.8698C13.1604 29.8832 13.2634 29.8982 13.3673 29.9091C13.5484 29.9287 13.7309 29.9427 13.9135 29.9556C14.002 29.9618 14.0894 29.9711 14.1778 29.9758C14.4504 29.9913 14.724 30.0001 15.0003 30.0001C15.2765 30.0001 15.5501 29.9913 15.8227 29.9768C15.9111 29.9722 15.999 29.9629 16.087 29.9567C16.2701 29.9437 16.4527 29.9298 16.6332 29.9101C16.7372 29.8987 16.8401 29.8842 16.9435 29.8708C17.1075 29.8496 17.2709 29.8273 17.4334 29.801C17.5404 29.7834 17.647 29.7637 17.7535 29.7441C17.9108 29.7151 18.0675 29.6841 18.2227 29.6499C18.3287 29.6267 18.4342 29.6023 18.5392 29.577C18.6944 29.5392 18.8485 29.4989 19.0021 29.4565C19.103 29.4285 19.2044 29.4006 19.3047 29.3706C19.4635 29.323 19.6203 29.2718 19.7765 29.2196C19.868 29.1885 19.9606 29.1591 20.0511 29.1265C20.2223 29.0649 20.3915 28.9992 20.5601 28.932C20.633 28.903 20.707 28.8756 20.7794 28.8456C21.0116 28.7484 21.2413 28.6465 21.4673 28.5379C21.474 28.5348 21.4813 28.5317 21.488 28.5285C21.7259 28.4142 21.9603 28.2932 22.1909 28.167C22.2385 28.1411 22.2846 28.1127 22.3316 28.0863C22.5101 27.986 22.687 27.8835 22.8608 27.7765C22.929 27.7346 22.9958 27.6901 23.063 27.6467C23.2135 27.5504 23.363 27.4527 23.5099 27.3518C23.5823 27.3017 23.6537 27.2499 23.7256 27.1982C23.8647 27.0984 24.0023 26.997 24.1378 26.893C24.2092 26.8382 24.2796 26.7823 24.3499 26.726C24.4834 26.6194 24.6153 26.5103 24.7451 26.3991C24.8118 26.3422 24.8785 26.2848 24.9437 26.2268C25.0761 26.1094 25.2059 25.9889 25.3342 25.8668C25.3921 25.8115 25.4511 25.7567 25.5085 25.7008C25.6472 25.5642 25.7827 25.4246 25.9156 25.2829C25.958 25.2373 26.002 25.1934 26.0444 25.1479C26.2177 24.9591 26.3873 24.7667 26.5508 24.5696L26.5513 24.5691C25.5489 20.4839 22.434 17.2372 18.4337 16.0315Z" fill="#D8447A"/>
</g>
<defs>
<clipPath id="clip0">
<rect width="30" height="30" fill="white"/>
</clipPath>
</defs>
</svg>
