<svg width="24" height="24" viewBox="0 0 24 24" fill="none" xmlns="http://www.w3.org/2000/svg">
<path d="M8.74798 13.2405C8.74798 12.9399 8.50412 12.6963 8.20323 12.6963H6.30227C6.00172 12.6963 5.75781 12.9399 5.75781 13.2405V15.1412C5.75781 15.4423 6.00172 15.6859 6.30227 15.6859H8.20323C8.50412 15.6859 8.74798 15.4423 8.74798 15.1412V13.2405Z" fill="#BE1452"/>
<path d="M13.4958 13.2405C13.4958 12.9399 13.2518 12.6963 12.9515 12.6963H11.0503C10.7498 12.6963 10.5059 12.9399 10.5059 13.2405V15.1412C10.5059 15.4423 10.7498 15.6859 11.0503 15.6859H12.9515C13.2518 15.6859 13.4958 15.4423 13.4958 15.1412V13.2405Z" fill="#BE1452"/>
<path d="M18.248 13.2405C18.248 12.9399 18.0041 12.6963 17.7035 12.6963H15.8026C15.5017 12.6963 15.2578 12.9399 15.2578 13.2405V15.1412C15.2578 15.4423 15.5017 15.6859 15.8026 15.6859H17.7035C18.0041 15.6859 18.248 15.4423 18.248 15.1412V13.2405Z" fill="#BE1452"/>
<path d="M8.74798 17.9918C8.74798 17.6906 8.50412 17.4473 8.20323 17.4473H6.30227C6.00172 17.4473 5.75781 17.6906 5.75781 17.9918V19.8921C5.75781 20.193 6.00172 20.4366 6.30227 20.4366H8.20323C8.50412 20.4366 8.74798 20.1929 8.74798 19.8921V17.9918Z" fill="#BE1452"/>
<path d="M13.4958 17.9918C13.4958 17.6906 13.2518 17.4473 12.9515 17.4473H11.0503C10.7498 17.4473 10.5059 17.6906 10.5059 17.9918V19.8921C10.5059 20.193 10.7498 20.4366 11.0503 20.4366H12.9515C13.2518 20.4366 13.4958 20.1929 13.4958 19.8921V17.9918Z" fill="#BE1452"/>
<path d="M18.248 17.9918C18.248 17.6906 18.0041 17.4473 17.7038 17.4473H15.8026C15.5017 17.4473 15.2578 17.6906 15.2578 17.9918V19.8921C15.2578 20.193 15.5017 20.4366 15.8026 20.4366H17.7038C18.0041 20.4366 18.248 20.1929 18.248 19.8921V17.9918Z" fill="#BE1452"/>
<path d="M21.6466 2.67204V5.57524C21.6466 6.88745 20.5821 7.94489 19.2701 7.94489H17.7709C16.4588 7.94489 15.3802 6.88745 15.3802 5.57524V2.66162H8.62293V5.57524C8.62293 6.88745 7.54434 7.94489 6.23242 7.94489H4.73294C3.42097 7.94489 2.3565 6.88745 2.3565 5.57524V2.67204C1.20983 2.70661 0.267578 3.65544 0.267578 4.82169V21.8358C0.267578 23.0239 1.23062 23.9998 2.41879 23.9998H21.5843C22.7707 23.9998 23.7355 23.0219 23.7355 21.8358V4.82169C23.7355 3.65544 22.7933 2.70661 21.6466 2.67204ZM20.9503 20.7763C20.9503 21.2898 20.534 21.7063 20.0203 21.7063H3.94183C3.42815 21.7063 3.01182 21.2898 3.01182 20.7763V11.9879C3.01182 11.4742 3.4281 11.0576 3.94183 11.0576H20.0203C20.5339 11.0576 20.9503 11.4742 20.9503 11.9879L20.9503 20.7763Z" fill="#BE1452"/>
<path d="M4.72912 6.38875H6.21203C6.66214 6.38875 7.02709 6.02434 7.02709 5.57423V0.814812C7.02709 0.364657 6.66214 0 6.21203 0H4.72912C4.27896 0 3.91406 0.364657 3.91406 0.814812V5.57423C3.91406 6.02434 4.27896 6.38875 4.72912 6.38875Z" fill="#BE1452"/>
<path d="M17.7525 6.38875H19.2354C19.6852 6.38875 20.0502 6.02434 20.0502 5.57423V0.814812C20.0502 0.364657 19.6853 0 19.2354 0H17.7525C17.3025 0 16.9375 0.364657 16.9375 0.814812V5.57423C16.9375 6.02434 17.3025 6.38875 17.7525 6.38875Z" fill="#BE1452"/>
</svg>
