<svg width="9" height="9" viewBox="0 0 9 9" fill="none" xmlns="http://www.w3.org/2000/svg">
<path id="Vector" d="M7.78953 7.26L5.27971 4.76562L7.78953 2.27125C8.13589 1.92702 8.13652 1.36889 7.78953 1.02403C7.44254 0.679176 6.88095 0.679804 6.53459 1.02403L4.02477 3.51841L1.51495 1.02403C1.16796 0.679175 0.606365 0.679804 0.260006 1.02403C-0.0863526 1.36826 -0.0869849 1.92639 0.260007 2.27125L2.76983 4.76562L0.260006 7.26C-0.0863525 7.60423 -0.0869848 8.16236 0.260007 8.50722C0.606999 8.85207 1.16859 8.85145 1.51495 8.50722L4.02477 6.01284L6.53459 8.50722C6.88158 8.85207 7.44317 8.85145 7.78953 8.50722C8.13589 8.16299 8.13652 7.60486 7.78953 7.26Z" fill="#BE1452"/>
</svg>
