<svg width="16" height="16" viewBox="0 0 16 16" fill="none" xmlns="http://www.w3.org/2000/svg">
<circle cx="8" cy="8" r="7.5" fill="#F6F6F6" stroke="#DEDEDE"/>
<g clip-path="url(#clip0_21142_8629)">
<path d="M8.62906 8.0057L11.2991 5.33558C11.4729 5.1619 11.4729 4.88109 11.2991 4.70741C11.1254 4.53373 10.8446 4.53373 10.6709 4.70741L8.00081 7.37752L5.33076 4.70741C5.157 4.53373 4.87627 4.53373 4.70259 4.70741C4.52883 4.88109 4.52883 5.1619 4.70259 5.33558L7.37263 8.0057L4.70259 10.6758C4.52883 10.8495 4.52883 11.1303 4.70259 11.304C4.78914 11.3906 4.90295 11.4342 5.01668 11.4342C5.1304 11.4342 5.24413 11.3906 5.33076 11.304L8.00081 8.63388L10.6709 11.304C10.7576 11.3906 10.8713 11.4342 10.985 11.4342C11.0987 11.4342 11.2125 11.3906 11.2991 11.304C11.4729 11.1303 11.4729 10.8495 11.2991 10.6758L8.62906 8.0057Z" fill="#252525"/>
</g>
<defs>
<clipPath id="clip0_21142_8629">
<rect width="6.85714" height="6.85714" fill="white" transform="translate(4.57227 4.57129)"/>
</clipPath>
</defs>
</svg>
