<svg width="16" height="16" viewBox="0 0 16 16" fill="none" xmlns="http://www.w3.org/2000/svg">
<path d="M10.0427 0H3.61697C2.67762 0 1.91406 0.764127 1.91406 1.70291V14.2971C1.91406 15.2358 2.67762 16 3.61697 16H12.3847C13.323 16 14.0877 15.2359 14.0877 14.2971V4.03033L10.0427 0ZM12.3847 14.9566H3.61697C3.25293 14.9566 2.95691 14.6611 2.95691 14.2971V1.70291C2.95691 1.33943 3.25293 1.04391 3.61697 1.04391L9.65253 1.03767V3.2683C9.65253 3.92049 10.1818 4.44983 10.8335 4.44983L13.0197 4.44356L13.0438 14.2971C13.0438 14.6611 12.7488 14.9566 12.3847 14.9566Z" fill="#BE1452"/>
<path d="M7.71589 3.02777C7.71589 2.87332 7.59065 2.74805 7.43617 2.74805H4.20159C4.04712 2.74805 3.92188 2.87332 3.92188 3.02777V6.26198C3.92188 6.41642 4.04712 6.5417 4.20159 6.5417H7.43617C7.59065 6.5417 7.71589 6.41646 7.71589 6.26198V3.02777Z" fill="#BE1452"/>
<path d="M7.7168 13.6975C7.7168 13.852 7.84204 13.9772 7.99652 13.9772H11.7659C11.9204 13.9772 12.0457 13.852 12.0457 13.6975V10.7348C12.0457 10.5803 11.9204 10.4551 11.7659 10.4551H7.99652C7.84204 10.4551 7.7168 10.5803 7.7168 10.7348V13.6975ZM8.52008 11.2584H11.2424V13.174H8.52008V11.2584Z" fill="#BE1452"/>
<path d="M11.4197 7.19629H4.36844C4.14666 7.19629 3.9668 7.37619 3.9668 7.59797C3.9668 7.81974 4.14669 7.99964 4.36844 7.99964H11.4197C11.6415 7.99964 11.8214 7.81974 11.8214 7.59797C11.8214 7.37619 11.6415 7.19629 11.4197 7.19629Z" fill="#BE1452"/>
<path d="M8.65366 6.3932H11.4204C11.6422 6.3932 11.822 6.2133 11.822 5.99152C11.822 5.76974 11.6421 5.58984 11.4204 5.58984H8.65366C8.43185 5.58984 8.25195 5.76974 8.25195 5.99152C8.25195 6.2133 8.43185 6.3932 8.65366 6.3932Z" fill="#BE1452"/>
<path d="M11.4197 8.80371H4.36844C4.14666 8.80371 3.9668 8.98361 3.9668 9.20539C3.9668 9.42716 4.14669 9.60706 4.36844 9.60706H11.4197C11.6415 9.60706 11.8214 9.42716 11.8214 9.20539C11.8214 8.98361 11.6415 8.80371 11.4197 8.80371Z" fill="#BE1452"/>
<path d="M6.59959 10.4102H4.36844C4.14666 10.4102 3.9668 10.5901 3.9668 10.8118C3.9668 11.0336 4.14669 11.2135 4.36844 11.2135H6.59959C6.82137 11.2135 7.0013 11.0336 7.0013 10.8118C7.00127 10.5901 6.82137 10.4102 6.59959 10.4102Z" fill="#BE1452"/>
<path d="M6.59959 12.0166H4.36844C4.14666 12.0166 3.9668 12.1965 3.9668 12.4182C3.9668 12.64 4.14669 12.8199 4.36844 12.8199H6.59959C6.82137 12.8199 7.0013 12.64 7.0013 12.4182C7.00127 12.1965 6.82137 12.0166 6.59959 12.0166Z" fill="#BE1452"/>
</svg>
