<svg width="40" height="40" viewBox="0 0 40 40" fill="none" xmlns="http://www.w3.org/2000/svg">
<g id="mortgage 1" clip-path="url(#clip0_151_4753)">
<g id="XMLID 1248">
<g id="XMLID 871">
<path id="XMLID 874" d="M6.97656 13.291H24.037C24.4684 13.291 24.8182 12.9412 24.8182 12.5098C24.8182 12.0783 24.4684 11.7285 24.037 11.7285H6.97656C6.54508 11.7285 6.19531 12.0783 6.19531 12.5098C6.19531 12.9412 6.54508 13.291 6.97656 13.291Z" fill="#BE1452"/>
<path id="XMLID 887" d="M11.0029 8.91602H20.0102C20.4417 8.91602 20.7914 8.56625 20.7914 8.13477C20.7914 7.70328 20.4417 7.35352 20.0102 7.35352H11.0029C10.5714 7.35352 10.2217 7.70328 10.2217 8.13477C10.2217 8.56625 10.5714 8.91602 11.0029 8.91602Z" fill="#BE1452"/>
<path id="XMLID 917" d="M6.97656 17.666H24.037C24.4684 17.666 24.8182 17.3162 24.8182 16.8848C24.8182 16.4533 24.4684 16.1035 24.037 16.1035H6.97656C6.54508 16.1035 6.19531 16.4533 6.19531 16.8848C6.19531 17.3162 6.54508 17.666 6.97656 17.666Z" fill="#BE1452"/>
<path id="XMLID 919" d="M8.78664 26.2692C9.3539 26.2692 9.81539 26.6556 9.81539 27.1306C9.81539 27.562 10.1652 27.9119 10.5966 27.9119C11.0281 27.9119 11.3779 27.562 11.3779 27.1306C11.3779 26.0487 10.616 25.1302 9.56789 24.8195V24.7109C9.56789 24.2795 9.21812 23.9297 8.78664 23.9297C8.35515 23.9297 8.00539 24.2795 8.00539 24.7109V24.8195C6.95719 25.1302 6.19531 26.0487 6.19531 27.1306C6.19531 28.4672 7.35773 29.5546 8.78664 29.5546C9.3539 29.5546 9.81539 29.941 9.81539 30.416C9.81539 30.891 9.3539 31.2775 8.78664 31.2775C8.21937 31.2775 7.75781 30.891 7.75781 30.416C7.75781 29.9846 7.40805 29.6348 6.97656 29.6348C6.54508 29.6348 6.19531 29.9846 6.19531 30.416C6.19531 31.498 6.95719 32.4165 8.00539 32.7272V32.8358C8.00539 33.2672 8.35515 33.617 8.78664 33.617C9.21812 33.617 9.56789 33.2672 9.56789 32.8358V32.7272C10.6161 32.4164 11.3779 31.498 11.3779 30.416C11.3779 29.0795 10.2155 27.9921 8.78664 27.9921C8.21937 27.9921 7.75781 27.6056 7.75781 27.1306C7.75781 26.6556 8.21937 26.2692 8.78664 26.2692Z" fill="#BE1452"/>
<path id="XMLID 920" d="M15.5067 20.4785H6.97656C6.54508 20.4785 6.19531 20.8284 6.19531 21.2598C6.19531 21.6912 6.54508 22.041 6.97656 22.041H15.5067C15.9382 22.041 16.288 21.6912 16.288 21.2598C16.288 20.8284 15.9382 20.4785 15.5067 20.4785Z" fill="#BE1452"/>
<path id="XMLID 1032" d="M39.7712 26.892L30.7812 17.902V0.78125C30.7812 0.349766 30.4315 0 30 0H0.78125C0.349766 0 0 0.349766 0 0.78125V39.2188C0 39.6502 0.349766 40 0.78125 40H37.6878C38.1193 40 38.4691 39.6502 38.4691 39.2188V28.2256H39.2188C39.5347 28.2256 39.8196 28.0352 39.9405 27.7434C40.0615 27.4514 39.9946 27.1154 39.7712 26.892ZM1.5625 1.5625H29.2188V16.358C29.0889 16.268 28.9341 16.2184 28.7741 16.2184C28.5669 16.2184 28.3681 16.3007 28.2216 16.4472L17.7769 26.892C17.5534 27.1154 17.4866 27.4514 17.6076 27.7434C17.7285 28.0352 18.0134 28.2256 18.3294 28.2256H19.0791V38.4375H1.5625V1.5625ZM26.0397 38.4375V31.6631H31.5084V38.4375H26.0397ZM36.9066 38.4375H33.0709V30.8819C33.0709 30.4505 32.7212 30.1006 32.2897 30.1006H25.2584C24.827 30.1006 24.4772 30.4505 24.4772 30.8819V38.4375H20.6416V28.2256H25.2584C25.6899 28.2256 26.0397 27.8758 26.0397 27.4444C26.0397 27.013 25.6899 26.6631 25.2584 26.6631H20.2154L28.774 18.1045L37.3326 26.6631H32.2897C31.8582 26.6631 31.5084 27.013 31.5084 27.4444C31.5084 27.8758 31.8582 28.2256 32.2897 28.2256H36.9065V38.4375H36.9066Z" fill="#BE1452"/>
<path id="XMLID 1035" d="M28.7744 26.6641C28.5682 26.6641 28.3674 26.7476 28.2221 26.893C28.076 27.0383 27.9932 27.2391 27.9932 27.4453C27.9932 27.6508 28.076 27.8523 28.2221 27.9976C28.3674 28.1429 28.5689 28.2266 28.7744 28.2266C28.9799 28.2266 29.1814 28.143 29.3268 27.9976C29.4721 27.8523 29.5557 27.6508 29.5557 27.4453C29.5557 27.2398 29.4721 27.0383 29.3268 26.893C29.1814 26.7477 28.9799 26.6641 28.7744 26.6641Z" fill="#BE1452"/>
</g>
</g>
</g>
<defs>
<clipPath id="clip0_151_4753">
<rect width="40" height="40" fill="white"/>
</clipPath>
</defs>
</svg>
