<?xml version="1.0" encoding="UTF-8"?>
<svg xmlns="http://www.w3.org/2000/svg" xmlns:xlink="http://www.w3.org/1999/xlink" viewBox="0 0 250 250" width="250px" height="250px">
<g id="surface63153587">
<path style=" stroke:none;fill-rule:nonzero;fill:rgb(90.588236%,29.803923%,23.529412%);fill-opacity:1;" d="M 151.992188 10 L 35 10 L 35 240 L 215 240 L 215 73.007812 Z M 150 75 L 150 21.992188 L 203.007812 75 Z M 150 75 "/>
<path style=" stroke:none;fill-rule:nonzero;fill:rgb(100%,100%,100%);fill-opacity:1;" d="M 82.980469 130.378906 L 71.292969 130.378906 L 71.292969 149.796875 L 64.753906 149.796875 L 64.753906 100.203125 L 83.050781 100.203125 C 88.480469 100.203125 92.726562 101.585938 95.800781 104.347656 C 98.878906 107.117188 100.421875 110.785156 100.421875 115.347656 C 100.421875 120.164062 98.914062 123.875 95.902344 126.484375 C 92.898438 129.078125 88.589844 130.378906 82.980469 130.378906 Z M 71.292969 105.582031 L 71.292969 125.027344 L 83.050781 125.027344 C 86.550781 125.027344 89.230469 124.207031 91.089844 122.558594 C 92.949219 120.910156 93.878906 118.53125 93.878906 115.421875 C 93.878906 112.464844 92.949219 110.105469 91.089844 108.34375 C 89.230469 106.570312 86.671875 105.648438 83.414062 105.582031 Z M 122.5 149.796875 L 108.765625 149.796875 L 108.765625 100.203125 L 122.777344 100.203125 C 127.089844 100.203125 130.902344 101.152344 134.214844 103.050781 C 137.527344 104.960938 140.09375 107.679688 141.902344 111.207031 C 143.707031 114.722656 144.617188 118.765625 144.636719 123.328125 L 144.636719 126.496094 C 144.636719 131.175781 143.734375 135.277344 141.933594 138.792969 C 140.128906 142.3125 137.554688 145.015625 134.199219 146.902344 C 130.847656 148.785156 126.949219 149.75 122.5 149.796875 Z M 122.9375 105.582031 L 115.304688 105.582031 L 115.304688 144.449219 L 122.195312 144.449219 C 127.234375 144.449219 131.152344 142.882812 133.953125 139.753906 C 136.761719 136.613281 138.167969 132.152344 138.167969 126.367188 L 138.167969 123.460938 C 138.167969 117.828125 136.847656 113.453125 134.199219 110.335938 C 131.554688 107.214844 127.800781 105.628906 122.9375 105.582031 Z M 181.875 122.542969 L 181.875 127.890625 L 161.0625 127.890625 L 161.0625 149.796875 L 154.519531 149.796875 L 154.519531 100.203125 L 185.246094 100.203125 L 185.246094 105.582031 L 161.0625 105.582031 L 161.0625 122.542969 Z M 181.875 122.542969 "/>
</g>
</svg>
