<svg width="14" height="15" viewBox="0 0 14 15" fill="none" xmlns="http://www.w3.org/2000/svg">
<g clip-path="url(#clip0_11155_3504)">
<path d="M8.56595 2.84422L2.00391 9.40625L5.47114 12.8735L12.0332 6.31145L8.56595 2.84422Z" fill="#BE1452"/>
<path d="M13.7901 3.66506L11.2294 1.06802C10.9751 0.813769 10.5756 0.813769 10.3395 1.04986C10.3395 1.04986 10.3395 1.04986 10.3213 1.06802L9.19531 2.19401L12.6641 5.68094L13.7901 4.55495C14.0443 4.3007 14.0443 3.90115 13.7901 3.66506Z" fill="#BE1452"/>
<path d="M1.49545 10.1641L0.0607284 14.0142C-0.0663992 14.3411 0.0970506 14.7043 0.42395 14.8314C0.569239 14.8859 0.732689 14.8859 0.877977 14.8314L4.72813 13.3786L1.49545 10.1641Z" fill="#BE1452"/>
</g>
<defs>
<clipPath id="clip0_11155_3504">
<rect width="14" height="14" fill="white" transform="translate(0 0.875)"/>
</clipPath>
</defs>
</svg>
