<svg width="50" height="46" viewBox="0 0 50 46" fill="none" xmlns="http://www.w3.org/2000/svg">
<g id="Group">
<g id="Group_2">
<path id="Vector" d="M19.2871 8.44922C19.2871 8.04473 18.9592 7.7168 18.5547 7.7168H13.2812C12.8768 7.7168 12.5488 8.04473 12.5488 8.44922V13.332C12.5488 13.7365 12.8768 14.0645 13.2812 14.0645H18.5547C18.9592 14.0645 19.2871 13.7365 19.2871 13.332V8.44922ZM17.8223 12.5996H14.0137V9.18164H17.8223V12.5996Z" fill="#BE1452"/>
<path id="Vector_2" d="M37.4512 8.44922C37.4512 8.04473 37.1232 7.7168 36.7188 7.7168H31.4453C31.0408 7.7168 30.7129 8.04473 30.7129 8.44922V13.332C30.7129 13.7365 31.0408 14.0645 31.4453 14.0645H36.7188C37.1232 14.0645 37.4512 13.7365 37.4512 13.332V8.44922ZM35.9863 12.5996H32.1777V9.18164H35.9863V12.5996Z" fill="#BE1452"/>
<path id="Vector_3" d="M28.3691 8.44922C28.3691 8.04473 28.0412 7.7168 27.6367 7.7168H22.3633C21.9588 7.7168 21.6309 8.04473 21.6309 8.44922V13.332C21.6309 13.7365 21.9588 14.0645 22.3633 14.0645H27.6367C28.0412 14.0645 28.3691 13.7365 28.3691 13.332V8.44922ZM26.9043 12.5996H23.0957V9.18164H26.9043V12.5996Z" fill="#BE1452"/>
<path id="Vector_4" d="M19.2871 16.8477C19.2871 16.4432 18.9592 16.1152 18.5547 16.1152H13.2812C12.8768 16.1152 12.5488 16.4432 12.5488 16.8477V21.7305C12.5488 22.135 12.8768 22.4629 13.2812 22.4629H18.5547C18.9592 22.4629 19.2871 22.135 19.2871 21.7305V16.8477ZM17.8223 20.998H14.0137V17.5801H17.8223V20.998Z" fill="#BE1452"/>
<path id="Vector_5" d="M37.4512 16.8477C37.4512 16.4432 37.1232 16.1152 36.7188 16.1152H31.4453C31.0408 16.1152 30.7129 16.4432 30.7129 16.8477V21.7305C30.7129 22.135 31.0408 22.4629 31.4453 22.4629H36.7188C37.1232 22.4629 37.4512 22.135 37.4512 21.7305V16.8477ZM35.9863 20.998H32.1777V17.5801H35.9863V20.998Z" fill="#BE1452"/>
<path id="Vector_6" d="M28.3691 16.8477C28.3691 16.4432 28.0412 16.1152 27.6367 16.1152H22.3633C21.9588 16.1152 21.6309 16.4432 21.6309 16.8477V21.7305C21.6309 22.135 21.9588 22.4629 22.3633 22.4629H27.6367C28.0412 22.4629 28.3691 22.135 28.3691 21.7305V16.8477ZM26.9043 20.998H23.0957V17.5801H26.9043V20.998Z" fill="#BE1452"/>
<path id="Vector_7" d="M18.5547 24.6113H13.2812C12.8768 24.6113 12.5488 24.9393 12.5488 25.3438V30.2266C12.5488 30.6311 12.8768 30.959 13.2812 30.959H18.5547C18.9592 30.959 19.2871 30.6311 19.2871 30.2266V25.3438C19.2871 24.9393 18.9592 24.6113 18.5547 24.6113ZM17.8223 29.4941H14.0137V26.0762H17.8223V29.4941Z" fill="#BE1452"/>
<path id="Vector_8" d="M36.7188 24.6113H31.4453C31.0408 24.6113 30.7129 24.9393 30.7129 25.3438V30.2266C30.7129 30.6311 31.0408 30.959 31.4453 30.959H36.7188C37.1232 30.959 37.4512 30.6311 37.4512 30.2266V25.3438C37.4512 24.9393 37.1232 24.6113 36.7188 24.6113ZM35.9863 29.4941H32.1777V26.0762H35.9863V29.4941Z" fill="#BE1452"/>
<path id="Vector_9" d="M27.6367 24.6113H22.3633C21.9588 24.6113 21.6309 24.9393 21.6309 25.3438V30.2266C21.6309 30.6311 21.9588 30.959 22.3633 30.959H27.6367C28.0412 30.959 28.3691 30.6311 28.3691 30.2266V25.3438C28.3691 24.9393 28.0412 24.6113 27.6367 24.6113ZM26.9043 29.4941H23.0957V26.0762H26.9043V29.4941Z" fill="#BE1452"/>
<path id="Vector_10" d="M47.7051 40.5293H41.0645V4.54297C41.0645 4.13848 40.7365 3.81055 40.332 3.81055H37.5376C37.1331 3.81055 36.8052 4.13848 36.8052 4.54297C36.8052 4.94746 37.1331 5.27539 37.5376 5.27539H39.5996V40.5293H34.6191V33.4492C34.6191 33.0447 34.2912 32.7168 33.8867 32.7168H28.9288C28.5243 32.7168 28.1964 33.0447 28.1964 33.4492C28.1964 33.8537 28.5243 34.1816 28.9288 34.1816H29.834V40.5293H20.166V34.1816H25.7737C26.1782 34.1816 26.5062 33.8537 26.5062 33.4492C26.5062 33.0447 26.1782 32.7168 25.7737 32.7168H16.1133C15.7088 32.7168 15.3809 33.0447 15.3809 33.4492V40.5293H10.4004V35.8881C10.4004 35.4836 10.0725 35.1557 9.66797 35.1557C9.26348 35.1557 8.93555 35.4836 8.93555 35.8881V40.5293H2.29492C1.02949 40.5293 0 41.5588 0 42.8242C0 44.0896 1.02949 45.1191 2.29492 45.1191H47.7051C48.9705 45.1191 50 44.0896 50 42.8242C50 41.5588 48.9705 40.5293 47.7051 40.5293ZM31.2988 34.1816H33.1543V40.5293H31.2988V34.1816ZM16.8457 34.1816H18.7012V40.5293H16.8457V34.1816ZM47.7051 43.6543H2.29492C1.83721 43.6543 1.46484 43.2819 1.46484 42.8242C1.46484 42.3665 1.83721 41.9941 2.29492 41.9941H47.7051C48.1628 41.9941 48.5352 42.3665 48.5352 42.8242C48.5352 43.2819 48.1628 43.6543 47.7051 43.6543Z" fill="#BE1452"/>
<path id="Vector_11" d="M9.66797 33.5156C10.0725 33.5156 10.4004 33.1877 10.4004 32.7832V5.27539H34.2924C34.6969 5.27539 35.0248 4.94746 35.0248 4.54297C35.0248 4.13848 34.6969 3.81055 34.2924 3.81055H19.4824V1.61328C19.4824 1.20879 19.1545 0.880859 18.75 0.880859H12.8906C12.4861 0.880859 12.1582 1.20879 12.1582 1.61328V3.81055H9.66797C9.26348 3.81055 8.93555 4.13848 8.93555 4.54297V32.7832C8.93555 33.1877 9.26348 33.5156 9.66797 33.5156ZM13.623 2.3457H18.0176V3.81055H13.623V2.3457Z" fill="#BE1452"/>
</g>
</g>
</svg>
