<svg width="17" height="16" viewBox="0 0 17 16" fill="none" xmlns="http://www.w3.org/2000/svg">
<path d="M16.284 5.91246C16.1771 5.58187 15.8839 5.34706 15.537 5.3158L10.8247 4.88792L8.96131 0.526535C8.82391 0.206902 8.51101 0 8.16335 0C7.81569 0 7.50278 0.206902 7.36538 0.527282L5.50202 4.88792L0.788991 5.3158C0.442701 5.34781 0.150223 5.58187 0.0427236 5.91246C-0.0647757 6.24306 0.0345024 6.60567 0.296462 6.83424L3.85839 9.95807L2.80806 14.5848C2.7312 14.925 2.86324 15.2766 3.14551 15.4806C3.29723 15.5903 3.47473 15.6461 3.65373 15.6461C3.80807 15.6461 3.96116 15.6045 4.09855 15.5223L8.16335 13.0929L12.2266 15.5223C12.524 15.7011 12.8988 15.6848 13.1804 15.4806C13.4628 15.276 13.5947 14.9242 13.5179 14.5848L12.4676 9.95807L16.0295 6.83486C16.2914 6.60567 16.3915 6.24368 16.284 5.91246Z" fill="#ED8A19"/>
</svg>
