<svg width="50" height="50" viewBox="0 0 50 50" fill="none" xmlns="http://www.w3.org/2000/svg">
<g id="Group 42314">
<g id="Group">
<g id="Group_2">
<path id="Vector" d="M49.1667 7.91797H40V1.2513C40 0.791094 39.6269 0.417969 39.1667 0.417969H10.8333C10.3731 0.417969 10 0.791094 10 1.2513V12.918H0.833333C0.373125 12.918 0 13.2911 0 13.7513V47.918C0 48.3782 0.373125 48.7513 0.833333 48.7513C1.29354 48.7513 1.66667 48.3782 1.66667 47.918V14.5846H10V48.7513C10 49.2115 10.3731 49.5846 10.8333 49.5846H39.1667C39.6269 49.5846 40 49.2115 40 48.7513V9.58463H48.3333V47.918C48.3333 48.3782 48.7065 48.7513 49.1667 48.7513C49.6269 48.7513 50 48.3782 50 47.918V8.7513C50 8.29109 49.6269 7.91797 49.1667 7.91797ZM24.1667 47.918H20.8333V40.418H24.1667V47.918ZM29.1667 47.918H25.8333V40.418H29.1667V47.918ZM38.3333 47.918H30.8333V39.5846C30.8333 39.1244 30.4602 38.7513 30 38.7513H20C19.5398 38.7513 19.1667 39.1244 19.1667 39.5846V47.918H11.6667V2.08464H38.3333V47.918Z" fill="#B6B6B6"/>
</g>
</g>
<g id="Group_3">
<g id="Group_4">
<path id="Vector_2" d="M19.1663 3.75H14.1663C13.7061 3.75 13.333 4.12312 13.333 4.58333V9.58333C13.333 10.0435 13.7061 10.4167 14.1663 10.4167H19.1663C19.6265 10.4167 19.9997 10.0435 19.9997 9.58333V4.58333C19.9997 4.12312 19.6265 3.75 19.1663 3.75ZM18.333 8.75H14.9997V5.41667H18.333V8.75Z" fill="#B6B6B6"/>
</g>
</g>
<g id="Group_5">
<g id="Group_6">
<path id="Vector_3" d="M27.5003 3.75H22.5003C22.0401 3.75 21.667 4.12312 21.667 4.58333V9.58333C21.667 10.0435 22.0401 10.4167 22.5003 10.4167H27.5003C27.9605 10.4167 28.3337 10.0435 28.3337 9.58333V4.58333C28.3337 4.12312 27.9605 3.75 27.5003 3.75ZM26.667 8.75H23.3337V5.41667H26.667V8.75Z" fill="#B6B6B6"/>
</g>
</g>
<g id="Group_7">
<g id="Group_8">
<path id="Vector_4" d="M35.8333 3.75H30.8333C30.3731 3.75 30 4.12312 30 4.58333V9.58333C30 10.0435 30.3731 10.4167 30.8333 10.4167H35.8333C36.2935 10.4167 36.6667 10.0435 36.6667 9.58333V4.58333C36.6667 4.12312 36.2935 3.75 35.8333 3.75ZM35 8.75H31.6667V5.41667H35V8.75Z" fill="#B6B6B6"/>
</g>
</g>
<g id="Group_9">
<g id="Group_10">
<path id="Vector_5" d="M19.1663 12.084H14.1663C13.7061 12.084 13.333 12.4571 13.333 12.9173V17.9173C13.333 18.3775 13.7061 18.7507 14.1663 18.7507H19.1663C19.6265 18.7507 19.9997 18.3775 19.9997 17.9173V12.9173C19.9997 12.4571 19.6265 12.084 19.1663 12.084ZM18.333 17.084H14.9997V13.7507H18.333V17.084Z" fill="#B6B6B6"/>
</g>
</g>
<g id="Group_11">
<g id="Group_12">
<path id="Vector_6" d="M27.5003 12.084H22.5003C22.0401 12.084 21.667 12.4571 21.667 12.9173V17.9173C21.667 18.3775 22.0401 18.7507 22.5003 18.7507H27.5003C27.9605 18.7507 28.3337 18.3775 28.3337 17.9173V12.9173C28.3337 12.4571 27.9605 12.084 27.5003 12.084ZM26.667 17.084H23.3337V13.7507H26.667V17.084Z" fill="#B6B6B6"/>
</g>
</g>
<g id="Group_13">
<g id="Group_14">
<path id="Vector_7" d="M35.8333 12.084H30.8333C30.3731 12.084 30 12.4571 30 12.9173V17.9173C30 18.3775 30.3731 18.7507 30.8333 18.7507H35.8333C36.2935 18.7507 36.6667 18.3775 36.6667 17.9173V12.9173C36.6667 12.4571 36.2935 12.084 35.8333 12.084ZM35 17.084H31.6667V13.7507H35V17.084Z" fill="#B6B6B6"/>
</g>
</g>
<g id="Group_15">
<g id="Group_16">
<path id="Vector_8" d="M19.1663 20.418H14.1663C13.7061 20.418 13.333 20.7911 13.333 21.2513V26.2513C13.333 26.7115 13.7061 27.0846 14.1663 27.0846H19.1663C19.6265 27.0846 19.9997 26.7115 19.9997 26.2513V21.2513C19.9997 20.7911 19.6265 20.418 19.1663 20.418ZM18.333 25.418H14.9997V22.0846H18.333V25.418Z" fill="#B6B6B6"/>
</g>
</g>
<g id="Group_17">
<g id="Group_18">
<path id="Vector_9" d="M27.5003 20.418H22.5003C22.0401 20.418 21.667 20.7911 21.667 21.2513V26.2513C21.667 26.7115 22.0401 27.0846 22.5003 27.0846H27.5003C27.9605 27.0846 28.3337 26.7115 28.3337 26.2513V21.2513C28.3337 20.7911 27.9605 20.418 27.5003 20.418ZM26.667 25.418H23.3337V22.0846H26.667V25.418Z" fill="#B6B6B6"/>
</g>
</g>
<g id="Group_19">
<g id="Group_20">
<path id="Vector_10" d="M35.8333 20.418H30.8333C30.3731 20.418 30 20.7911 30 21.2513V26.2513C30 26.7115 30.3731 27.0846 30.8333 27.0846H35.8333C36.2935 27.0846 36.6667 26.7115 36.6667 26.2513V21.2513C36.6667 20.7911 36.2935 20.418 35.8333 20.418ZM35 25.418H31.6667V22.0846H35V25.418Z" fill="#B6B6B6"/>
</g>
</g>
<g id="Group_21">
<g id="Group_22">
<path id="Vector_11" d="M19.1663 28.75H14.1663C13.7061 28.75 13.333 29.1231 13.333 29.5833V34.5833C13.333 35.0435 13.7061 35.4167 14.1663 35.4167H19.1663C19.6265 35.4167 19.9997 35.0435 19.9997 34.5833V29.5833C19.9997 29.1231 19.6265 28.75 19.1663 28.75ZM18.333 33.75H14.9997V30.4167H18.333V33.75Z" fill="#B6B6B6"/>
</g>
</g>
<g id="Group_23">
<g id="Group_24">
<path id="Vector_12" d="M27.5003 28.75H22.5003C22.0401 28.75 21.667 29.1231 21.667 29.5833V34.5833C21.667 35.0435 22.0401 35.4167 22.5003 35.4167H27.5003C27.9605 35.4167 28.3337 35.0435 28.3337 34.5833V29.5833C28.3337 29.1231 27.9605 28.75 27.5003 28.75ZM26.667 33.75H23.3337V30.4167H26.667V33.75Z" fill="#B6B6B6"/>
</g>
</g>
<g id="Group_25">
<g id="Group_26">
<path id="Vector_13" d="M35.8333 28.75H30.8333C30.3731 28.75 30 29.1231 30 29.5833V34.5833C30 35.0435 30.3731 35.4167 30.8333 35.4167H35.8333C36.2935 35.4167 36.6667 35.0435 36.6667 34.5833V29.5833C36.6667 29.1231 36.2935 28.75 35.8333 28.75ZM35 33.75H31.6667V30.4167H35V33.75Z" fill="#B6B6B6"/>
</g>
</g>
<g id="Group_27">
<g id="Group_28">
<path id="Vector_14" d="M4.99967 16.25H4.16634C3.70613 16.25 3.33301 16.6231 3.33301 17.0833V17.9167C3.33301 18.3769 3.70613 18.75 4.16634 18.75H4.99967C5.45988 18.75 5.83301 18.3769 5.83301 17.9167V17.0833C5.83301 16.6231 5.45988 16.25 4.99967 16.25Z" fill="#B6B6B6"/>
</g>
</g>
<g id="Group_29">
<g id="Group_30">
<path id="Vector_15" d="M8.33366 16.25H7.50033C7.04012 16.25 6.66699 16.6231 6.66699 17.0833V17.9167C6.66699 18.3769 7.04012 18.75 7.50033 18.75H8.33366C8.79387 18.75 9.16699 18.3769 9.16699 17.9167V17.0833C9.16699 16.6231 8.79387 16.25 8.33366 16.25Z" fill="#B6B6B6"/>
</g>
</g>
<g id="Group_31">
<g id="Group_32">
<path id="Vector_16" d="M4.99967 19.584H4.16634C3.70613 19.584 3.33301 19.9571 3.33301 20.4173V21.2507C3.33301 21.7109 3.70613 22.084 4.16634 22.084H4.99967C5.45988 22.084 5.83301 21.7109 5.83301 21.2507V20.4173C5.83301 19.9571 5.45988 19.584 4.99967 19.584Z" fill="#B6B6B6"/>
</g>
</g>
<g id="Group_33">
<g id="Group_34">
<path id="Vector_17" d="M8.33366 19.584H7.50033C7.04012 19.584 6.66699 19.9571 6.66699 20.4173V21.2507C6.66699 21.7109 7.04012 22.084 7.50033 22.084H8.33366C8.79387 22.084 9.16699 21.7109 9.16699 21.2507V20.4173C9.16699 19.9571 8.79387 19.584 8.33366 19.584Z" fill="#B6B6B6"/>
</g>
</g>
<g id="Group_35">
<g id="Group_36">
<path id="Vector_18" d="M4.99967 22.918H4.16634C3.70613 22.918 3.33301 23.2911 3.33301 23.7513V24.5846C3.33301 25.0448 3.70613 25.418 4.16634 25.418H4.99967C5.45988 25.418 5.83301 25.0448 5.83301 24.5846V23.7513C5.83301 23.2911 5.45988 22.918 4.99967 22.918Z" fill="#B6B6B6"/>
</g>
</g>
<g id="Group_37">
<g id="Group_38">
<path id="Vector_19" d="M8.33366 22.918H7.50033C7.04012 22.918 6.66699 23.2911 6.66699 23.7513V24.5846C6.66699 25.0448 7.04012 25.418 7.50033 25.418H8.33366C8.79387 25.418 9.16699 25.0448 9.16699 24.5846V23.7513C9.16699 23.2911 8.79387 22.918 8.33366 22.918Z" fill="#B6B6B6"/>
</g>
</g>
<g id="Group_39">
<g id="Group_40">
<path id="Vector_20" d="M4.99967 26.25H4.16634C3.70613 26.25 3.33301 26.6231 3.33301 27.0833V27.9167C3.33301 28.3769 3.70613 28.75 4.16634 28.75H4.99967C5.45988 28.75 5.83301 28.3769 5.83301 27.9167V27.0833C5.83301 26.6231 5.45988 26.25 4.99967 26.25Z" fill="#B6B6B6"/>
</g>
</g>
<g id="Group_41">
<g id="Group_42">
<path id="Vector_21" d="M8.33366 26.25H7.50033C7.04012 26.25 6.66699 26.6231 6.66699 27.0833V27.9167C6.66699 28.3769 7.04012 28.75 7.50033 28.75H8.33366C8.79387 28.75 9.16699 28.3769 9.16699 27.9167V27.0833C9.16699 26.6231 8.79387 26.25 8.33366 26.25Z" fill="#B6B6B6"/>
</g>
</g>
<g id="Group_43">
<g id="Group_44">
<path id="Vector_22" d="M4.99967 29.584H4.16634C3.70613 29.584 3.33301 29.9571 3.33301 30.4173V31.2507C3.33301 31.7109 3.70613 32.084 4.16634 32.084H4.99967C5.45988 32.084 5.83301 31.7109 5.83301 31.2507V30.4173C5.83301 29.9571 5.45988 29.584 4.99967 29.584Z" fill="#B6B6B6"/>
</g>
</g>
<g id="Group_45">
<g id="Group_46">
<path id="Vector_23" d="M8.33366 29.584H7.50033C7.04012 29.584 6.66699 29.9571 6.66699 30.4173V31.2507C6.66699 31.7109 7.04012 32.084 7.50033 32.084H8.33366C8.79387 32.084 9.16699 31.7109 9.16699 31.2507V30.4173C9.16699 29.9571 8.79387 29.584 8.33366 29.584Z" fill="#B6B6B6"/>
</g>
</g>
<g id="Group_47">
<g id="Group_48">
<path id="Vector_24" d="M4.99967 32.918H4.16634C3.70613 32.918 3.33301 33.2911 3.33301 33.7513V34.5846C3.33301 35.0448 3.70613 35.418 4.16634 35.418H4.99967C5.45988 35.418 5.83301 35.0448 5.83301 34.5846V33.7513C5.83301 33.2911 5.45988 32.918 4.99967 32.918Z" fill="#B6B6B6"/>
</g>
</g>
<g id="Group_49">
<g id="Group_50">
<path id="Vector_25" d="M8.33366 32.918H7.50033C7.04012 32.918 6.66699 33.2911 6.66699 33.7513V34.5846C6.66699 35.0448 7.04012 35.418 7.50033 35.418H8.33366C8.79387 35.418 9.16699 35.0448 9.16699 34.5846V33.7513C9.16699 33.2911 8.79387 32.918 8.33366 32.918Z" fill="#B6B6B6"/>
</g>
</g>
<g id="Group_51">
<g id="Group_52">
<path id="Vector_26" d="M4.99967 36.25H4.16634C3.70613 36.25 3.33301 36.6231 3.33301 37.0833V37.9167C3.33301 38.3769 3.70613 38.75 4.16634 38.75H4.99967C5.45988 38.75 5.83301 38.3769 5.83301 37.9167V37.0833C5.83301 36.6231 5.45988 36.25 4.99967 36.25Z" fill="#B6B6B6"/>
</g>
</g>
<g id="Group_53">
<g id="Group_54">
<path id="Vector_27" d="M8.33366 36.25H7.50033C7.04012 36.25 6.66699 36.6231 6.66699 37.0833V37.9167C6.66699 38.3769 7.04012 38.75 7.50033 38.75H8.33366C8.79387 38.75 9.16699 38.3769 9.16699 37.9167V37.0833C9.16699 36.6231 8.79387 36.25 8.33366 36.25Z" fill="#B6B6B6"/>
</g>
</g>
<g id="Group_55">
<g id="Group_56">
<path id="Vector_28" d="M4.99967 39.584H4.16634C3.70613 39.584 3.33301 39.9571 3.33301 40.4173V41.2506C3.33301 41.7109 3.70613 42.084 4.16634 42.084H4.99967C5.45988 42.084 5.83301 41.7109 5.83301 41.2506V40.4173C5.83301 39.9571 5.45988 39.584 4.99967 39.584Z" fill="#B6B6B6"/>
</g>
</g>
<g id="Group_57">
<g id="Group_58">
<path id="Vector_29" d="M8.33366 39.584H7.50033C7.04012 39.584 6.66699 39.9571 6.66699 40.4173V41.2506C6.66699 41.7109 7.04012 42.084 7.50033 42.084H8.33366C8.79387 42.084 9.16699 41.7109 9.16699 41.2506V40.4173C9.16699 39.9571 8.79387 39.584 8.33366 39.584Z" fill="#B6B6B6"/>
</g>
</g>
<g id="Group_59">
<g id="Group_60">
<path id="Vector_30" d="M4.99967 42.918H4.16634C3.70613 42.918 3.33301 43.2911 3.33301 43.7513V44.5846C3.33301 45.0448 3.70613 45.418 4.16634 45.418H4.99967C5.45988 45.418 5.83301 45.0448 5.83301 44.5846V43.7513C5.83301 43.2911 5.45988 42.918 4.99967 42.918Z" fill="#B6B6B6"/>
</g>
</g>
<g id="Group_61">
<g id="Group_62">
<path id="Vector_31" d="M8.33366 42.918H7.50033C7.04012 42.918 6.66699 43.2911 6.66699 43.7513V44.5846C6.66699 45.0448 7.04012 45.418 7.50033 45.418H8.33366C8.79387 45.418 9.16699 45.0448 9.16699 44.5846V43.7513C9.16699 43.2911 8.79387 42.918 8.33366 42.918Z" fill="#B6B6B6"/>
</g>
</g>
<g id="Group_63">
<g id="Group_64">
<path id="Vector_32" d="M45.8337 11.25H42.5003C42.0401 11.25 41.667 11.6231 41.667 12.0833V15.4167C41.667 15.8769 42.0401 16.25 42.5003 16.25H45.8337C46.2939 16.25 46.667 15.8769 46.667 15.4167V12.0833C46.667 11.6231 46.2939 11.25 45.8337 11.25ZM45.0003 14.5833H43.3337V12.9167H45.0003V14.5833Z" fill="#B6B6B6"/>
</g>
</g>
<g id="Group_65">
<g id="Group_66">
<path id="Vector_33" d="M45.8337 17.918H42.5003C42.0401 17.918 41.667 18.2911 41.667 18.7513V22.0846C41.667 22.5448 42.0401 22.918 42.5003 22.918H45.8337C46.2939 22.918 46.667 22.5448 46.667 22.0846V18.7513C46.667 18.2911 46.2939 17.918 45.8337 17.918ZM45.0003 21.2513H43.3337V19.5846H45.0003V21.2513Z" fill="#B6B6B6"/>
</g>
</g>
<g id="Group_67">
<g id="Group_68">
<path id="Vector_34" d="M45.8337 24.584H42.5003C42.0401 24.584 41.667 24.9571 41.667 25.4173V28.7506C41.667 29.2109 42.0401 29.584 42.5003 29.584H45.8337C46.2939 29.584 46.667 29.2109 46.667 28.7506V25.4173C46.667 24.9571 46.2939 24.584 45.8337 24.584ZM45.0003 27.9173H43.3337V26.2507H45.0003V27.9173Z" fill="#B6B6B6"/>
</g>
</g>
<g id="Group_69">
<g id="Group_70">
<path id="Vector_35" d="M45.8337 31.25H42.5003C42.0401 31.25 41.667 31.6231 41.667 32.0833V35.4167C41.667 35.8769 42.0401 36.25 42.5003 36.25H45.8337C46.2939 36.25 46.667 35.8769 46.667 35.4167V32.0833C46.667 31.6231 46.2939 31.25 45.8337 31.25ZM45.0003 34.5833H43.3337V32.9167H45.0003V34.5833Z" fill="#B6B6B6"/>
</g>
</g>
<g id="Group_71">
<g id="Group_72">
<path id="Vector_36" d="M45.8337 37.918H42.5003C42.0401 37.918 41.667 38.2911 41.667 38.7513V42.0846C41.667 42.5448 42.0401 42.918 42.5003 42.918H45.8337C46.2939 42.918 46.667 42.5448 46.667 42.0846V38.7513C46.667 38.2911 46.2939 37.918 45.8337 37.918ZM45.0003 41.2513H43.3337V39.5846H45.0003V41.2513Z" fill="#B6B6B6"/>
</g>
</g>
</g>
</svg>
