<svg width="14" height="14" viewBox="0 0 14 14" fill="none" xmlns="http://www.w3.org/2000/svg">
<g clip-path="url(#clip0)">
<path d="M8.16602 3.20801H9.33269V12.9788H8.16602V3.20801Z" fill="#8E878A"/>
<path d="M7.00065 8.45867H2.91732C2.59473 8.45867 2.33398 8.19733 2.33398 7.87533C2.33398 7.55333 2.59473 7.29199 2.91732 7.29199H7.00065C7.32323 7.29199 7.58398 7.55333 7.58398 7.87533C7.58398 8.19733 7.32323 8.45867 7.00065 8.45867Z" fill="#8E878A"/>
<path d="M7.00065 5.83366H2.91732C2.59473 5.83366 2.33398 5.57232 2.33398 5.25032C2.33398 4.92832 2.59473 4.66699 2.91732 4.66699H7.00065C7.32323 4.66699 7.58398 4.92832 7.58398 5.25032C7.58398 5.57232 7.32323 5.83366 7.00065 5.83366Z" fill="#8E878A"/>
<path d="M7.00065 11.0837H2.91732C2.59473 11.0837 2.33398 10.8223 2.33398 10.5003C2.33398 10.1783 2.59473 9.91699 2.91732 9.91699H7.00065C7.32323 9.91699 7.58398 10.1783 7.58398 10.5003C7.58398 10.8223 7.32323 11.0837 7.00065 11.0837Z" fill="#8E878A"/>
<path d="M10.791 7C10.3086 7 9.91602 6.60742 9.91602 6.125C9.91602 5.64258 10.3086 5.25 10.791 5.25C11.2734 5.25 11.666 5.64258 11.666 6.125C11.666 6.60742 11.2734 7 10.791 7Z" fill="#8E878A"/>
<path d="M10.791 11.083C10.3086 11.083 9.91602 10.6904 9.91602 10.208C9.91602 9.72559 10.3086 9.33301 10.791 9.33301C11.2734 9.33301 11.666 9.72559 11.666 10.208C11.666 10.6904 11.2734 11.083 10.791 11.083Z" fill="#8E878A"/>
<path d="M12.25 0.583008H1.75C0.785167 0.583008 0 1.36817 0 2.33301V11.6663C0 12.6312 0.785167 13.4163 1.75 13.4163H12.25C13.2148 13.4163 14 12.6312 14 11.6663V2.33301C14 1.36817 13.2148 0.583008 12.25 0.583008ZM12.25 12.2497H1.75C1.42858 12.2497 1.16667 11.9883 1.16667 11.6663V3.49967H12.8333V11.6663C12.8333 11.9883 12.5714 12.2497 12.25 12.2497Z" fill="#8E878A"/>
</g>
<defs>
<clipPath id="clip0">
<rect width="14" height="14" fill="white"/>
</clipPath>
</defs>
</svg>
