<svg width="12" height="14" viewBox="0 0 12 14" fill="none" xmlns="http://www.w3.org/2000/svg">
<path d="M8.80228 1.78365L8.04507 0.286058C7.96094 0.117788 7.77584 0 7.59075 0H4.39363C4.20853 0 4.02344 0.100962 3.9393 0.286058L3.18209 1.78365H0.304688V2.79327H1.02825V13.4952C1.02825 13.7812 1.247 14 1.53305 14H10.4682C10.7542 14 10.973 13.7812 10.973 13.4952V2.79327H11.6965V1.78365H8.80228ZM4.69651 1.00962H7.28786L7.67488 1.78365H4.30949L4.69651 1.00962ZM4.34315 11.0385C4.34315 11.3245 4.1244 11.5433 3.83834 11.5433C3.55228 11.5433 3.33353 11.3245 3.33353 11.0385V5.09856C3.33353 4.8125 3.55228 4.59375 3.83834 4.59375C4.1244 4.59375 4.34315 4.8125 4.34315 5.09856V11.0385ZM6.49699 11.0385C6.49699 11.3245 6.27825 11.5433 5.99219 11.5433C5.70613 11.5433 5.48738 11.3245 5.48738 11.0385V5.09856C5.48738 4.8125 5.70613 4.59375 5.99219 4.59375C6.27825 4.59375 6.49699 4.8125 6.49699 5.09856V11.0385ZM8.65084 11.0385C8.65084 11.3245 8.41527 11.5433 8.14603 11.5433C7.85998 11.5433 7.64123 11.3245 7.64123 11.0385V5.09856C7.64123 4.8125 7.85998 4.59375 8.14603 4.59375C8.43209 4.59375 8.65084 4.8125 8.65084 5.09856V11.0385Z" fill="#8E878A"/>
</svg>
