<svg width="24" height="25" viewBox="0 0 24 25" fill="none" xmlns="http://www.w3.org/2000/svg">
<g clip-path="url(#clip0)">
<path d="M19.86 3.669C20.41 4.629 20.08 5.849 19.12 6.399L9 12.249V20.669C9.26522 20.669 9.51957 20.7744 9.70711 20.9619C9.89464 21.1494 10 21.4038 10 21.669V22.669H2V21.669C2 21.4038 2.10536 21.1494 2.29289 20.9619C2.48043 20.7744 2.73478 20.669 3 20.669V11.669C3 10.8733 3.31607 10.1103 3.87868 9.54768C4.44129 8.98507 5.20435 8.669 6 8.669C6.31 8.669 6.62 8.729 6.92 8.829L17.12 2.939C18.09 2.379 19.31 2.709 19.86 3.669ZM7.5 20.669V14.269C6.57 14.809 5.43 14.809 4.5 14.269V20.669H7.5ZM6 13.169C6.39782 13.169 6.77936 13.011 7.06066 12.7297C7.34196 12.4484 7.5 12.0668 7.5 11.669C7.5 11.2712 7.34196 10.8896 7.06066 10.6083C6.77936 10.327 6.39782 10.169 6 10.169C5.60218 10.169 5.22064 10.327 4.93934 10.6083C4.65804 10.8896 4.5 11.2712 4.5 11.669C4.5 12.0668 4.65804 12.4484 4.93934 12.7297C5.22064 13.011 5.60218 13.169 6 13.169ZM10.4 10.289L11.7 9.539L9.4 8.539L8.1 9.289L10.4 10.289ZM13.86 8.289L15.16 7.539L12.86 6.539L11.56 7.289L13.86 8.289ZM17.33 6.289L18.62 5.539L16.33 4.539L15.03 5.289L17.33 6.289ZM16 20.669V15.669H13L17 11.829L21 15.669H18V20.669H16Z" fill="#252525"/>
<path d="M2.50087 15.6699C2.36826 15.6699 2.24108 15.7226 2.14732 15.8164C2.05355 15.9101 2.00087 16.0373 2.00087 16.1699V17.1699C2.00087 17.3025 2.05355 17.4297 2.14732 17.5235C2.24108 17.6172 2.36826 17.6699 2.50087 17.6699C2.63348 17.6699 2.76065 17.6172 2.85442 17.5235C2.94819 17.4297 3.00087 17.3025 3.00087 17.1699C3.00087 17.0373 3.05355 16.9101 3.14732 16.8164C3.24108 16.7226 3.36826 16.6699 3.50087 16.6699C3.63348 16.6699 3.76065 16.7226 3.85442 16.8164C3.94819 16.9101 4.00087 17.0373 4.00087 17.1699C4.00098 17.4172 3.93995 17.6607 3.82323 17.8787C3.7065 18.0967 3.53768 18.2824 3.33181 18.4194C3.12594 18.5564 2.88939 18.6404 2.64323 18.6638C2.39707 18.6873 2.14892 18.6495 1.92087 18.5539C1.83255 19.3455 1.62732 20.1196 1.31187 20.8509C0.900868 21.7899 0.360869 22.4599 -0.126131 23.0029C-0.474131 23.3919 -0.699131 23.9499 -0.832131 24.6139C-0.965131 25.2739 -0.999131 25.9949 -0.999131 26.6699C-0.999131 26.9729 -1.10913 27.3389 -1.30913 27.6699H2.91587C2.8118 27.3777 2.62 27.1249 2.36671 26.9459C2.11343 26.7669 1.81102 26.6705 1.50087 26.6699H1.00087C0.86826 26.6699 0.741084 26.6172 0.647316 26.5235C0.553547 26.4297 0.500869 26.3025 0.500869 26.1699C0.500869 26.0373 0.553547 25.9101 0.647316 25.8164C0.741084 25.7226 0.86826 25.6699 1.00087 25.6699H1.50087C1.67187 25.6699 1.83887 25.6869 2.00087 25.7199V24.1699C2.00087 24.0373 2.05355 23.9101 2.14732 23.8164C2.24108 23.7226 2.36826 23.6699 2.50087 23.6699C2.63348 23.6699 2.76065 23.7226 2.85442 23.8164C2.94819 23.9101 3.00087 24.0373 3.00087 24.1699V26.1699C3.48087 26.5299 3.82687 27.0599 3.95087 27.6699H5.91587C5.81243 27.3773 5.62079 27.1241 5.36736 26.945C5.11393 26.7659 4.81119 26.6698 4.50087 26.6699C4.36826 26.6699 4.24108 26.6172 4.14732 26.5235C4.05355 26.4297 4.00087 26.3025 4.00087 26.1699V19.1699C4.00087 19.0373 4.05355 18.9101 4.14732 18.8164C4.24108 18.7226 4.36826 18.6699 4.50087 18.6699H5.50087C5.63348 18.6699 5.76065 18.6172 5.85442 18.5235C5.94819 18.4297 6.00087 18.3025 6.00087 18.1699V17.2359C6.00089 17.1495 5.97851 17.0646 5.93592 16.9894C5.89334 16.9142 5.83199 16.8513 5.75787 16.8069L3.98087 15.7409C3.90321 15.6944 3.81438 15.6699 3.72387 15.6699H2.50087ZM-2.99913 27.6699C-2.68513 27.6699 -2.44313 27.5179 -2.26413 27.2949C-2.07413 27.0559 -1.99913 26.7879 -1.99913 26.6699C-1.99913 25.9699 -1.96413 25.1729 -1.81313 24.4169C-1.66213 23.6669 -1.38613 22.9119 -0.872131 22.3369C-0.415132 21.8269 0.0458689 21.2469 0.397869 20.4479C0.746869 19.6509 1.00087 18.6079 1.00087 17.1699V16.1699C1.00087 15.7721 1.1589 15.3906 1.44021 15.1093C1.72151 14.828 2.10304 14.6699 2.50087 14.6699H3.72387C3.99584 14.6699 4.2627 14.7439 4.49587 14.8839L6.27287 15.9499C6.4949 16.0832 6.67865 16.2717 6.80622 16.4971C6.9338 16.7224 7.00085 16.977 7.00087 17.2359V18.1699C7.00087 18.5677 6.84283 18.9493 6.56153 19.2306C6.28022 19.5119 5.89869 19.6699 5.50087 19.6699H5.00087V25.7199C5.56555 25.8352 6.07307 26.142 6.43752 26.5885C6.80198 27.0349 7.00099 27.5936 7.00087 28.1699C7.00087 28.3025 6.94819 28.4297 6.85442 28.5235C6.76065 28.6172 6.63348 28.6699 6.50087 28.6699H-3.24913C-3.83925 28.6701 -4.41377 28.4805 -4.88782 28.129C-5.36186 27.7776 -5.71027 27.2829 -5.88158 26.7182C-6.05289 26.1535 -6.038 25.5487 -5.83911 24.9931C-5.64022 24.4375 -5.26789 23.9606 -4.77713 23.6329C-4.7226 23.595 -4.66107 23.5684 -4.59614 23.5546C-4.5312 23.5407 -4.46416 23.54 -4.39893 23.5523C-4.33369 23.5646 -4.27157 23.5899 -4.21618 23.6265C-4.1608 23.6631 -4.11325 23.7104 -4.07633 23.7655C-4.03941 23.8207 -4.01385 23.8827 -4.00114 23.9479C-3.98843 24.013 -3.98883 24.0801 -4.00231 24.1451C-4.01579 24.2101 -4.04208 24.2718 -4.07965 24.3265C-4.11722 24.3813 -4.16532 24.428 -4.22113 24.4639C-4.53369 24.6723 -4.77089 24.9758 -4.89765 25.3295C-5.02441 25.6831 -5.034 26.0682 -4.925 26.4277C-4.816 26.7872 -4.5942 27.1021 -4.2924 27.3258C-3.99059 27.5495 -3.62481 27.6702 -3.24913 27.6699H-2.99913Z" fill="#252525"/>
</g>
<defs>
<clipPath id="clip0">
<rect width="24" height="24" fill="white" transform="translate(0 0.669922)"/>
</clipPath>
</defs>
</svg>
