<svg width="24" height="13" viewBox="0 0 24 13" fill="none" xmlns="http://www.w3.org/2000/svg">
<path d="M7.4 1.66992H4.6C4.44087 1.66992 4.28826 1.73314 4.17574 1.84566C4.06321 1.95818 4 2.11079 4 2.26992V11.0699C4 11.1487 4.01552 11.2267 4.04567 11.2995C4.07583 11.3723 4.12002 11.4385 4.17574 11.4942C4.23145 11.5499 4.29759 11.5941 4.37039 11.6243C4.44319 11.6544 4.52121 11.6699 4.6 11.6699H7.4C7.47879 11.6699 7.55681 11.6544 7.62961 11.6243C7.7024 11.5941 7.76855 11.5499 7.82426 11.4942C7.87998 11.4385 7.92417 11.3723 7.95433 11.2995C7.98448 11.2267 8 11.1487 8 11.0699V2.26992C8 2.11079 7.93679 1.95818 7.82426 1.84566C7.71174 1.73314 7.55913 1.66992 7.4 1.66992V1.66992Z" stroke="#252525" stroke-width="1.5" stroke-linecap="round" stroke-linejoin="round"/>
<path d="M19.4 1.66992H16.6C16.4409 1.66992 16.2883 1.73314 16.1757 1.84566C16.0632 1.95818 16 2.11079 16 2.26992V11.0699C16 11.1487 16.0155 11.2267 16.0457 11.2995C16.0758 11.3723 16.12 11.4385 16.1757 11.4942C16.2315 11.5499 16.2976 11.5941 16.3704 11.6243C16.4432 11.6544 16.5212 11.6699 16.6 11.6699H19.4C19.4788 11.6699 19.5568 11.6544 19.6296 11.6243C19.7024 11.5941 19.7686 11.5499 19.8243 11.4942C19.88 11.4385 19.9242 11.3723 19.9543 11.2995C19.9845 11.2267 20 11.1487 20 11.0699V2.26992C20 2.11079 19.9368 1.95818 19.8243 1.84566C19.7117 1.73314 19.5591 1.66992 19.4 1.66992V1.66992Z" stroke="#252525" stroke-width="1.5" stroke-linecap="round" stroke-linejoin="round"/>
<path d="M1 9.06992V4.26992C1 4.11079 1.06321 3.95818 1.17574 3.84566C1.28826 3.73314 1.44087 3.66992 1.6 3.66992H3.4C3.55913 3.66992 3.71174 3.73314 3.82426 3.84566C3.93679 3.95818 4 4.11079 4 4.26992V9.06992C4 9.22905 3.93679 9.38166 3.82426 9.49419C3.71174 9.60671 3.55913 9.66992 3.4 9.66992H1.6C1.44087 9.66992 1.28826 9.60671 1.17574 9.49419C1.06321 9.38166 1 9.22905 1 9.06992V9.06992Z" stroke="#252525" stroke-width="1.5" stroke-linecap="round" stroke-linejoin="round"/>
<path d="M23 9.06992V4.26992C23 4.11079 22.9368 3.95818 22.8243 3.84566C22.7117 3.73314 22.5591 3.66992 22.4 3.66992H20.6C20.4409 3.66992 20.2883 3.73314 20.1757 3.84566C20.0632 3.95818 20 4.11079 20 4.26992V9.06992C20 9.22905 20.0632 9.38166 20.1757 9.49419C20.2883 9.60671 20.4409 9.66992 20.6 9.66992H22.4C22.5591 9.66992 22.7117 9.60671 22.8243 9.49419C22.9368 9.38166 23 9.22905 23 9.06992V9.06992Z" stroke="#252525" stroke-width="1.5" stroke-linecap="round" stroke-linejoin="round"/>
<path d="M8 6.66992H16" stroke="#252525" stroke-width="1.5" stroke-linecap="round" stroke-linejoin="round"/>
</svg>
