<svg width="24" height="25" viewBox="0 0 24 25" fill="none" xmlns="http://www.w3.org/2000/svg">
<path d="M9 3.66992C7.761 3.66992 6.75 4.68092 6.75 5.91992V15.3887L7.5 14.8494L8.25 15.3887V5.91992C8.25 5.50742 8.5875 5.16992 9 5.16992H9.75V3.66992H9ZM18 3.66992C16.761 3.66992 15.75 4.68092 15.75 5.91992V6.66992H9V8.16992H15.75V9.66992H9V11.1699H15.75V12.6699H9V14.1699H15.75V15.3887L16.5 14.8494L17.25 15.3887V5.91992C17.25 5.50742 17.5875 5.16992 18 5.16992H18.75V3.66992H18ZM7.5 16.2092L7.03125 16.5842C7.03125 16.5842 6.27825 17.1699 5.27325 17.1699C4.26825 17.1699 3.46875 16.5842 3.46875 16.5842L2.53125 17.7557C2.53125 17.7557 3.6885 18.6699 5.27325 18.6699C6.369 18.6699 7.06575 18.3069 7.5 18.0369C7.9365 18.3039 8.66925 18.6699 9.77325 18.6699C10.869 18.6699 11.5658 18.3069 12 18.0369C12.4365 18.3039 13.1693 18.6699 14.2733 18.6699C15.369 18.6699 16.0658 18.3069 16.5 18.0369C16.9365 18.3039 17.6693 18.6699 18.7733 18.6699C20.3587 18.6699 21.4688 17.7557 21.4688 17.7557L20.5312 16.5842C20.5312 16.5842 19.7782 17.1699 18.7733 17.1699C17.7683 17.1699 16.9688 16.5842 16.9688 16.5842L16.5 16.2092L16.0312 16.5842C16.0312 16.5842 15.2782 17.1699 14.2733 17.1699C13.2683 17.1699 12.4688 16.5842 12.4688 16.5842L12 16.2092L11.5312 16.5842C11.5312 16.5842 10.7782 17.1699 9.77325 17.1699C8.76825 17.1699 7.96875 16.5842 7.96875 16.5842L7.5 16.2092ZM7.5 19.2092L7.03125 19.5842C7.03125 19.5842 6.27825 20.1699 5.27325 20.1699C4.26825 20.1699 3.46875 19.5842 3.46875 19.5842L2.53125 20.7557C2.53125 20.7557 3.6885 21.6699 5.27325 21.6699C6.369 21.6699 7.06575 21.3069 7.5 21.0369C7.9365 21.3039 8.66925 21.6699 9.77325 21.6699C10.869 21.6699 11.5658 21.3069 12 21.0369C12.4365 21.3039 13.1693 21.6699 14.2733 21.6699C15.369 21.6699 16.0658 21.3069 16.5 21.0369C16.9365 21.3039 17.6693 21.6699 18.7733 21.6699C20.3587 21.6699 21.4688 20.7557 21.4688 20.7557L20.5312 19.5842C20.5312 19.5842 19.7782 20.1699 18.7733 20.1699C17.7683 20.1699 16.9688 19.5842 16.9688 19.5842L16.5 19.2092L16.0312 19.5842C16.0312 19.5842 15.2782 20.1699 14.2733 20.1699C13.2683 20.1699 12.4688 19.5842 12.4688 19.5842L12 19.2092L11.5312 19.5842C11.5312 19.5842 10.7782 20.1699 9.77325 20.1699C8.76825 20.1699 7.96875 19.5842 7.96875 19.5842L7.5 19.2092Z" fill="#252525"/>
</svg>
