<svg width="24" height="25" viewBox="0 0 24 25" fill="none" xmlns="http://www.w3.org/2000/svg">
<path d="M3 4.16992H21V21.1699H3V4.16992Z" stroke="#252525" stroke-width="2" stroke-linecap="round" stroke-linejoin="round"/>
<path d="M1.5 4.16992H22.5" stroke="#252525" stroke-width="2" stroke-linecap="round" stroke-linejoin="round"/>
<path d="M1.5 21.1699H22.5" stroke="#252525" stroke-width="2" stroke-linecap="round" stroke-linejoin="round"/>
<path d="M12 4.16992V21.1699" stroke="#252525" stroke-width="2" stroke-linecap="round" stroke-linejoin="round"/>
<path d="M16.5 10.6699V14.6699" stroke="#252525" stroke-width="2" stroke-linecap="round" stroke-linejoin="round"/>
<path d="M15 12.1699L16.5 10.6699L18 12.1699" stroke="#252525" stroke-width="2" stroke-linecap="round" stroke-linejoin="round"/>
<path d="M7.5 14.6699V10.6699" stroke="#252525" stroke-width="2" stroke-linecap="round" stroke-linejoin="round"/>
<path d="M6 13.1699L7.5 14.6699L9 13.1699" stroke="#252525" stroke-width="2" stroke-linecap="round" stroke-linejoin="round"/>
<path d="M3 4.41992H21V21.4199H3V4.41992Z" stroke="#252525" stroke-width="2" stroke-linecap="round" stroke-linejoin="round"/>
<path d="M1.5 4.41992H22.5" stroke="#252525" stroke-width="2" stroke-linecap="round" stroke-linejoin="round"/>
<path d="M1.5 21.4199H22.5" stroke="#252525" stroke-width="2" stroke-linecap="round" stroke-linejoin="round"/>
<path d="M12 4.41992V21.4199" stroke="#252525" stroke-width="2" stroke-linecap="round" stroke-linejoin="round"/>
<path d="M16.5 10.9199V14.9199" stroke="#252525" stroke-width="2" stroke-linecap="round" stroke-linejoin="round"/>
<path d="M15 12.4199L16.5 10.9199L18 12.4199" stroke="#252525" stroke-width="2" stroke-linecap="round" stroke-linejoin="round"/>
<path d="M7.5 14.9199V10.9199" stroke="#252525" stroke-width="2" stroke-linecap="round" stroke-linejoin="round"/>
<path d="M6 13.4199L7.5 14.9199L9 13.4199" stroke="#252525" stroke-width="2" stroke-linecap="round" stroke-linejoin="round"/>
</svg>
