<svg width="20" height="21" viewBox="0 0 20 21" fill="none" xmlns="http://www.w3.org/2000/svg">
<path d="M12.2494 0.669922H15.4344C15.9434 0.669922 16.4414 0.810922 16.8744 1.07792L19.6424 2.78092C19.7516 2.84807 19.8417 2.94205 19.9042 3.05391C19.9667 3.16578 19.9995 3.29179 19.9994 3.41992V4.91992C19.9994 5.51666 19.7624 6.08895 19.3404 6.51091C18.9185 6.93287 18.3462 7.16992 17.7494 7.16992H17.4994V16.2169C18.4964 16.3509 19.1944 16.7719 19.5944 17.4919C19.8174 17.8949 19.9124 18.3319 19.9564 18.7349C19.9994 19.1259 19.9994 19.5349 19.9994 19.8949V19.9199C19.9994 20.1188 19.9204 20.3096 19.7798 20.4503C19.6391 20.5909 19.4483 20.6699 19.2494 20.6699H4.83243C3.99335 20.6707 3.17721 20.396 2.50926 19.8882C1.84131 19.3804 1.35845 18.6674 1.13478 17.8587C0.911115 17.0499 0.958998 16.1902 1.27108 15.4113C1.58317 14.6324 2.14222 13.9774 2.86243 13.5469C3.03309 13.4445 3.23744 13.4142 3.43051 13.4625C3.62358 13.5107 3.78955 13.6338 3.89193 13.8044C3.9943 13.9751 4.02468 14.1794 3.97639 14.3725C3.9281 14.5656 3.80509 14.7315 3.63443 14.8339C3.1959 15.0958 2.85543 15.4944 2.66529 15.9685C2.47515 16.4425 2.44585 16.9659 2.58187 17.4582C2.7179 17.9506 3.01174 18.3847 3.4183 18.6939C3.82485 19.0031 4.32165 19.1703 4.83243 19.1699C5.15143 19.1699 5.34943 19.0869 5.48143 18.9939C5.62043 18.8959 5.72943 18.7559 5.81243 18.5869C5.91723 18.3706 5.98065 18.1366 5.99943 17.8969V17.8619L6.00343 17.7189C6.03334 16.9843 6.12027 16.2531 6.26343 15.5319C6.52343 14.2409 7.06043 12.5639 8.21543 11.3929C9.06343 10.5329 9.52443 9.27392 9.76243 8.02892C9.99943 6.79992 9.99943 5.67792 9.99943 5.16992V2.91992C9.99943 2.32318 10.2365 1.75089 10.6584 1.32893C11.0804 0.906975 11.6527 0.669922 12.2494 0.669922ZM6.74943 17.9199L7.49943 17.9459V17.9519L7.49843 17.9619L7.49643 17.9899C7.48688 18.1174 7.47018 18.2443 7.44643 18.3699C7.40743 18.5829 7.33443 18.8699 7.19643 19.1699H14.4464C14.3564 18.6759 14.1064 18.1639 13.4334 17.8499C13.28 17.783 13.1176 17.7385 12.9514 17.7179C12.7191 17.682 12.4845 17.6637 12.2494 17.6629L11.9664 17.6669L11.8254 17.6689H11.7654C11.6651 17.674 11.5647 17.6588 11.4704 17.6243C11.376 17.5898 11.2895 17.5367 11.2161 17.4681C11.1427 17.3995 11.0837 17.3169 11.0428 17.2251C11.0019 17.1334 10.9799 17.0343 10.978 16.9339C10.9762 16.8334 10.9945 16.7336 11.0319 16.6404C11.0694 16.5471 11.1252 16.4624 11.196 16.3911C11.2668 16.3199 11.3512 16.2636 11.4443 16.2256C11.5373 16.1876 11.637 16.1686 11.7374 16.1699L11.7994 16.1689L11.9424 16.1669L12.2494 16.1629C12.4844 16.1629 12.7444 16.1789 12.9994 16.2099V13.9229C12.9994 13.724 13.0784 13.5332 13.2191 13.3926C13.3598 13.2519 13.5505 13.1729 13.7494 13.1729C13.9483 13.1729 14.1391 13.2519 14.2798 13.3926C14.4204 13.5332 14.4994 13.724 14.4994 13.9229V16.7269C15.5644 17.4089 15.8734 18.4299 15.9624 19.1699H18.4864C18.4819 19.0797 18.4749 18.9897 18.4654 18.8999C18.4324 18.5989 18.3714 18.3799 18.2824 18.2199C18.1524 17.9859 17.8494 17.6699 16.7494 17.6699C16.5505 17.6699 16.3597 17.5909 16.2191 17.4503C16.0784 17.3096 15.9994 17.1188 15.9994 16.9199V6.41992C15.9994 6.22101 16.0784 6.03024 16.2191 5.88959C16.3597 5.74894 16.5505 5.66992 16.7494 5.66992H17.7494C17.9483 5.66992 18.1391 5.5909 18.2798 5.45025C18.4204 5.3096 18.4994 5.11883 18.4994 4.91992V3.83992L16.0884 2.35492C15.8918 2.23389 15.6654 2.16984 15.4344 2.16992H12.2484C12.0497 2.17019 11.8592 2.24932 11.7187 2.38995C11.5783 2.53057 11.4994 2.72118 11.4994 2.91992V5.15192C11.5052 5.35407 11.5772 5.54874 11.7044 5.70592C11.8054 5.81992 11.9644 5.91992 12.2494 5.91992C12.5364 5.91992 12.7024 5.81892 12.8054 5.70092C12.9374 5.53665 13.0062 5.33055 12.9994 5.11992C12.9994 4.92101 13.0784 4.73024 13.2191 4.58959C13.3598 4.44894 13.5505 4.36992 13.7494 4.36992C13.9483 4.36992 14.1391 4.44894 14.2798 4.58959C14.4204 4.73024 14.4994 4.92101 14.4994 5.11992C14.4994 5.67392 14.3224 6.24492 13.9334 6.68892C13.5334 7.14592 12.9494 7.41992 12.2494 7.41992C11.9374 7.41992 11.6504 7.36592 11.3944 7.26592C11.355 7.61613 11.3023 7.96471 11.2364 8.31092C10.9744 9.67692 10.4354 11.2789 9.28343 12.4469C8.43843 13.3029 7.97543 14.6269 7.73443 15.8269C7.60009 16.506 7.52149 17.195 7.49943 17.8869V17.9459L6.74943 17.9199Z" fill="#252525"/>
</svg>
