<svg width="140" height="32" viewBox="0 0 140 32" fill="none" xmlns="http://www.w3.org/2000/svg">
<path d="M6.34094 25.4738C5.22028 25.4738 4.20956 25.2788 3.30878 24.8887C2.41509 24.4985 1.67744 23.9418 1.09583 23.2183C0.521318 22.4877 0.156041 21.6224 0 20.6224L2.65979 20.2181C2.88676 21.1259 3.35133 21.8281 4.05352 22.3246C4.76279 22.8211 5.57846 23.0694 6.50052 23.0694C7.04667 23.0694 7.56089 22.9842 8.0432 22.814C8.52551 22.6438 8.91561 22.3955 9.21351 22.0693C9.5185 21.743 9.67099 21.3423 9.67099 20.8671C9.67099 20.6543 9.63553 20.4592 9.5646 20.2819C9.49367 20.0975 9.38728 19.9344 9.24542 19.7925C9.11066 19.6506 8.93334 19.523 8.71347 19.4095C8.50068 19.2889 8.25244 19.1861 7.96872 19.101L4.01096 17.9306C3.67051 17.8313 3.30168 17.7001 2.90449 17.537C2.51439 17.3668 2.14202 17.1363 1.78738 16.8455C1.43983 16.5476 1.15257 16.1716 0.925606 15.7177C0.70573 15.2567 0.595792 14.6893 0.595792 14.0154C0.595792 13.0295 0.844039 12.2032 1.34053 11.5365C1.84412 10.8627 2.51793 10.3591 3.36197 10.0258C4.2131 9.6924 5.15644 9.52926 6.19199 9.53635C7.24172 9.54345 8.17796 9.72431 9.00072 10.079C9.82348 10.4265 10.5115 10.9336 11.0647 11.6003C11.618 12.2671 12.0081 13.0721 12.235 14.0154L9.47949 14.4942C9.366 13.9551 9.14612 13.4977 8.81986 13.1217C8.50068 12.7387 8.10703 12.4479 7.63891 12.2493C7.17788 12.0507 6.68493 11.9443 6.16007 11.9302C5.64939 11.9231 5.17417 12.0011 4.73442 12.1642C4.30176 12.3203 3.95067 12.5472 3.68115 12.8451C3.41871 13.143 3.2875 13.4906 3.2875 13.8878C3.2875 14.2637 3.40098 14.5722 3.62795 14.8134C3.85492 15.0474 4.13508 15.2354 4.46844 15.3772C4.8089 15.512 5.1529 15.6255 5.50044 15.7177L8.24534 16.4837C8.62126 16.583 9.04328 16.7178 9.5114 16.888C9.97953 17.0582 10.4299 17.2958 10.8626 17.6008C11.2952 17.9058 11.6499 18.3066 11.9265 18.8031C12.2102 19.2995 12.3521 19.9308 12.3521 20.6968C12.3521 21.4912 12.1854 22.1899 11.852 22.7927C11.5257 23.3885 11.0825 23.885 10.5221 24.2822C9.96179 24.6794 9.3199 24.9773 8.59643 25.1759C7.88007 25.3745 7.12823 25.4738 6.34094 25.4738Z" fill="white"/>
<path d="M14.6549 25.1546V9.83425H16.9636L22.2619 20.6862L27.5602 9.83425H29.8689V25.1546H27.4751V15.3347L22.7726 25.1546H21.7512L17.0594 15.3347V25.1546H14.6549Z" fill="white"/>
<path d="M31.7939 25.1546L36.6241 9.83425H40.3797L45.2099 25.1546H42.5714L38.1881 11.4088H38.7626L34.4324 25.1546H31.7939ZM34.4856 21.8352V19.4414H42.5288V21.8352H34.4856Z" fill="white"/>
<path d="M47.1334 25.1546V9.83425H53.4637C53.6127 9.83425 53.8042 9.84134 54.0382 9.85553C54.2723 9.86262 54.4886 9.8839 54.6872 9.91936C55.5738 10.0541 56.3044 10.3485 56.8789 10.8024C57.4605 11.2564 57.8896 11.8309 58.1662 12.526C58.45 13.214 58.5918 13.98 58.5918 14.824C58.5918 16.0723 58.2762 17.1469 57.6449 18.0477C57.0137 18.9414 56.0455 19.4946 54.7404 19.7074L53.6446 19.8031H49.6975V25.1546H47.1334ZM55.932 25.1546L52.9105 18.9201L55.5171 18.3456L58.8365 25.1546H55.932ZM49.6975 17.4093H53.3573C53.4992 17.4093 53.6588 17.4022 53.8361 17.388C54.0134 17.3739 54.1766 17.3455 54.3255 17.3029C54.7511 17.1965 55.0844 17.0086 55.3256 16.7391C55.5738 16.4695 55.7476 16.1645 55.8469 15.8241C55.9533 15.4836 56.0065 15.1503 56.0065 14.824C56.0065 14.4977 55.9533 14.1644 55.8469 13.8239C55.7476 13.4764 55.5738 13.1679 55.3256 12.8983C55.0844 12.6288 54.7511 12.4408 54.3255 12.3345C54.1766 12.2919 54.0134 12.2671 53.8361 12.26C53.6588 12.2458 53.4992 12.2387 53.3573 12.2387H49.6975V17.4093Z" fill="white"/>
<path d="M64.8616 25.1546V12.2387H59.9037V9.83425H72.3835V12.2387H67.4256V25.1546H64.8616Z" fill="white"/>
<path d="M102.901 25.4734C101.369 25.4734 100.056 25.14 98.9642 24.4733C97.8719 23.7995 97.0314 22.8632 96.4427 21.6646C95.8611 20.4659 95.5703 19.0757 95.5703 17.494C95.5703 15.9123 95.8611 14.5221 96.4427 13.3235C97.0314 12.1248 97.8719 11.1921 98.9642 10.5254C100.056 9.85155 101.369 9.51465 102.901 9.51465C104.433 9.51465 105.745 9.85155 106.837 10.5254C107.937 11.1921 108.777 12.1248 109.359 13.3235C109.947 14.5221 110.242 15.9123 110.242 17.494C110.242 19.0757 109.947 20.4659 109.359 21.6646C108.777 22.8632 107.937 23.7995 106.837 24.4733C105.745 25.14 104.433 25.4734 102.901 25.4734ZM102.901 23.0583C103.929 23.0654 104.784 22.8384 105.465 22.3774C106.153 21.9164 106.667 21.2674 107.007 20.4304C107.355 19.5935 107.529 18.6147 107.529 17.494C107.529 16.3734 107.355 15.4016 107.007 14.5789C106.667 13.749 106.153 13.1036 105.465 12.6426C104.784 12.1815 103.929 11.9439 102.901 11.9297C101.872 11.9226 101.018 12.1496 100.337 12.6106C99.6557 13.0717 99.1415 13.7207 98.794 14.5576C98.4535 15.3946 98.2833 16.3734 98.2833 17.494C98.2833 18.6147 98.4535 19.5899 98.794 20.4198C99.1344 21.2425 99.6451 21.8844 100.326 22.3455C101.014 22.8065 101.872 23.0441 102.901 23.0583Z" fill="white"/>
<path d="M118.839 25.4734C117.307 25.4734 115.994 25.14 114.902 24.4733C113.81 23.7995 112.969 22.8632 112.381 21.6646C111.799 20.4659 111.508 19.0757 111.508 17.494C111.508 15.9123 111.799 14.5221 112.381 13.3235C112.969 12.1248 113.81 11.1921 114.902 10.5254C115.994 9.85155 117.307 9.51465 118.839 9.51465C120.371 9.51465 121.683 9.85155 122.775 10.5254C123.875 11.1921 124.715 12.1248 125.297 13.3235C125.885 14.5221 126.18 15.9123 126.18 17.494C126.18 19.0757 125.885 20.4659 125.297 21.6646C124.715 22.8632 123.875 23.7995 122.775 24.4733C121.683 25.14 120.371 25.4734 118.839 25.4734ZM118.839 23.0583C119.867 23.0654 120.722 22.8384 121.403 22.3774C122.091 21.9164 122.605 21.2674 122.945 20.4304C123.293 19.5935 123.467 18.6147 123.467 17.494C123.467 16.3734 123.293 15.4016 122.945 14.5789C122.605 13.749 122.091 13.1036 121.403 12.6426C120.722 12.1815 119.867 11.9439 118.839 11.9297C117.81 11.9226 116.956 12.1496 116.275 12.6106C115.594 13.0717 115.079 13.7207 114.732 14.5576C114.391 15.3946 114.221 16.3734 114.221 17.494C114.221 18.6147 114.391 19.5899 114.732 20.4198C115.072 21.2425 115.583 21.8844 116.264 22.3455C116.952 22.8065 117.81 23.0441 118.839 23.0583Z" fill="white"/>
<path d="M128.297 25.1542V9.83382H134.628C134.777 9.83382 134.968 9.84092 135.202 9.8551C135.436 9.86219 135.653 9.88347 135.851 9.91894C136.738 10.0537 137.468 10.348 138.043 10.802C138.624 11.2559 139.054 11.8304 139.33 12.5255C139.614 13.2135 139.756 13.9795 139.756 14.8236C139.756 16.0719 139.44 17.1465 138.809 18.0472C138.178 18.9409 137.209 19.4942 135.904 19.707L134.808 19.8027H130.861V25.1542H128.297ZM137.096 25.1542L134.074 18.9197L136.681 18.3451L140 25.1542H137.096ZM130.861 17.4089H134.521C134.663 17.4089 134.823 17.4018 135 17.3876C135.177 17.3734 135.34 17.3451 135.489 17.3025C135.915 17.1961 136.248 17.0082 136.489 16.7386C136.738 16.4691 136.912 16.1641 137.011 15.8237C137.117 15.4832 137.17 15.1499 137.17 14.8236C137.17 14.4973 137.117 14.164 137.011 13.8235C136.912 13.476 136.738 13.1674 136.489 12.8979C136.248 12.6284 135.915 12.4404 135.489 12.334C135.34 12.2915 135.177 12.2666 135 12.2596C134.823 12.2454 134.663 12.2383 134.521 12.2383H130.861V17.4089Z" fill="white"/>
<path d="M78.1836 30.0731V2L89.5208 6.15897V25.9141L78.1836 30.0731Z" stroke="white" stroke-width="2.5"/>
<path d="M80.873 17.5537V13.374L83.1529 14.134V16.7938L80.873 17.5537Z" fill="white"/>
</svg>
