<svg width="24" height="25" viewBox="0 0 24 25" fill="none" xmlns="http://www.w3.org/2000/svg">
<path d="M18 4.66992H6C4.89543 4.66992 4 5.56535 4 6.66992V18.6699C4 19.7745 4.89543 20.6699 6 20.6699H18C19.1046 20.6699 20 19.7745 20 18.6699V6.66992C20 5.56535 19.1046 4.66992 18 4.66992Z" stroke="#252525" stroke-width="2" stroke-linecap="round" stroke-linejoin="round"/>
<path d="M9 16.6699V8.66992H13C13.5304 8.66992 14.0391 8.88064 14.4142 9.25571C14.7893 9.63078 15 10.1395 15 10.6699C15 11.2004 14.7893 11.7091 14.4142 12.0841C14.0391 12.4592 13.5304 12.6699 13 12.6699H9" stroke="#252525" stroke-width="2" stroke-linecap="round" stroke-linejoin="round"/>
</svg>
