<svg width="100" height="100" viewBox="0 0 100 100" fill="none" xmlns="http://www.w3.org/2000/svg">
<path d="M65.9201 97.3965C65.3994 97.5723 64.8752 97.743 64.3477 97.8999C64.877 97.7413 65.3994 97.5706 65.9201 97.3965Z" fill="#ECECEC"/>
<path d="M68.5325 96.438C67.9704 96.6621 67.4084 96.8828 66.8359 97.0863C67.4084 96.8811 67.9721 96.6621 68.5325 96.438Z" fill="#ECECEC"/>
<path d="M50 100C77.6142 100 100 77.6142 100 50C100 22.3858 77.6142 0 50 0C22.3858 0 0 22.3858 0 50C0 77.6142 22.3858 100 50 100Z" fill="#ECECEC"/>
<path d="M63.339 98.186C62.8287 98.3274 62.3149 98.4619 61.7959 98.5878C62.3149 98.4619 62.8287 98.3274 63.339 98.186Z" fill="#ECECEC"/>
<path d="M46.3773 99.8554C45.767 99.8123 45.1584 99.7657 44.5566 99.7002C45.1601 99.7657 45.7687 99.8123 46.3773 99.8554Z" fill="#ECECEC"/>
<path d="M38.2013 98.5863C37.6841 98.4604 37.1703 98.326 36.6582 98.1846C37.1703 98.3277 37.6841 98.4622 38.2013 98.5863Z" fill="#ECECEC"/>
<path d="M43.5224 99.5692C42.9759 99.4985 42.431 99.4244 41.8896 99.3364C42.4293 99.4244 42.9759 99.4968 43.5224 99.5692Z" fill="#ECECEC"/>
<path d="M50.0002 99.9999C49.0795 99.9999 48.1674 99.9706 47.2588 99.9224C48.1674 99.9706 49.0795 99.9999 50.0002 99.9999Z" fill="#ECECEC"/>
<path d="M40.8226 99.1449C40.2984 99.0483 39.776 98.9448 39.2588 98.8311C39.776 98.9448 40.2984 99.0483 40.8226 99.1449Z" fill="#ECECEC"/>
<path d="M30.7351 96.1485C29.9575 95.8226 29.1885 95.4812 28.4316 95.1191C29.1903 95.4812 29.9592 95.8243 30.7351 96.1485Z" fill="#ECECEC"/>
<path d="M33.1624 97.0863C32.5917 96.8811 32.0279 96.6621 31.4658 96.438C32.0279 96.6621 32.5917 96.8811 33.1624 97.0863Z" fill="#ECECEC"/>
<path d="M52.7414 99.9224C51.8328 99.9706 50.9207 99.9999 50 99.9999C50.9207 99.9999 51.8328 99.9706 52.7414 99.9224Z" fill="#ECECEC"/>
<path d="M55.4428 99.7002C54.8393 99.7657 54.2307 99.8123 53.6221 99.8554C54.2307 99.8123 54.8393 99.7657 55.4428 99.7002Z" fill="#ECECEC"/>
<path d="M60.7435 98.8311C60.2245 98.9448 59.7038 99.0483 59.1797 99.1449C59.7021 99.0483 60.2245 98.9448 60.7435 98.8311Z" fill="#ECECEC"/>
<path d="M58.1123 99.3345C57.5709 99.4224 57.026 99.4965 56.4795 99.5672C57.0243 99.4965 57.5709 99.4241 58.1123 99.3345Z" fill="#ECECEC"/>
<path d="M71.5587 95.1226C70.8053 95.4829 70.0398 95.8243 69.2656 96.1484C70.0398 95.8243 70.8053 95.4846 71.5587 95.1226Z" fill="#ECECEC"/>
<path d="M35.6515 97.8999C35.1222 97.7413 34.5998 97.5706 34.0791 97.3965C34.5998 97.5706 35.1222 97.7413 35.6515 97.8999Z" fill="#ECECEC"/>
<path d="M69.2652 96.1484C69.0238 96.2502 68.7773 96.3398 68.5342 96.4364C68.7756 96.3398 69.0221 96.2502 69.2652 96.1484Z" fill="#ECECEC"/>
<path d="M71.6276 95.0913C71.6051 95.1017 71.581 95.112 71.5586 95.1224C71.581 95.112 71.6051 95.1034 71.6276 95.0913Z" fill="#ECECEC"/>
<path d="M39.2573 98.831C38.9039 98.7534 38.5521 98.6724 38.2021 98.5879C38.5521 98.6724 38.9039 98.7534 39.2573 98.831Z" fill="#ECECEC"/>
<path d="M41.8876 99.3342C41.5307 99.2756 41.1755 99.21 40.8203 99.1445C41.1772 99.21 41.5307 99.2773 41.8876 99.3342Z" fill="#ECECEC"/>
<path d="M47.258 99.9222C46.9632 99.9067 46.6701 99.8757 46.377 99.855C46.6718 99.8757 46.9632 99.9067 47.258 99.9222Z" fill="#ECECEC"/>
<path d="M44.5569 99.6999C44.2104 99.662 43.8673 99.6137 43.5225 99.5688C43.8673 99.6137 44.2104 99.662 44.5569 99.6999Z" fill="#ECECEC"/>
<path d="M28.4326 95.1191C28.4137 95.1105 28.393 95.1019 28.374 95.0933C28.393 95.1019 28.4137 95.1105 28.4326 95.1191Z" fill="#ECECEC"/>
<path d="M53.6222 99.855C53.3274 99.8757 53.036 99.9067 52.7412 99.9222C53.036 99.9067 53.3274 99.8757 53.6222 99.855Z" fill="#ECECEC"/>
<path d="M64.3475 97.8999C64.013 97.9999 63.6768 98.093 63.3389 98.1861C63.6768 98.093 64.013 97.9999 64.3475 97.8999Z" fill="#ECECEC"/>
<path d="M66.8384 97.0864C66.5349 97.195 66.228 97.2933 65.9229 97.3968C66.228 97.2933 66.5349 97.195 66.8384 97.0864Z" fill="#ECECEC"/>
<path d="M31.4674 96.4378C31.2243 96.3413 30.9777 96.2499 30.7363 96.1499C30.9777 96.2499 31.2243 96.3396 31.4674 96.4378Z" fill="#ECECEC"/>
<path d="M34.0796 97.3968C33.7744 97.2933 33.4658 97.195 33.1641 97.0864C33.4658 97.195 33.7727 97.2933 34.0796 97.3968Z" fill="#ECECEC"/>
<path d="M56.4778 99.5688C56.133 99.6137 55.7899 99.6637 55.4434 99.6999C55.7899 99.662 56.133 99.6137 56.4778 99.5688Z" fill="#ECECEC"/>
<path d="M61.7983 98.5864C61.4483 98.6709 61.0966 98.7519 60.7432 98.8295C61.0966 98.7537 61.4483 98.6726 61.7983 98.5864Z" fill="#ECECEC"/>
<path d="M59.1776 99.1445C58.8224 99.21 58.469 99.2773 58.1104 99.3342C58.469 99.2773 58.8224 99.21 59.1776 99.1445Z" fill="#ECECEC"/>
<path d="M36.661 98.1861C36.3248 98.093 35.9868 97.9999 35.6523 97.8999C35.9868 97.9999 36.323 98.093 36.661 98.1861Z" fill="#ECECEC"/>
<path d="M61.4453 53.4378C67.016 49.7292 70.6902 43.3998 70.6902 36.2067C70.6902 24.7809 61.4264 15.5171 50.0005 15.5171C38.5747 15.5171 29.3109 24.7809 29.3109 36.2067C29.3109 43.3998 32.985 49.7292 38.5557 53.4378C38.5557 53.4378 38.5574 53.4395 38.5591 53.4395C38.5574 53.4395 38.5574 53.4378 38.5574 53.4378C25.2229 57.4567 14.8402 68.2792 11.4971 81.8947L11.4988 81.8964C12.0436 82.5533 12.6091 83.1947 13.1867 83.824C13.3264 83.9774 13.4729 84.124 13.616 84.274C14.0609 84.7464 14.5109 85.2119 14.9729 85.6671C15.1643 85.855 15.3591 86.0361 15.554 86.2205C15.9816 86.6274 16.4143 87.0292 16.8557 87.4205C17.0747 87.6136 17.2971 87.805 17.5178 87.9947C17.9505 88.3654 18.3884 88.7292 18.835 89.0843C19.0695 89.2723 19.3057 89.4567 19.5419 89.6412C19.9936 89.9895 20.4522 90.3274 20.916 90.6585C21.1557 90.8292 21.3919 91.0033 21.635 91.1705C22.1247 91.5085 22.6229 91.8326 23.1247 92.1533C23.3505 92.2964 23.5712 92.4447 23.7988 92.5861C24.3781 92.943 24.9678 93.2843 25.5626 93.6188C25.7195 93.7067 25.8729 93.8016 26.0316 93.8878C26.8005 94.3085 27.5816 94.7119 28.3747 95.0929C28.3936 95.1016 28.4143 95.1102 28.4333 95.1188C29.1902 95.4809 29.9591 95.824 30.7367 96.1481C30.9781 96.2498 31.2247 96.3395 31.4678 96.4361C32.0298 96.6602 32.5919 96.8809 33.1643 97.0843C33.4678 97.1929 33.7747 97.2912 34.0798 97.3947C34.6005 97.5705 35.1247 97.7412 35.6522 97.8981C35.9867 97.9981 36.3229 98.0912 36.6609 98.1843C37.1712 98.3257 37.685 98.4602 38.204 98.5861C38.554 98.6705 38.9057 98.7516 39.2591 98.8292C39.7781 98.9429 40.2988 99.0464 40.8229 99.1429C41.1781 99.2085 41.5315 99.2757 41.8902 99.3326C42.4315 99.4205 42.9764 99.4947 43.5229 99.5654C43.8678 99.6102 44.2109 99.6602 44.5574 99.6964C45.1609 99.7619 45.7695 99.8085 46.3781 99.8516C46.6729 99.8723 46.9643 99.9033 47.2591 99.9188C48.1678 99.9705 49.0798 99.9998 50.0005 99.9998C50.9212 99.9998 51.8333 99.9705 52.7419 99.9223C53.0367 99.9067 53.3298 99.8757 53.6229 99.855C54.2333 99.8119 54.8419 99.7654 55.4436 99.6998C55.7902 99.6619 56.1333 99.6136 56.4781 99.5688C57.0247 99.4981 57.5695 99.424 58.1109 99.3361C58.4678 99.2774 58.8229 99.2119 59.1781 99.1464C59.7022 99.0498 60.2247 98.9464 60.7419 98.8326C61.0953 98.755 61.4471 98.674 61.7971 98.5895C62.3143 98.4636 62.8281 98.3292 63.3402 98.1878C63.6764 98.0947 64.0143 98.0016 64.3488 97.9016C64.8781 97.743 65.4005 97.5723 65.9212 97.3981C66.2264 97.2947 66.535 97.1964 66.8367 97.0878C67.4074 96.8826 67.9712 96.6636 68.5333 96.4395C68.7764 96.343 69.0229 96.2516 69.2643 96.1516C70.0385 95.8274 70.804 95.4878 71.5574 95.1257C71.5798 95.1154 71.604 95.105 71.6264 95.0947C72.4195 94.7136 73.2005 94.3102 73.9695 93.8895C74.1281 93.8033 74.2816 93.7085 74.4384 93.6205C75.0333 93.2861 75.6229 92.9447 76.2022 92.5878C76.4298 92.4481 76.6522 92.2998 76.8764 92.155C77.3781 91.8343 77.8764 91.5085 78.366 91.1723C78.6074 91.005 78.8453 90.8326 79.085 90.6602C79.5488 90.3274 80.0074 89.9895 80.4591 89.643C80.6971 89.4602 80.9316 89.274 81.166 89.0861C81.6109 88.7309 82.0505 88.3671 82.4833 87.9964C82.7057 87.8067 82.9281 87.6154 83.1453 87.4223C83.5867 87.0309 84.0195 86.6292 84.4471 86.2223C84.6402 86.0378 84.8367 85.855 85.0281 85.6688C85.4902 85.2136 85.9419 84.7481 86.385 84.2757C86.5264 84.124 86.6729 83.9774 86.8143 83.8257C87.3919 83.1964 87.9574 82.555 88.5022 81.8981L88.504 81.8964C85.1626 68.2792 74.7798 57.4567 61.4453 53.4378Z" fill="#D8447A"/>
</svg>
