<svg width="15" height="15" viewBox="0 0 15 15" fill="none" xmlns="http://www.w3.org/2000/svg">
<g clip-path="url(#clip0)">
<path d="M10.7189 5.22266L6.42578 8.94044H15.0009L10.7189 5.22266Z" fill="white"/>
<path d="M14.184 9.41504H7.12695V14.3443L9.26442 14.3639V11.8653C9.26442 11.7341 9.35931 11.6204 9.49065 11.6204H11.9746C12.108 11.6235 12.2148 11.7319 12.2162 11.8653V14.3913L14.184 14.4097V9.41504Z" fill="white"/>
<path d="M11.74 14.3873V12.0957H9.73828V14.3686L11.74 14.3873Z" fill="white"/>
<path d="M2.33951 2.96895H2.34256C2.86421 2.96895 3.29255 2.55942 3.29255 2.03778V1.56424C3.29255 1.03968 2.86725 0.614258 2.34256 0.614258C1.81787 0.614258 1.39258 1.03968 1.39258 1.56424V2.03778C1.39364 2.28707 1.49436 2.52563 1.67222 2.70057C1.84994 2.87538 2.09022 2.97199 2.33951 2.96895Z" fill="white"/>
<path d="M0.00136271 5.09273V8.00432L0.94512 9.28418C0.974012 9.32102 0.991506 9.36555 0.995349 9.41234L1.2074 13.9513C1.21509 14.2045 1.42396 14.4051 1.67736 14.4023H3.09279C3.34527 14.4053 3.55387 14.2061 3.56248 13.9538L3.7744 9.41486C3.77639 9.36847 3.7919 9.32367 3.81907 9.28617L4.75129 8.00419V5.09273C4.75156 5.08465 4.75235 5.0767 4.75355 5.06875C4.78164 4.79083 4.69033 4.51397 4.50213 4.30748C4.31407 4.10087 4.04689 3.98411 3.76751 3.98636H3.54473L2.52105 4.71104C2.51509 4.71528 2.50873 4.71502 2.50223 4.71886L2.5017 4.72006C2.48752 4.72893 2.47255 4.73636 2.45677 4.74232C2.45677 4.74232 2.45558 4.74643 2.45545 4.74643C2.43093 4.75716 2.40482 4.76392 2.37818 4.76671H2.37633V4.75094C2.35194 4.75173 2.32782 4.74775 2.30503 4.73914C2.30489 4.73914 2.30754 4.73914 2.30741 4.73914C2.28939 4.73331 2.27216 4.72536 2.25612 4.71542V4.71595L2.25586 4.71701C2.25029 4.71369 2.24486 4.71224 2.23969 4.70826L1.25524 3.98636H0.996542C0.71584 3.98477 0.447596 4.1018 0.257944 4.30868C0.0696164 4.51463 -0.022493 4.79083 0.004676 5.06861C0.00547118 5.0767 0.00136271 5.08478 0.00136271 5.09273Z" fill="white"/>
</g>
<defs>
<clipPath id="clip0">
<rect width="15" height="15" fill="white"/>
</clipPath>
</defs>
</svg>
