<svg width="27" height="21" viewBox="0 0 27 21" fill="none" xmlns="http://www.w3.org/2000/svg">
<path d="M25.748 3.29944C25.2189 2.74507 24.4881 2.41749 23.6565 2.41749H19.4736V2.3671C19.4736 1.73713 19.2216 1.13237 18.7932 0.729189C18.3648 0.300814 17.7853 0.0488281 17.1553 0.0488281H9.59575C8.94059 0.0488281 8.36102 0.300814 7.93264 0.729189C7.50427 1.15756 7.25228 1.73713 7.25228 2.3671V2.41749H3.09452C2.26297 2.41749 1.53221 2.74507 1.00304 3.29944C0.473873 3.82861 0.121094 4.58457 0.121094 5.39092V17.9398C0.121094 18.7714 0.448675 19.5021 1.00304 20.0313C1.53221 20.5605 2.28817 20.9132 3.09452 20.9132H23.6565C24.4881 20.9132 25.2189 20.5857 25.748 20.0313C26.2772 19.5021 26.63 18.7462 26.63 17.9398V5.39092C26.63 4.55937 26.3024 3.82861 25.748 3.29944ZM25.3196 17.9398H25.2944C25.2944 18.3934 25.1181 18.7966 24.8157 19.0989C24.5133 19.4013 24.1101 19.5777 23.6565 19.5777H3.09452C2.64095 19.5777 2.23777 19.4013 1.93539 19.0989C1.63301 18.7966 1.45662 18.3934 1.45662 17.9398V5.39092C1.45662 4.93735 1.63301 4.53417 1.93539 4.23179C2.23777 3.92941 2.64095 3.75302 3.09452 3.75302H7.95784C8.33582 3.75302 8.6382 3.45063 8.6382 3.07266V2.3419C8.6382 2.06471 8.739 1.81273 8.91539 1.63634C9.09178 1.45995 9.34376 1.35915 9.62095 1.35915H17.1553C17.4325 1.35915 17.6845 1.45995 17.8609 1.63634C18.0373 1.81273 18.1381 2.06471 18.1381 2.3419V3.07266C18.1381 3.45063 18.4404 3.75302 18.8184 3.75302H23.6817C24.1353 3.75302 24.5385 3.92941 24.8409 4.23179C25.1433 4.53417 25.3196 4.93735 25.3196 5.39092V17.9398Z" fill="#252525"/>
<path d="M13.3746 5.4668C11.6611 5.4668 10.0988 6.17236 8.99008 7.28109C7.85614 8.41503 7.17578 9.95214 7.17578 11.6656C7.17578 13.3791 7.88134 14.9414 8.99008 16.0502C10.124 17.1841 11.6611 17.8645 13.3746 17.8645C15.0881 17.8645 16.6504 17.1589 17.7592 16.0502C18.8931 14.9162 19.5735 13.3791 19.5735 11.6656C19.5735 9.95214 18.8679 8.38983 17.7592 7.28109C16.6504 6.17236 15.0881 5.4668 13.3746 5.4668ZM16.8016 15.1178C15.9197 15.9746 14.7102 16.529 13.3746 16.529C12.0391 16.529 10.8296 15.9746 9.94762 15.1178C9.06567 14.2359 8.5365 13.0264 8.5365 11.6908C8.5365 10.3553 9.09087 9.14578 9.94762 8.26383C10.8296 7.38189 12.0391 6.85272 13.3746 6.85272C14.7102 6.85272 15.9197 7.40708 16.8016 8.26383C17.6836 9.14578 18.2128 10.3553 18.2128 11.6908C18.238 13.0264 17.6836 14.2359 16.8016 15.1178Z" fill="#252525"/>
<path d="M22.3461 7.91086C23.028 7.91086 23.5808 7.35806 23.5808 6.67613C23.5808 5.99421 23.028 5.44141 22.3461 5.44141C21.6641 5.44141 21.1113 5.99421 21.1113 6.67613C21.1113 7.35806 21.6641 7.91086 22.3461 7.91086Z" fill="#252525"/>
</svg>
