<svg id="SvgjsSvg1036" width="288" height="288" xmlns="http://www.w3.org/2000/svg" version="1.1" xmlns:xlink="http://www.w3.org/1999/xlink" xmlns:svgjs="http://svgjs.com/svgjs"><defs id="SvgjsDefs1037"></defs><g id="SvgjsG1038" transform="matrix(0.9167,0,0,0.9167,11.995200000000011,11.995200000000011)"><svg xmlns="http://www.w3.org/2000/svg" width="288" height="288" fill="none" viewBox="0 0 14 14"><path fill="#c51762" d="M7 0C3.134 0 0 3.134 0 7C0 10.866 3.134 14 7 14C10.866 14 14 10.866 14 7C14 3.134 10.866 0 7 0ZM4.24753 2.82747C5.06425 2.28822 6.02131 2.0005 7 2C7.98009 1.99897 8.93859 2.28775 9.755 2.83L2.83 9.755C1.30847 7.45056 1.94309 4.34903 4.24753 2.82747ZM9.75247 11.1725C8.93575 11.7118 7.97872 11.9995 7 12C6.01991 12.001 5.06141 11.7122 4.245 11.17L11.17 4.245C12.6915 6.54941 12.0569 9.65097 9.75247 11.1725Z" class="color8E878A svgShape"></path></svg></g></svg>