<svg width="14" height="14" viewBox="0 0 14 14" fill="none" xmlns="http://www.w3.org/2000/svg">
<path d="M8.56595 1.97019L2.00391 8.53223L5.47114 11.9995L12.0332 5.43743L8.56595 1.97019Z" fill="#8E878A"/>
<path d="M13.7901 2.79006L11.2294 0.193025C10.9751 -0.0612306 10.5756 -0.0612306 10.3395 0.174864C10.3395 0.174864 10.3395 0.174864 10.3213 0.193025L9.19531 1.31901L12.6641 4.80594L13.7901 3.67995C14.0443 3.4257 14.0443 3.02615 13.7901 2.79006Z" fill="#8E878A"/>
<path d="M1.49545 9.29199L0.0607284 13.1421C-0.0663992 13.469 0.0970506 13.8323 0.42395 13.9594C0.569239 14.0139 0.732689 14.0139 0.877977 13.9594L4.72813 12.5065L1.49545 9.29199Z" fill="#8E878A"/>
</svg>
