<svg width="10" height="13" viewBox="0 0 10 13" fill="none" xmlns="http://www.w3.org/2000/svg">
<path d="M1.44522 12.7495H8.97008C9.28176 12.7495 9.53445 12.4968 9.53445 12.1851V5.78902C9.53445 5.47734 9.28176 5.22465 8.97008 5.22465H8.40572V3.53156C8.40572 1.76815 6.97107 0.333496 5.20765 0.333496C3.44424 0.333496 2.00959 1.76815 2.00959 3.53156V5.22465H1.44522C1.13354 5.22465 0.880859 5.47734 0.880859 5.78902V12.1851C0.880859 12.4968 1.13354 12.7495 1.44522 12.7495ZM6.80597 8.58661L5.20694 10.1856C5.09674 10.2958 4.9523 10.351 4.80789 10.351C4.66349 10.351 4.51902 10.2958 4.40885 10.1856L3.60933 9.38613C3.38893 9.16572 3.38893 8.80844 3.60933 8.588C3.8297 8.3676 4.18706 8.3676 4.40746 8.588L4.80793 8.98844L6.00792 7.78849C6.22829 7.56808 6.58564 7.56808 6.80605 7.78849C7.02641 8.00893 7.02641 8.36621 6.80597 8.58661ZM3.13832 3.53156C3.13832 2.39053 4.06662 1.46222 5.20765 1.46222C6.34868 1.46222 7.27699 2.39053 7.27699 3.53156V5.22465H3.13832V3.53156Z" fill="#252525"/>
</svg>
