<svg width="20" height="20" viewBox="0 0 20 20" fill="none" xmlns="http://www.w3.org/2000/svg">
<path d="M19.4001 12.1916L17.5618 10.7541C17.6188 10.2524 17.6188 9.74585 17.5618 9.24413L19.4018 7.80582C19.7466 7.52813 19.8387 7.04117 19.6193 6.65664L17.7068 3.35084C17.4865 2.96389 17.0173 2.7949 16.6009 2.95252L14.4343 3.82419C14.0271 3.52881 13.591 3.27556 13.1326 3.06838L12.8001 0.766707C12.7401 0.324833 12.361 -0.00360296 11.9151 2.98427e-05H8.0818C7.63957 -0.0026264 7.26352 0.322138 7.2018 0.760027L6.86848 3.06834C6.41149 3.27752 5.97607 3.53095 5.56849 3.82501L3.39596 2.95166C2.98385 2.7892 2.51514 2.95615 2.29846 3.34248L0.384293 6.65414C0.158942 7.0393 0.251715 7.5316 0.601792 7.80832L2.4401 9.24581C2.38257 9.74749 2.38257 10.2541 2.4401 10.7558L0.600112 12.1933C0.254723 12.4706 0.162145 12.9578 0.381793 13.3425L2.29346 16.6491C2.51346 17.0364 2.98288 17.2055 3.39928 17.0475L5.56595 16.1758C5.97345 16.4713 6.40985 16.7248 6.86844 16.9325L7.20176 19.2325C7.26044 19.6732 7.63719 20.0017 8.08176 20H11.9151C12.3581 20.0035 12.7354 19.6786 12.7976 19.24L13.1309 16.9316C13.5878 16.7224 14.0232 16.4689 14.4309 16.175L16.6059 17.0491C17.018 17.2112 17.4864 17.0444 17.7034 16.6583L19.6234 13.3333C19.8383 12.9494 19.7438 12.4663 19.4001 12.1916ZM9.99843 14.1666C7.69727 14.1666 5.83177 12.3012 5.83177 9.99995C5.83177 7.69875 7.69723 5.83329 9.99843 5.83329C12.2996 5.83329 14.1651 7.69875 14.1651 9.99995C14.1623 12.3 12.2985 14.1639 9.99843 14.1666Z" fill="#252525"/>
</svg>
