<svg width="11" height="6" viewBox="0 0 11 6" fill="none" xmlns="http://www.w3.org/2000/svg">
<path d="M5.13984 2.03699L1.29569 5.77491C1.1901 5.87783 1.04892 5.93445 0.898382 5.93445C0.74776 5.93445 0.606662 5.87783 0.500902 5.77491L0.164238 5.44737C0.0583102 5.34461 -2.31177e-07 5.20724 -2.24597e-07 5.06086C-2.18016e-07 4.91447 0.0583102 4.77727 0.164238 4.67443L4.74102 0.223837C4.84712 0.120589 4.98889 0.0640494 5.13959 0.0644556C5.29096 0.0640494 5.43256 0.120507 5.53874 0.223837L10.1111 4.67028C10.217 4.77313 10.2753 4.91033 10.2753 5.0568C10.2753 5.20318 10.217 5.34039 10.1111 5.44331L9.77444 5.77077C9.55531 5.98384 9.1986 5.98384 8.97956 5.77077L5.13984 2.03699Z" fill="#BE1452"/>
</svg>
