<svg width="15" height="15" viewBox="0 0 15 15" fill="none" xmlns="http://www.w3.org/2000/svg">
<g clip-path="url(#clip0)">
<path d="M7.49941 7.17363C8.76006 7.17363 9.78202 6.15167 9.78202 4.89102C9.78202 3.63036 8.76006 2.6084 7.49941 2.6084C6.23876 2.6084 5.2168 3.63036 5.2168 4.89102C5.2168 6.15167 6.23876 7.17363 7.49941 7.17363Z" fill="white"/>
<path d="M12.066 8.47864C12.9664 8.47864 13.6964 7.74867 13.6964 6.8482C13.6964 5.94774 12.9664 5.21777 12.066 5.21777C11.1655 5.21777 10.4355 5.94774 10.4355 6.8482C10.4355 7.74867 11.1655 8.47864 12.066 8.47864Z" fill="white"/>
<path d="M2.98199 8.47864C3.88245 8.47864 4.61242 7.74867 4.61242 6.8482C4.61242 5.94774 3.88245 5.21777 2.98199 5.21777C2.08153 5.21777 1.35156 5.94774 1.35156 6.8482C1.35156 7.74867 2.08153 8.47864 2.98199 8.47864Z" fill="white"/>
<path d="M7.50086 7.82617C5.16346 7.82617 3.26172 9.7279 3.26172 12.0653C3.26172 12.2453 3.40782 12.3914 3.58782 12.3914H11.4139C11.5939 12.3914 11.74 12.2453 11.74 12.0653C11.74 9.7279 9.83826 7.82617 7.50086 7.82617Z" fill="white"/>
<path d="M3.54326 9.20129C3.34369 9.15889 3.14086 9.13086 2.93478 9.13086C1.31674 9.13086 0 10.4476 0 12.0656C0 12.2456 0.146097 12.3917 0.326097 12.3917H2.66869C2.63216 12.2894 2.60868 12.1804 2.60868 12.0656C2.60868 10.9954 2.95826 10.0074 3.54326 9.20129Z" fill="white"/>
<path d="M12.0655 9.13086C11.8594 9.13086 11.6566 9.15889 11.457 9.20129C12.042 10.0074 12.3916 10.9954 12.3916 12.0656C12.3916 12.1804 12.3681 12.2893 12.3316 12.3917H14.6742C14.8542 12.3917 15.0003 12.2456 15.0003 12.0656C15.0003 10.4476 13.6836 9.13086 12.0655 9.13086Z" fill="white"/>
</g>
<defs>
<clipPath id="clip0">
<rect width="15" height="15" fill="white"/>
</clipPath>
</defs>
</svg>
