<svg width="46" height="46" viewBox="0 0 46 46" fill="none" xmlns="http://www.w3.org/2000/svg">
<circle cx="23" cy="23" r="23" fill="#BE1452"/>
<path fill-rule="evenodd" clip-rule="evenodd" d="M21.8327 13.6663C21.1883 13.6663 20.666 14.1887 20.666 14.833V18.333H26.5761C27.6104 18.3329 28.5015 18.3329 29.2151 18.4288C29.9799 18.5317 30.713 18.7635 31.3075 19.3581C31.9022 19.9527 32.134 20.6858 32.2369 21.4506C32.3328 22.1642 32.3328 23.0553 32.3327 24.0896V28.9098C32.3328 29.944 32.3328 30.8351 32.2369 31.5488C32.134 32.3135 31.9022 33.0467 31.3075 33.6412C30.713 34.2358 29.9799 34.4677 29.2151 34.5706C28.5015 34.6665 27.6104 34.6665 26.5761 34.6663H19.4225C18.3883 34.6665 17.4972 34.6665 16.7836 34.5706C16.0188 34.4677 15.2858 34.2358 14.6912 33.6412C14.0965 33.0467 13.8647 32.3135 13.7619 31.5488C13.6659 30.8351 13.666 29.944 13.666 28.9098V24.0896C13.666 23.0553 13.6659 22.1642 13.7619 21.4506C13.8647 20.6858 14.0965 19.9527 14.6912 19.3581C15.2858 18.7635 16.0188 18.5317 16.7836 18.4288C17.2326 18.3685 17.7518 18.3461 18.3327 18.3378V14.833C18.3327 12.9 19.8997 11.333 21.8327 11.333H24.2389C26.1316 11.333 27.666 12.8674 27.666 14.7601V14.833C27.666 15.4773 27.1437 15.9997 26.4994 15.9997C25.855 15.9997 25.3327 15.4773 25.3327 14.833V14.7601C25.3327 14.156 24.843 13.6663 24.2389 13.6663H21.8327ZM22.9994 24.1663C21.7107 24.1663 20.666 25.211 20.666 26.4997C20.666 27.7884 21.7107 28.833 22.9994 28.833C24.2881 28.833 25.3327 27.7884 25.3327 26.4997C25.3327 25.211 24.2881 24.1663 22.9994 24.1663Z" fill="white"/>
</svg>
