<svg width="11" height="7" viewBox="0 0 11 7" fill="none" xmlns="http://www.w3.org/2000/svg">
<path d="M5.13688 2.44668L1.39574 6.18766C1.29298 6.29067 1.15558 6.34733 1.00907 6.34733C0.862489 6.34733 0.725172 6.29067 0.622245 6.18766L0.294603 5.85985C0.191513 5.75701 0.134765 5.61953 0.134765 5.47302C0.134765 5.32652 0.191513 5.1892 0.294603 5.08628L4.74875 0.632049C4.852 0.528715 4.98997 0.47213 5.13664 0.472537C5.28395 0.47213 5.42176 0.528634 5.52509 0.632049L9.97493 5.08213C10.078 5.18506 10.1348 5.32237 10.1348 5.46896C10.1348 5.61546 10.078 5.75278 9.97493 5.85579L9.64729 6.18351C9.43403 6.39676 9.08688 6.39676 8.87371 6.18351L5.13688 2.44668Z" fill="#252525"/>
</svg>
