<svg width="19" height="30" viewBox="0 0 19 30" fill="none" xmlns="http://www.w3.org/2000/svg">
<path d="M1.84375 0.1875C1.55367 0.1875 1.27547 0.302734 1.07035 0.507852C0.865235 0.71297 0.750001 0.991169 0.750001 1.28125V12.2188C0.749269 14.3505 1.52677 16.4092 2.93651 18.0082C4.34624 19.6073 6.29123 20.6367 8.40625 20.9031V28.625H5.125C4.83492 28.625 4.55672 28.7402 4.3516 28.9454C4.14648 29.1505 4.03125 29.4287 4.03125 29.7188C4.03125 30.0088 4.14648 30.287 4.3516 30.4921C4.55672 30.6973 4.83492 30.8125 5.125 30.8125H13.875C14.1651 30.8125 14.4433 30.6973 14.6484 30.4921C14.8535 30.287 14.9688 30.0088 14.9688 29.7188C14.9688 29.4287 14.8535 29.1505 14.6484 28.9454C14.4433 28.7402 14.1651 28.625 13.875 28.625H10.5938V20.9688V20.9031C12.7088 20.6367 14.6538 19.6073 16.0635 18.0082C17.4732 16.4092 18.2507 14.3505 18.25 12.2188V1.28125C18.25 0.991169 18.1348 0.71297 17.9296 0.507852C17.7245 0.302734 17.4463 0.1875 17.1562 0.1875H1.84375ZM2.9375 6.75V2.375H16.0625V6.75H2.9375ZM15.4784 11.7878C15.3384 13.0505 14.8022 14.2364 13.9467 15.1756C13.0912 16.1147 11.9604 16.759 10.7162 17.0159C10.432 17.0745 10.1361 17.0178 9.89361 16.8582C9.65116 16.6986 9.48203 16.4493 9.42344 16.165C9.36484 15.8807 9.42157 15.5848 9.58116 15.3424C9.74074 15.0999 9.9901 14.9308 10.2744 14.8722C11.0657 14.7086 11.7849 14.2989 12.3291 13.7016C12.8733 13.1044 13.2146 12.3502 13.3041 11.5472C13.3199 11.4044 13.3636 11.2662 13.4329 11.1403C13.5021 11.0144 13.5954 10.9035 13.7076 10.8137C13.8197 10.7239 13.9484 10.6571 14.0864 10.617C14.2243 10.577 14.3688 10.5645 14.5116 10.5803C14.6543 10.5961 14.7926 10.6399 14.9185 10.7091C15.0443 10.7783 15.1553 10.8717 15.2451 10.9838C15.3349 11.0959 15.4017 11.2247 15.4417 11.3626C15.4818 11.5006 15.4942 11.645 15.4784 11.7878Z" fill="black"/>
</svg>
