<svg width="10" height="14" viewBox="0 0 10 14" fill="none" xmlns="http://www.w3.org/2000/svg">
<path d="M0.536521 1.00864C-0.0695995 3.54056 0.313055 6.17608 1.61347 8.42847C2.91389 10.6809 5.00496 12.33 7.50845 13.0735C7.73414 13.1345 7.97069 13.1022 8.17564 12.9839C8.38216 12.8646 8.53119 12.6687 8.58168 12.4539L9.1059 10.4991C9.22585 10.0481 8.92064 9.53873 8.50217 9.42571C7.91966 9.24537 7.37633 8.98959 6.89008 8.66886C6.59363 8.4673 6.20548 8.55861 5.94162 8.71096L4.57216 9.50161C4.0094 8.93997 3.55664 8.19313 3.17275 7.52822C2.76598 6.82367 2.3567 6.07746 2.16188 5.3305L3.5329 4.53893C3.87917 4.33902 4.07281 4.04088 4.05177 3.74429C4.01532 3.13676 4.06403 2.53707 4.19823 1.9638C4.25037 1.74456 4.21614 1.50705 4.10413 1.31306C3.98581 1.1081 3.79708 0.961884 3.57169 0.901469L1.61721 0.377764C1.39183 0.317374 1.15495 0.34912 0.949483 0.467745C0.744507 0.586087 0.598287 0.774808 0.536521 1.00864Z" fill="#949494"/>
</svg>
