<?xml version="1.0" encoding="UTF-8"?>
<svg xmlns="http://www.w3.org/2000/svg" xmlns:xlink="http://www.w3.org/1999/xlink" viewBox="0 0 250 250" width="250px" height="250px">
<g id="surface61161919">
<path style=" stroke:none;fill-rule:nonzero;fill:rgb(20.392157%,59.607846%,85.882354%);fill-opacity:1;" d="M 151.992188 10 L 35 10 L 35 240 L 215 240 L 215 73.007812 Z M 150 75 L 150 21.992188 L 203.007812 75 Z M 150 75 "/>
<path style=" stroke:none;fill-rule:nonzero;fill:rgb(100%,100%,100%);fill-opacity:1;" d="M 73.632812 149.796875 L 59.898438 149.796875 L 59.898438 100.203125 L 73.894531 100.203125 C 78.21875 100.203125 82.035156 101.152344 85.347656 103.050781 C 88.664062 104.960938 91.222656 107.679688 93.023438 111.207031 C 94.835938 114.722656 95.75 118.765625 95.769531 123.328125 L 95.769531 126.496094 C 95.769531 131.175781 94.871094 135.277344 93.066406 138.792969 C 91.253906 142.3125 88.675781 145.015625 85.335938 146.902344 C 81.980469 148.785156 78.082031 149.75 73.632812 149.796875 Z M 74.070312 105.582031 L 66.4375 105.582031 L 66.4375 144.449219 L 73.328125 144.449219 C 78.367188 144.449219 82.285156 142.882812 85.085938 139.753906 C 87.898438 136.613281 89.300781 132.152344 89.300781 126.367188 L 89.300781 123.460938 C 89.300781 117.828125 87.980469 113.453125 85.335938 110.335938 C 82.6875 107.214844 78.933594 105.628906 74.070312 105.582031 Z M 143.808594 123.460938 L 143.808594 126.597656 C 143.808594 131.453125 142.988281 135.691406 141.351562 139.316406 C 139.714844 142.941406 137.398438 145.707031 134.402344 147.617188 C 131.410156 149.523438 127.910156 150.480469 123.910156 150.480469 C 120.003906 150.480469 116.539062 149.519531 113.515625 147.601562 C 110.496094 145.683594 108.148438 142.945312 106.484375 139.390625 C 104.816406 135.832031 103.957031 131.714844 103.910156 127.035156 L 103.910156 123.460938 C 103.910156 118.691406 104.738281 114.480469 106.394531 110.828125 C 108.050781 107.164062 110.398438 104.367188 113.429688 102.425781 C 116.464844 100.488281 119.933594 99.519531 123.835938 99.519531 C 127.808594 99.519531 131.3125 100.480469 134.347656 102.398438 C 137.378906 104.316406 139.714844 107.097656 141.351562 110.742188 C 142.988281 114.382812 143.808594 118.625 143.808594 123.460938 Z M 137.296875 127.078125 L 137.296875 123.402344 C 137.296875 117.519531 136.113281 113.003906 133.75 109.855469 C 131.394531 106.707031 128.089844 105.128906 123.835938 105.128906 C 119.710938 105.128906 116.457031 106.707031 114.085938 109.855469 C 111.710938 113.003906 110.488281 117.371094 110.421875 122.949219 L 110.421875 126.597656 C 110.421875 132.296875 111.617188 136.777344 114.011719 140.042969 C 116.40625 143.300781 119.703125 144.925781 123.910156 144.925781 C 128.132812 144.925781 131.40625 143.386719 133.722656 140.304688 C 136.035156 137.234375 137.230469 132.824219 137.296875 127.078125 Z M 183.53125 134.054688 L 190.101562 134.054688 C 189.492188 139.308594 187.554688 143.359375 184.289062 146.207031 C 181.03125 149.054688 176.699219 150.480469 171.292969 150.480469 C 165.429688 150.480469 160.738281 148.375 157.210938 144.171875 C 153.683594 139.976562 151.917969 134.355469 151.917969 127.3125 L 151.917969 122.542969 C 151.917969 117.929688 152.738281 113.875 154.375 110.378906 C 156.023438 106.878906 158.359375 104.195312 161.378906 102.324219 C 164.402344 100.457031 167.902344 99.519531 171.875 99.519531 C 177.144531 99.519531 181.371094 100.988281 184.550781 103.925781 C 187.726562 106.871094 189.578125 110.941406 190.101562 116.132812 L 183.53125 116.132812 C 182.960938 112.191406 181.726562 109.332031 179.824219 107.558594 C 177.9375 105.785156 175.285156 104.898438 171.875 104.898438 C 167.699219 104.898438 164.421875 106.445312 162.050781 109.535156 C 159.675781 112.617188 158.488281 117.011719 158.488281 122.71875 L 158.488281 127.515625 C 158.488281 132.902344 159.613281 137.183594 161.859375 140.363281 C 164.109375 143.542969 167.253906 145.128906 171.292969 145.128906 C 174.925781 145.128906 177.71875 144.308594 179.664062 142.660156 C 181.605469 141.011719 182.890625 138.144531 183.53125 134.054688 Z M 183.53125 134.054688 "/>
</g>
</svg>
