<svg width="11" height="6" viewBox="0 0 11 6" fill="none" xmlns="http://www.w3.org/2000/svg">
<path d="M5.13984 3.96203L1.29569 0.224115C1.1901 0.121191 1.04892 0.0645704 0.898382 0.0645704C0.74776 0.0645704 0.606662 0.121191 0.500902 0.224115L0.164238 0.551651C0.0583102 0.654413 -2.31177e-07 0.791781 -2.24597e-07 0.938165C-2.18016e-07 1.08455 0.0583102 1.22175 0.164238 1.3246L4.74102 5.77519C4.84712 5.87843 4.98889 5.93497 5.13959 5.93457C5.29096 5.93497 5.43256 5.87852 5.53874 5.77519L10.1111 1.32874C10.217 1.2259 10.2753 1.08869 10.2753 0.942227C10.2753 0.795842 10.217 0.658637 10.1111 0.555713L9.77444 0.228258C9.55531 0.0151796 9.1986 0.0151797 8.97956 0.228258L5.13984 3.96203Z" fill="#BE1452"/>
</svg>
