<svg width="10" height="6" viewBox="0 0 10 6" fill="none" xmlns="http://www.w3.org/2000/svg">
<path d="M5.00211 4.02585L1.26098 0.284876C1.15821 0.181868 1.02081 0.125201 0.874309 0.125201C0.727723 0.125201 0.590406 0.181868 0.487479 0.284876L0.159837 0.61268C0.0567477 0.715526 -2.24982e-07 0.853006 -2.18578e-07 0.99951C-2.12174e-07 1.14601 0.0567478 1.28333 0.159837 1.38626L4.61398 5.84049C4.71724 5.94382 4.8552 6.0004 5.00187 6C5.14919 6.0004 5.28699 5.9439 5.39033 5.84049L9.84016 1.3904C9.94325 1.28748 10 1.15016 10 1.00357C10 0.857071 9.94325 0.719754 9.84016 0.616745L9.51252 0.289022C9.29927 0.0757699 8.95211 0.0757699 8.73894 0.289022L5.00211 4.02585Z" fill="#252525"/>
</svg>
