<svg width="27" height="35" viewBox="0 0 27 35" fill="none" xmlns="http://www.w3.org/2000/svg">
<path d="M13.5 0C6.26156 0 0.375 5.88656 0.375 13.125C0.375 22.2228 12.2225 34.1753 12.7256 34.6806C12.94 34.8928 13.22 35 13.5 35C13.78 35 14.06 34.8928 14.2744 34.6806C14.7775 34.1753 26.625 22.2228 26.625 13.125C26.625 5.88656 20.7384 0 13.5 0ZM20.8434 11.2459L17.9494 14.2122L18.6341 18.4166C18.7019 18.83 18.5269 19.2456 18.1856 19.4862C17.9997 19.6197 17.7787 19.6875 17.5556 19.6875C17.3741 19.6875 17.1925 19.6416 17.0263 19.5519L13.5 17.6006L9.97375 19.5519C9.61063 19.7531 9.15781 19.7291 8.81437 19.4884C8.47312 19.2478 8.29812 18.8322 8.36375 18.4188L9.04844 14.2144L6.15438 11.2459C5.86781 10.9528 5.76937 10.5241 5.90063 10.1347C6.03188 9.74531 6.36656 9.46312 6.77125 9.40187L10.7284 8.79594L12.5091 5.005C12.87 4.235 14.1278 4.235 14.4887 5.005L16.2694 8.79594L20.2266 9.40187C20.6334 9.46312 20.9703 9.7475 21.0994 10.1347C21.2284 10.5241 21.13 10.9528 20.8434 11.2459Z" fill="#D8447A"/>
</svg>
