<svg width="15" height="15" viewBox="0 0 15 15" fill="none" xmlns="http://www.w3.org/2000/svg">
<path d="M14.9357 3.25008L13.716 0.201958C13.6686 0.0833152 13.5537 0.00585938 13.4263 0.00585938H1.56103C1.43302 0.00585938 1.31874 0.0839299 1.27126 0.201958L0.0223094 3.3244C-0.0164185 3.42056 -0.00391906 3.52987 0.0535435 3.6154C0.111621 3.70097 0.208426 3.75278 0.312081 3.75278H0.624334V14.6813C0.624334 14.8536 0.764229 14.9935 0.936587 14.9935H5.62024V10.9344C5.62024 10.762 5.76013 10.6221 5.93249 10.6221H9.05493C9.22729 10.6221 9.36718 10.762 9.36718 10.9344V14.9935H14.0508C14.2232 14.9935 14.3631 14.8536 14.3631 14.6813V3.75216H14.6878C14.8602 3.75216 15.0001 3.61227 15.0001 3.43991C15 3.36872 14.9756 3.30253 14.9357 3.25008ZM5.62021 7.81134C5.62021 7.98369 5.48031 8.12359 5.30795 8.12359H2.81002C2.63766 8.12359 2.49776 7.98369 2.49776 7.81134V5.3134C2.49776 5.14104 2.63766 5.00115 2.81002 5.00115H5.30795C5.48031 5.00115 5.62021 5.14104 5.62021 5.3134V7.81134ZM12.4896 7.81134C12.4896 7.98369 12.3497 8.12359 12.1773 8.12359H9.67938C9.50702 8.12359 9.36712 7.98369 9.36712 7.81134V5.3134C9.36712 5.14104 9.50702 5.00115 9.67938 5.00115H12.1773C12.3497 5.00115 12.4896 5.14104 12.4896 5.3134V7.81134Z" fill="white"/>
</svg>
