<svg width="136" height="32" viewBox="0 0 136 32" fill="none" xmlns="http://www.w3.org/2000/svg">
<path d="M6.1597 24.8044C5.07107 24.8044 4.08924 24.6149 3.2142 24.236C2.34606 23.857 1.62949 23.3162 1.06451 22.6134C0.506418 21.9037 0.151581 21.0631 0 20.0916L2.58377 19.6989C2.80425 20.5808 3.25554 21.2629 3.93766 21.7452C4.62666 22.2275 5.41902 22.4687 6.31472 22.4687C6.84525 22.4687 7.34478 22.386 7.81331 22.2206C8.28183 22.0553 8.66078 21.8141 8.95016 21.4972C9.24644 21.1802 9.39457 20.791 9.39457 20.3293C9.39457 20.1226 9.36012 19.9331 9.29122 19.7609C9.22232 19.5818 9.11897 19.4233 8.98117 19.2855C8.85026 19.1477 8.67801 19.0237 8.46441 18.9134C8.25771 18.7963 8.01656 18.6964 7.74096 18.6137L3.89632 17.4768C3.5656 17.3804 3.20731 17.2529 2.82147 17.0944C2.44252 16.9291 2.08079 16.7052 1.73629 16.4227C1.39868 16.1333 1.11963 15.7681 0.89915 15.3272C0.685559 14.8793 0.578763 14.3281 0.578763 13.6735C0.578763 12.7158 0.819915 11.9131 1.30222 11.2655C1.79141 10.6109 2.44596 10.1217 3.26588 9.79789C4.09268 9.47406 5.00906 9.31559 6.01501 9.32248C7.03473 9.32937 7.94422 9.50507 8.74346 9.84957C9.54271 10.1872 10.211 10.6798 10.7485 11.3275C11.2859 11.9751 11.6648 12.7572 11.8853 13.6735L9.20854 14.1386C9.0983 13.615 8.88471 13.1706 8.56777 12.8054C8.25771 12.4333 7.87532 12.1508 7.42057 11.9579C6.97272 11.765 6.49386 11.6616 5.984 11.6479C5.48792 11.641 5.02628 11.7168 4.5991 11.8752C4.17881 12.0268 3.83775 12.2473 3.57593 12.5367C3.321 12.8261 3.19353 13.1637 3.19353 13.5495C3.19353 13.9147 3.30377 14.2144 3.52426 14.4487C3.74474 14.676 4.01689 14.8586 4.34073 14.9964C4.67145 15.1273 5.00561 15.2376 5.34323 15.3272L8.00967 16.0713C8.37484 16.1677 8.7848 16.2986 9.23954 16.464C9.69429 16.6294 10.1318 16.8602 10.5521 17.1565C10.9724 17.4527 11.3169 17.842 11.5856 18.3243C11.8612 18.8066 11.999 19.4198 11.999 20.164C11.999 20.9356 11.8371 21.6143 11.5133 22.2C11.1963 22.7787 10.7657 23.261 10.2214 23.6469C9.67706 24.0327 9.05351 24.3221 8.35073 24.515C7.65483 24.7079 6.92449 24.8044 6.1597 24.8044Z" fill="#C62E65"/>
<path d="M14.2361 24.4943V9.61186H16.4788L21.6256 20.1536L26.7725 9.61186H29.0152V24.4943H26.6898V14.9551L22.1217 24.4943H21.1295L16.5718 14.9551V24.4943H14.2361Z" fill="#C62E65"/>
<path d="M30.8852 24.4943L35.5773 9.61186H39.2256L43.9177 24.4943H41.3546L37.0966 11.1415H37.6547L33.4483 24.4943H30.8852ZM33.5 21.2698V18.9444H41.3133V21.2698H33.5Z" fill="#C62E65"/>
<path d="M45.7863 24.4943V9.61186H51.9356C52.0803 9.61186 52.2663 9.61875 52.4937 9.63253C52.7211 9.63942 52.9312 9.66009 53.1241 9.69454C53.9854 9.82545 54.6951 10.1114 55.2532 10.5524C55.8182 10.9933 56.235 11.5514 56.5037 12.2266C56.7793 12.895 56.9171 13.6391 56.9171 14.459C56.9171 15.6717 56.6105 16.7155 55.9973 17.5905C55.3841 18.4587 54.4436 18.9961 53.1758 19.2028L52.1113 19.2958H48.277V24.4943H45.7863ZM54.3334 24.4943L51.3982 18.438L53.9303 17.8799L57.1548 24.4943H54.3334ZM48.277 16.9704H51.8323C51.9701 16.9704 52.1251 16.9635 52.2973 16.9498C52.4696 16.936 52.6281 16.9084 52.7728 16.8671C53.1862 16.7637 53.51 16.5811 53.7443 16.3193C53.9854 16.0575 54.1542 15.7612 54.2507 15.4305C54.354 15.0998 54.4057 14.7759 54.4057 14.459C54.4057 14.1421 54.354 13.8182 54.2507 13.4875C54.1542 13.1499 53.9854 12.8502 53.7443 12.5884C53.51 12.3265 53.1862 12.144 52.7728 12.0406C52.6281 11.9993 52.4696 11.9751 52.2973 11.9683C52.1251 11.9545 51.9701 11.9476 51.8323 11.9476H48.277V16.9704Z" fill="#C62E65"/>
<path d="M63.0077 24.4943V11.9476H58.1916V9.61186H70.3146V11.9476H65.4984V24.4943H63.0077Z" fill="#C62E65"/>
<path d="M99.9607 24.8043C98.4725 24.8043 97.1978 24.4805 96.1367 23.8329C95.0757 23.1783 94.2592 22.2688 93.6873 21.1044C93.1223 19.94 92.8398 18.5895 92.8398 17.0531C92.8398 15.5166 93.1223 14.1661 93.6873 13.0017C94.2592 11.8373 95.0757 10.9313 96.1367 10.2836C97.1978 9.62903 98.4725 9.30176 99.9607 9.30176C101.449 9.30176 102.724 9.62903 103.785 10.2836C104.853 10.9313 105.669 11.8373 106.234 13.0017C106.806 14.1661 107.092 15.5166 107.092 17.0531C107.092 18.5895 106.806 19.94 106.234 21.1044C105.669 22.2688 104.853 23.1783 103.785 23.8329C102.724 24.4805 101.449 24.8043 99.9607 24.8043ZM99.9607 22.4583C100.96 22.4652 101.79 22.2447 102.451 21.7968C103.12 21.349 103.619 20.7186 103.95 19.9055C104.288 19.0925 104.456 18.1417 104.456 17.0531C104.456 15.9644 104.288 15.0205 103.95 14.2212C103.619 13.4151 103.12 12.7881 102.451 12.3403C101.79 11.8924 100.96 11.6616 99.9607 11.6478C98.9616 11.6409 98.1314 11.8614 97.47 12.3093C96.8085 12.7571 96.309 13.3876 95.9714 14.2006C95.6406 15.0136 95.4753 15.9644 95.4753 17.0531C95.4753 18.1417 95.6406 19.0891 95.9714 19.8952C96.3021 20.6944 96.7982 21.318 97.4596 21.7658C98.1279 22.2137 98.9616 22.4445 99.9607 22.4583Z" fill="#C62E65"/>
<path d="M115.443 24.8043C113.955 24.8043 112.68 24.4805 111.619 23.8329C110.558 23.1783 109.742 22.2688 109.17 21.1044C108.605 19.94 108.322 18.5895 108.322 17.0531C108.322 15.5166 108.605 14.1661 109.17 13.0017C109.742 11.8373 110.558 10.9313 111.619 10.2836C112.68 9.62903 113.955 9.30176 115.443 9.30176C116.931 9.30176 118.206 9.62903 119.267 10.2836C120.335 10.9313 121.152 11.8373 121.716 13.0017C122.288 14.1661 122.574 15.5166 122.574 17.0531C122.574 18.5895 122.288 19.94 121.716 21.1044C121.152 22.2688 120.335 23.1783 119.267 23.8329C118.206 24.4805 116.931 24.8043 115.443 24.8043ZM115.443 22.4583C116.442 22.4652 117.272 22.2447 117.934 21.7968C118.602 21.349 119.102 20.7186 119.432 19.9055C119.77 19.0925 119.939 18.1417 119.939 17.0531C119.939 15.9644 119.77 15.0205 119.432 14.2212C119.102 13.4151 118.602 12.7881 117.934 12.3403C117.272 11.8924 116.442 11.6616 115.443 11.6478C114.444 11.6409 113.614 11.8614 112.952 12.3093C112.291 12.7571 111.791 13.3876 111.454 14.2006C111.123 15.0136 110.958 15.9644 110.958 17.0531C110.958 18.1417 111.123 19.0891 111.454 19.8952C111.784 20.6944 112.281 21.318 112.942 21.7658C113.61 22.2137 114.444 22.4445 115.443 22.4583Z" fill="#C62E65"/>
<path d="M124.631 24.4943V9.61181H130.781C130.926 9.61181 131.112 9.6187 131.339 9.63248C131.566 9.63937 131.776 9.66004 131.969 9.69449C132.831 9.8254 133.54 10.1113 134.098 10.5523C134.663 10.9933 135.08 11.5514 135.349 12.2266C135.625 12.8949 135.762 13.639 135.762 14.459C135.762 15.6716 135.456 16.7154 134.842 17.5905C134.229 18.4586 133.289 18.996 132.021 19.2027L130.957 19.2958H127.122V24.4943H124.631ZM133.179 24.4943L130.243 18.438L132.775 17.8799L136 24.4943H133.179ZM127.122 16.9704H130.677C130.815 16.9704 130.97 16.9635 131.143 16.9497C131.315 16.9359 131.473 16.9084 131.618 16.867C132.031 16.7637 132.355 16.5811 132.589 16.3193C132.831 16.0574 132.999 15.7612 133.096 15.4304C133.199 15.0997 133.251 14.7759 133.251 14.459C133.251 14.142 133.199 13.8182 133.096 13.4875C132.999 13.1498 132.831 12.8501 132.589 12.5883C132.355 12.3265 132.031 12.1439 131.618 12.0405C131.473 11.9992 131.315 11.9751 131.143 11.9682C130.97 11.9544 130.815 11.9475 130.677 11.9475H127.122V16.9704Z" fill="#C62E65"/>
<path d="M75.9492 29.2707V2L86.9624 6.0401V25.2306L75.9492 29.2707Z" stroke="#C62E65" stroke-width="2.5"/>
<path d="M78.5625 17.112V13.0518L80.7772 13.79V16.3737L78.5625 17.112Z" fill="#C62E65"/>
</svg>
