<svg width="11" height="15" viewBox="0 0 11 15" fill="none" xmlns="http://www.w3.org/2000/svg">
<path d="M10.6098 1.89465L5.6099 0.0196871C5.53927 -0.00656236 5.46117 -0.00656236 5.38992 0.0196871L0.390015 1.89465C0.248778 1.94776 0.165635 2.09465 0.192529 2.24339C0.219423 2.39213 0.348766 2.50026 0.500022 2.50026H1.4375V14.6875C1.4375 14.86 1.57751 15 1.75001 15H3.93747V10.9376C3.93747 10.7651 4.07747 10.6251 4.24997 10.6251H6.74991C6.9224 10.6251 7.06241 10.7651 7.06241 10.9376V15H9.24987C9.42237 15 9.56238 14.86 9.56238 14.6875V2.49964H10.4999C10.6511 2.49964 10.7805 2.39151 10.8073 2.24277C10.8342 2.09465 10.751 1.94776 10.6098 1.89465ZM7.06238 9.68698C7.06238 9.85948 6.92237 9.99948 6.74988 9.99948H4.24994C4.07745 9.99948 3.93744 9.85948 3.93744 9.68698V7.18704C3.93744 7.01455 4.07745 6.87454 4.24994 6.87454H6.74988C6.92237 6.87454 7.06238 7.01455 7.06238 7.18704V9.68698ZM7.06238 5.93706C7.06238 6.10956 6.92237 6.24956 6.74988 6.24956H4.24994C4.07745 6.24956 3.93744 6.10956 3.93744 5.93706V3.43712C3.93744 3.26463 4.07745 3.12462 4.24994 3.12462H6.74988C6.92237 3.12462 7.06238 3.26463 7.06238 3.43712V5.93706Z" fill="white"/>
</svg>
