<svg xmlns="http://www.w3.org/2000/svg" style="display: none;">

    <symbol id="icon-location" viewBox="0 0 16 16">
      <path d="M8.00065 14.0005C7.15861 13.2823 6.37811 12.4949 5.66732 11.6465C4.60065 10.3725 3.33398 8.47519 3.33398 6.66719C3.33304 4.77889 4.47015 3.07612 6.2147 2.35345C7.95924 1.63079 9.96736 2.03068 11.302 3.36652C12.1796 4.24026 12.6713 5.42878 12.6673 6.66719C12.6673 8.47519 11.4007 10.3725 10.334 11.6465C9.62319 12.4949 8.8427 13.2823 8.00065 14.0005ZM8.00065 4.66719C7.28612 4.66719 6.62587 5.04839 6.2686 5.66719C5.91134 6.28599 5.91134 7.04839 6.2686 7.66719C6.62587 8.28599 7.28612 8.66719 8.00065 8.66719C9.10522 8.66719 10.0007 7.77176 10.0007 6.66719C10.0007 5.56262 9.10522 4.66719 8.00065 4.66719Z"/>
    </symbol>

    <symbol id="icon-arrow-down" viewBox="0 0 512 512">
      <path d="m508 109c-4-4-11-3-15 1l-237 269-237-269c-4-4-11-5-15-1-5 4-5 11-1 15l245 278c2 2 5 3 8 3 3 0 6-1 8-3l245-278c4-4 4-11-1-15z"/>
    </symbol>

    <symbol id="icon-arrow-circle" viewBox="0 0 30 30">
      <circle r="14.5" transform="matrix(-1 0 0 1 15 15)" fill="#F6F6F6" stroke="#DEDEDE"/>
      <path d="M15.0036 16.3192L10.1935 11.5094C10.0614 11.377 9.88474 11.3041 9.69638 11.3041C9.50791 11.3041 9.33136 11.377 9.19903 11.5094L8.77777 11.9309C8.64523 12.0631 8.57227 12.2399 8.57227 12.4282C8.57227 12.6166 8.64523 12.7931 8.77777 12.9255L14.5045 18.6523C14.6373 18.7852 14.8147 18.8579 15.0032 18.8574C15.1926 18.8579 15.3698 18.7853 15.5027 18.6523L21.2239 12.9308C21.3564 12.7985 21.4294 12.6219 21.4294 12.4334C21.4294 12.2451 21.3564 12.0685 21.2239 11.9361L20.8026 11.5147C20.5285 11.2406 20.0821 11.2406 19.808 11.5147L15.0036 16.3192Z" />
    </symbol>

</svg>

