<svg width="14" height="14" viewBox="0 0 14 14" fill="none" xmlns="http://www.w3.org/2000/svg">
<path d="M0.640244 12.2395H6.00105C6.82252 13.2787 8.09384 13.9468 9.51829 13.9468C11.9895 13.9468 14 11.9363 14 9.46511C14 6.99389 11.9895 4.9834 9.51829 4.9834C8.04624 4.9834 6.73771 5.69689 5.92021 6.79614C5.58886 6.72665 5.25034 6.69072 4.90854 6.69072C2.20197 6.69072 0 8.89268 0 11.5993C0 11.9528 0.286659 12.2395 0.640244 12.2395ZM9.51829 6.26389C11.2834 6.26389 12.7195 7.69995 12.7195 9.46511C12.7195 11.2303 11.2834 12.6663 9.51829 12.6663C7.75314 12.6663 6.31707 11.2303 6.31707 9.46511C6.31707 7.69995 7.75314 6.26389 9.51829 6.26389Z" fill="#8E878A"/>
<path d="M4.90887 0.0537109C3.43195 0.0537109 2.23047 1.25524 2.23047 2.73211C2.23047 4.20898 3.43195 5.41042 4.90887 5.41042C6.38575 5.41042 7.58723 4.20898 7.58723 2.73211C7.58723 1.25524 6.38575 0.0537109 4.90887 0.0537109Z" fill="#8E878A"/>
<path d="M8.2379 10.1059H8.87814V10.7461C8.87814 11.0997 9.1648 11.3864 9.51839 11.3864C9.87197 11.3864 10.1586 11.0997 10.1586 10.7461V10.1059H10.7989C11.1525 10.1059 11.4391 9.81924 11.4391 9.46565C11.4391 9.11207 11.1525 8.82541 10.7989 8.82541H10.1586V8.18517C10.1586 7.83158 9.87197 7.54492 9.51839 7.54492C9.1648 7.54492 8.87814 7.83158 8.87814 8.18517V8.82541H8.2379C7.88431 8.82541 7.59766 9.11207 7.59766 9.46565C7.59766 9.81924 7.88431 10.1059 8.2379 10.1059Z" fill="#8E878A"/>
</svg>
