<svg width="20" height="21" viewBox="0 0 20 21" fill="none" xmlns="http://www.w3.org/2000/svg">
<g clip-path="url(#clip0_22258_321)">
<path d="M7.80078 18.4144C7.80078 19.6213 8.79573 20.6041 10.023 20.6041C11.2478 20.6041 12.2453 19.6237 12.2453 18.4144H7.80078Z" fill="#252525"/>
<path d="M18.5404 14.3932L16.6956 11.7288V7.42429C16.6956 3.84828 13.7942 0.957753 10.1785 0.899198C10.1528 0.898787 10.127 0.89853 10.1012 0.898376C10.0754 0.898838 10.0497 0.899403 10.0239 0.900121C6.40861 1.00327 3.43012 3.92988 3.3383 7.50809L3.2308 11.6993L1.4485 14.3684C0.773661 15.379 1.22361 16.1983 2.45173 16.1983H17.565C18.7939 16.1983 19.2297 15.3889 18.5404 14.3932ZM4.34877 14.0087L5.43621 12.3801L5.55975 7.56347C5.62189 5.14236 7.66408 3.14433 10.1151 3.08824C12.5333 3.1138 14.4733 5.03705 14.4733 7.42434V12.4046L15.584 14.0087H4.34877V14.0087Z" fill="#252525"/>
<path d="M10.0234 0.898328C10.0492 0.898172 10.075 0.898172 10.1007 0.898276C10.1265 0.897808 10.1522 0.897495 10.178 0.897339L10.0234 0.898328Z" fill="#252525"/>
</g>
<defs>
<clipPath id="clip0_22258_321">
<rect width="20" height="19.7068" fill="white" transform="translate(0 0.897339)"/>
</clipPath>
</defs>
</svg>
