<svg width="25" height="21" viewBox="0 0 25 21" fill="none" xmlns="http://www.w3.org/2000/svg">
<path d="M24.1683 3.72575C23.6692 3.20293 22.98 2.894 22.1958 2.894H18.251V2.84647C18.251 2.25236 18.0133 1.68202 17.6093 1.30179C17.2053 0.897799 16.6587 0.660156 16.0646 0.660156H8.93536C8.31749 0.660156 7.77091 0.897799 7.36692 1.30179C6.96293 1.70578 6.72529 2.25236 6.72529 2.84647V2.894H2.80418C2.01996 2.894 1.3308 3.20293 0.831749 3.72575C0.3327 4.2248 0 4.93773 0 5.69818V17.5328C0 18.317 0.308935 19.0062 0.831749 19.5052C1.3308 20.0043 2.04373 20.337 2.80418 20.337H22.1958C22.98 20.337 23.6692 20.028 24.1683 19.5052C24.6673 19.0062 25 18.2932 25 17.5328V5.69818C25 4.91396 24.6911 4.2248 24.1683 3.72575ZM23.7643 17.5328H23.7405C23.7405 17.9605 23.5741 18.3408 23.289 18.6259C23.0038 18.9111 22.6236 19.0775 22.1958 19.0775H2.80418C2.37643 19.0775 1.9962 18.9111 1.71103 18.6259C1.42586 18.3408 1.25951 17.9605 1.25951 17.5328V5.69818C1.25951 5.27043 1.42586 4.8902 1.71103 4.60503C1.9962 4.31985 2.37643 4.1535 2.80418 4.1535H7.39068C7.74715 4.1535 8.03232 3.86833 8.03232 3.51187V2.82271C8.03232 2.5613 8.12738 2.32366 8.29373 2.15731C8.46008 1.99096 8.69772 1.8959 8.95913 1.8959H16.0646C16.326 1.8959 16.5637 1.99096 16.73 2.15731C16.8964 2.32366 16.9914 2.5613 16.9914 2.82271V3.51187C16.9914 3.86833 17.2766 4.1535 17.6331 4.1535H22.2196C22.6473 4.1535 23.0276 4.31985 23.3127 4.60503C23.5979 4.8902 23.7643 5.27043 23.7643 5.69818V17.5328Z" fill="#949494"/>
<path d="M12.4993 5.76953C10.8834 5.76953 9.40998 6.43493 8.36435 7.48056C7.29496 8.54995 6.65332 9.99957 6.65332 11.6155C6.65332 13.2315 7.31872 14.7049 8.36435 15.7505C9.43374 16.8199 10.8834 17.4615 12.4993 17.4615C14.1153 17.4615 15.5887 16.7961 16.6343 15.7505C17.7037 14.6811 18.3453 13.2315 18.3453 11.6155C18.3453 9.99957 17.6799 8.52618 16.6343 7.48056C15.5887 6.43493 14.1153 5.76953 12.4993 5.76953ZM15.7313 14.8712C14.8995 15.6792 13.7588 16.202 12.4993 16.202C11.2398 16.202 10.0991 15.6792 9.26739 14.8712C8.43564 14.0395 7.93659 12.8988 7.93659 11.6393C7.93659 10.3798 8.45941 9.23911 9.26739 8.40736C10.0991 7.57561 11.2398 7.07656 12.4993 7.07656C13.7588 7.07656 14.8995 7.59938 15.7313 8.40736C16.563 9.23911 17.0621 10.3798 17.0621 11.6393C17.0858 12.8988 16.563 14.0395 15.7313 14.8712Z" fill="#949494"/>
<path d="M20.9604 8.07499C21.6035 8.07499 22.1248 7.55365 22.1248 6.91054C22.1248 6.26743 21.6035 5.74609 20.9604 5.74609C20.3172 5.74609 19.7959 6.26743 19.7959 6.91054C19.7959 7.55365 20.3172 8.07499 20.9604 8.07499Z" fill="#949494"/>
</svg>
