<svg width="43" height="45" viewBox="0 0 43 45" fill="none" xmlns="http://www.w3.org/2000/svg">
<g id="Group 42313">
<g id="Group">
<g id="Group_2">
<path id="Vector" d="M41.5185 0H0.779414C0.348926 0 0 0.349014 0 0.779414V15.8487C0 17.2852 0.825732 18.5316 2.02685 19.1406V44.2205C2.02685 44.651 2.37586 44.9999 2.80626 44.9999H39.4922C39.9226 44.9999 40.2716 44.6509 40.2716 44.2205V19.1404C41.4724 18.5311 42.2978 17.2849 42.2978 15.8487V0.779414C42.2979 0.349014 41.949 0 41.5185 0ZM24.8383 1.55892H29.0993V15.8488C29.0993 17.0235 28.1435 17.9793 26.9688 17.9793C25.7941 17.9793 24.8383 17.0235 24.8383 15.8488V1.55892ZM19.0185 1.55892H23.2794V15.8488C23.2794 17.0235 22.3237 17.9793 21.1489 17.9793C19.9742 17.9793 19.0185 17.0235 19.0185 15.8488V1.55892ZM7.37877 1.55892H11.6397V10.9643C11.6397 11.3948 11.9887 11.7437 12.4191 11.7437C12.8495 11.7437 13.1985 11.3947 13.1985 10.9643V1.55892H17.4595V15.8488C17.4595 17.0235 16.5037 17.9793 15.329 17.9793C14.1543 17.9793 13.1985 17.0235 13.1985 15.8488V13.4585C13.1985 13.028 12.8495 12.6791 12.4191 12.6791C11.9887 12.6791 11.6397 13.0281 11.6397 13.4585V15.8488C11.6397 17.0235 10.684 17.9793 9.50924 17.9793C8.33449 17.9793 7.37877 17.0235 7.37877 15.8488V1.55892ZM1.55892 15.8487V1.55892H5.81985V15.8488C5.81985 17.0235 4.86413 17.9793 3.68938 17.9793C2.51464 17.9793 1.55892 17.0235 1.55892 15.8487ZM38.7127 43.4411H37.4925V30.6062C37.4925 30.1758 37.1435 29.8268 36.7131 29.8268C36.2827 29.8268 35.9336 30.1758 35.9336 30.6062V43.4411H28.0085V24.5266H35.9336V28.0081C35.9336 28.4386 36.2827 28.7875 36.7131 28.7875C37.1435 28.7875 37.4925 28.4385 37.4925 28.0081V23.7472C37.4925 23.3167 37.1435 22.9678 36.7131 22.9678H27.229C26.7985 22.9678 26.4495 23.3168 26.4495 23.7472V43.4412H3.58576V19.5355C3.62039 19.5365 3.65467 19.5382 3.68938 19.5382C4.87081 19.5382 5.92356 18.9793 6.59936 18.1128C7.27506 18.9793 8.3279 19.5382 9.50933 19.5382C10.6908 19.5382 11.7435 18.9793 12.4193 18.1128C13.095 18.9793 14.1478 19.5382 15.3293 19.5382C16.5108 19.5382 17.5634 18.9793 18.2392 18.1128C18.9148 18.9792 19.9675 19.5381 21.1489 19.5381C22.3304 19.5381 23.3831 18.9792 24.0589 18.1127C24.7346 18.9792 25.7875 19.5381 26.9689 19.5381C28.1503 19.5381 29.2031 18.9792 29.8789 18.1127C30.5546 18.9792 31.6073 19.5381 32.7888 19.5381C33.9703 19.5381 35.023 18.9792 35.6988 18.1127C36.3745 18.9792 37.4273 19.5381 38.6088 19.5381C38.6437 19.5381 38.6783 19.5364 38.713 19.5354V43.4411H38.7127ZM40.739 15.8487C40.739 17.0234 39.7833 17.9792 38.6085 17.9792C37.4338 17.9792 36.478 17.0234 36.478 15.8487V6.67266C36.478 6.24217 36.129 5.89324 35.6986 5.89324C35.2682 5.89324 34.9192 6.24226 34.9192 6.67266V15.8487C34.9192 17.0234 33.9635 17.9792 32.7887 17.9792C31.614 17.9792 30.6583 17.0234 30.6583 15.8487V1.55892H34.9192V4.17832C34.9192 4.60881 35.2682 4.95773 35.6986 4.95773C36.129 4.95773 36.478 4.60872 36.478 4.17832V1.55892H40.739V15.8487Z" fill="#BE1452"/>
</g>
</g>
<g id="Group_3">
<g id="Group_4">
<path id="Vector_2" d="M24.2548 20.8906H6.48352C6.05303 20.8906 5.7041 21.2396 5.7041 21.67V25.6192C5.7041 26.0497 6.05311 26.3986 6.48352 26.3986C6.91392 26.3986 7.26293 26.0496 7.26293 25.6192V22.4495H23.4754V39.8051H7.26293V28.2175C7.26293 27.787 6.91392 27.438 6.48352 27.438C6.05311 27.438 5.7041 27.7871 5.7041 28.2175V40.5846C5.7041 41.0151 6.05311 41.364 6.48352 41.364H24.2549C24.6854 41.364 25.0343 41.015 25.0343 40.5846V21.67C25.0343 21.2396 24.6854 20.8906 24.2548 20.8906Z" fill="#BE1452"/>
</g>
</g>
<g id="Group_5">
<g id="Group_6">
<path id="Vector_3" d="M34.4656 25.5664H30.1779C29.7474 25.5664 29.3984 25.9154 29.3984 26.3458V41.623C29.3984 42.0535 29.7475 42.4024 30.1779 42.4024H34.4656C34.8961 42.4024 35.245 42.0534 35.245 41.623V26.3458C35.2451 25.9154 34.8961 25.5664 34.4656 25.5664ZM33.6862 40.8436H30.9573V38.6611H33.6862V40.8436ZM33.6862 37.1022H30.9573V34.7639H33.6862V37.1022ZM33.6862 33.205H30.9573V30.8667H33.6862V33.205ZM33.6862 29.3077H30.9573V27.1253H33.6862V29.3077Z" fill="#BE1452"/>
</g>
</g>
</g>
</svg>
