<svg width="10" height="13" viewBox="0 0 10 13" fill="#000000" xmlns="http://www.w3.org/2000/svg">
<path d="M5.00065 13.0005C4.15861 12.2823 3.37811 11.4949 2.66732 10.6465C1.60065 9.37252 0.333985 7.47519 0.333985 5.66719C0.33304 3.77889 1.47015 2.07612 3.2147 1.35345C4.95924 0.630791 6.96736 1.03068 8.30198 2.36652C9.17962 3.24026 9.67126 4.42878 9.66734 5.66719C9.66734 7.47519 8.40065 9.37252 7.33398 10.6465C6.62319 11.4949 5.8427 12.2823 5.00065 13.0005ZM5.00065 3.66719C4.28612 3.66719 3.62587 4.04839 3.2686 4.66719C2.91134 5.28599 2.91134 6.04839 3.2686 6.66719C3.62587 7.28599 4.28612 7.66719 5.00065 7.66719C6.10522 7.66719 7.00065 6.77176 7.00065 5.66719C7.00065 4.56262 6.10522 3.66719 5.00065 3.66719Z" fill="#DED6D9"/>
</svg>
