<svg width="15" height="15" viewBox="0 0 15 15" fill="none" xmlns="http://www.w3.org/2000/svg">
<g clip-path="url(#clip0)">
<path d="M5.78121 0H1.09371C0.490608 0 0 0.490608 0 1.09371V3.90621C0 4.50943 0.490608 5.00004 1.09371 5.00004H5.78121C6.38443 5.00004 6.87504 4.50943 6.87504 3.90621V1.09371C6.87504 0.490608 6.38443 0 5.78121 0Z" fill="white"/>
<path d="M5.78121 6.24988H1.09371C0.490608 6.24988 0 6.74049 0 7.3437V13.9062C0 14.5093 0.490608 14.9999 1.09371 14.9999H5.78121C6.38443 14.9999 6.87504 14.5093 6.87504 13.9062V7.3437C6.87504 6.74049 6.38443 6.24988 5.78121 6.24988Z" fill="white"/>
<path d="M13.9063 9.99988H9.21883C8.61561 9.99988 8.125 10.4905 8.125 11.0937V13.9062C8.125 14.5093 8.61561 14.9999 9.21883 14.9999H13.9063C14.5094 14.9999 15 14.5093 15 13.9062V11.0937C15 10.4905 14.5094 9.99988 13.9063 9.99988Z" fill="white"/>
<path d="M13.9063 0H9.21883C8.61561 0 8.125 0.490608 8.125 1.09371V7.65621C8.125 8.25943 8.61561 8.75004 9.21883 8.75004H13.9063C14.5094 8.75004 15 8.25943 15 7.65621V1.09371C15 0.490608 14.5094 0 13.9063 0V0Z" fill="white"/>
</g>
<defs>
<clipPath id="clip0">
<rect width="15" height="15" fill="white"/>
</clipPath>
</defs>
</svg>
