<svg width="14" height="16" viewBox="0 0 14 16" fill="none" xmlns="http://www.w3.org/2000/svg">
<path d="M9.04269 0H2.61697C1.67762 0 0.914062 0.764127 0.914062 1.70291V14.2971C0.914062 15.2358 1.67762 16 2.61697 16H11.3847C12.323 16 13.0877 15.2359 13.0877 14.2971V4.03033L9.04269 0ZM11.3847 14.9566H2.61697C2.25293 14.9566 1.95691 14.6611 1.95691 14.2971V1.70291C1.95691 1.33943 2.25293 1.04391 2.61697 1.04391L8.65253 1.03767V3.2683C8.65253 3.92049 9.1818 4.44983 9.8335 4.44983L12.0197 4.44356L12.0438 14.2971C12.0438 14.6611 11.7488 14.9566 11.3847 14.9566Z" fill="#BE1452"/>
</svg>
