<svg width="31" height="14" viewBox="0 0 31 14" fill="none" xmlns="http://www.w3.org/2000/svg">
<path d="M2.79497 3.76015C3.3656 3.18952 4.03228 2.7246 4.78656 2.37234C8.10941 0.820355 11.814 3.45074e-05 15.4999 1.08844e-09C19.1857 -3.45052e-05 22.8903 0.820321 26.2132 2.37234C27.281 2.87112 28.1735 3.59574 28.866 4.52623C29.5146 5.39782 29.9581 6.43016 30.1485 7.5117C30.3397 8.598 30.2743 9.72594 29.9594 10.7735C29.6236 11.8907 29.0287 12.8817 28.1913 13.7192C27.9308 13.9796 27.5237 14.0228 27.2145 13.8227L22.3011 10.6434C22.0786 10.4994 21.9443 10.2525 21.9442 9.98751L21.9443 7.02438C17.7678 5.64323 13.232 5.64323 9.05557 7.02438L9.05561 9.98751C9.05557 10.2525 8.92113 10.4994 8.69875 10.6434L3.78536 13.8227C3.47608 14.0228 3.06903 13.9796 2.80857 13.7192C1.97112 12.8817 1.37625 11.8906 1.04046 10.7735C0.725555 9.72588 0.660165 8.59794 0.851366 7.51163C1.0417 6.43013 1.48518 5.39779 2.13384 4.52616C2.33706 4.253 2.55778 3.99741 2.79497 3.76015ZM27.5037 12.1488C28.4864 10.9222 28.8878 9.36281 28.6097 7.78248C28.2969 6.00543 27.1824 4.5495 25.5519 3.78794C19.1637 0.804198 11.836 0.804197 5.44779 3.78794C3.81733 4.54946 2.70282 6.00536 2.39005 7.78248C2.11188 9.36281 2.51334 10.9222 3.49604 12.1488L7.49306 9.5625V6.46793C7.49306 6.13863 7.69949 5.84472 8.00918 5.73306C12.8396 3.99057 18.1601 3.99057 22.9905 5.73306C23.3002 5.84479 23.5067 6.13866 23.5066 6.46793V9.5625L27.5037 12.1488Z" fill="white"/>
</svg>
