<svg width="16" height="16" viewBox="0 0 16 16" fill="none" xmlns="http://www.w3.org/2000/svg">
<path d="M8.00065 14.0005C7.15861 13.2823 6.37811 12.4949 5.66732 11.6465C4.60065 10.3725 3.33398 8.47519 3.33398 6.66719C3.33304 4.77889 4.47015 3.07612 6.2147 2.35345C7.95924 1.63079 9.96736 2.03068 11.302 3.36652C12.1796 4.24026 12.6713 5.42878 12.6673 6.66719C12.6673 8.47519 11.4007 10.3725 10.334 11.6465C9.62319 12.4949 8.8427 13.2823 8.00065 14.0005ZM8.00065 4.66719C7.28612 4.66719 6.62587 5.04839 6.2686 5.66719C5.91134 6.28599 5.91134 7.04839 6.2686 7.66719C6.62587 8.28599 7.28612 8.66719 8.00065 8.66719C9.10522 8.66719 10.0007 7.77176 10.0007 6.66719C10.0007 5.56262 9.10522 4.66719 8.00065 4.66719Z" fill="#8E878A"/>
</svg>
