<svg width="46" height="46" viewBox="0 0 46 46" fill="none" xmlns="http://www.w3.org/2000/svg">
<circle cx="23" cy="23" r="23" fill="#BE1452"/>
<path fill-rule="evenodd" clip-rule="evenodd" d="M18.3327 14.833V18.3378C17.7518 18.3461 17.2326 18.3685 16.7836 18.4288C16.0188 18.5317 15.2858 18.7635 14.6912 19.3581C14.0965 19.9527 13.8647 20.6858 13.7619 21.4506C13.6659 22.1642 13.666 23.0553 13.666 24.0896V28.9098C13.666 29.944 13.6659 30.8351 13.7619 31.5488C13.8647 32.3135 14.0965 33.0467 14.6912 33.6412C15.2858 34.2358 16.0188 34.4677 16.7836 34.5706C17.4972 34.6665 18.3883 34.6665 19.4225 34.6663H26.5762C27.6104 34.6665 28.5015 34.6665 29.2151 34.5706C29.9799 34.4677 30.713 34.2358 31.3075 33.6412C31.9022 33.0467 32.134 32.3135 32.2369 31.5488C32.3328 30.8351 32.3328 29.944 32.3327 28.9098V24.0896C32.3328 23.0553 32.3328 22.1642 32.2369 21.4506C32.134 20.6858 31.9022 19.9527 31.3075 19.3581C30.713 18.7635 29.9799 18.5317 29.2151 18.4288C28.7662 18.3685 28.2469 18.3461 27.666 18.3378V14.833C27.666 12.9 26.0991 11.333 24.166 11.333H21.8327C19.8997 11.333 18.3327 12.9 18.3327 14.833ZM21.8327 13.6663C21.1883 13.6663 20.666 14.1887 20.666 14.833V18.333H25.3327V14.833C25.3327 14.1887 24.8104 13.6663 24.166 13.6663H21.8327ZM22.9994 24.1663C21.7107 24.1663 20.666 25.211 20.666 26.4997C20.666 27.7884 21.7107 28.833 22.9994 28.833C24.2881 28.833 25.3327 27.7884 25.3327 26.4997C25.3327 25.211 24.2881 24.1663 22.9994 24.1663Z" fill="white"/>
</svg>
