<svg width="45" height="30" viewBox="0 0 45 30" fill="none" xmlns="http://www.w3.org/2000/svg">
<path d="M22.5002 13.6957C26.2821 13.6957 29.348 10.6298 29.348 6.84785C29.348 3.06589 26.2821 0 22.5002 0C18.7182 0 15.6523 3.06589 15.6523 6.84785C15.6523 10.6298 18.7182 13.6957 22.5002 13.6957Z" fill="#D8447A"/>
<path d="M36.196 17.6078C38.8973 17.6078 41.0872 15.4179 41.0872 12.7165C41.0872 10.0151 38.8973 7.8252 36.196 7.8252C33.4946 7.8252 31.3047 10.0151 31.3047 12.7165C31.3047 15.4179 33.4946 17.6078 36.196 17.6078Z" fill="#D8447A"/>
<path d="M8.94206 17.6078C11.6434 17.6078 13.8333 15.4179 13.8333 12.7165C13.8333 10.0151 11.6434 7.8252 8.94206 7.8252C6.24068 7.8252 4.05078 10.0151 4.05078 12.7165C4.05078 15.4179 6.24068 17.6078 8.94206 17.6078Z" fill="#D8447A"/>
<path d="M22.4987 15.6519C15.4865 15.6519 9.78125 21.357 9.78125 28.3692C9.78125 28.9092 10.2195 29.3475 10.7595 29.3475H34.2378C34.7778 29.3475 35.2161 28.9092 35.2161 28.3692C35.2161 21.357 29.5109 15.6519 22.4987 15.6519Z" fill="#D8447A"/>
<path d="M10.6298 19.7758C10.0311 19.6486 9.42257 19.5645 8.80434 19.5645C3.95021 19.5645 0 23.5147 0 28.3688C0 28.9088 0.438291 29.3471 0.978291 29.3471H8.00608C7.89649 29.0399 7.82605 28.7132 7.82605 28.3688C7.82605 25.1581 8.87478 22.194 10.6298 19.7758Z" fill="#D8447A"/>
<path d="M36.1965 19.5645C35.5783 19.5645 34.9698 19.6486 34.3711 19.7758C36.1261 22.194 37.1748 25.1581 37.1748 28.3688C37.1748 28.7132 37.1044 29.0398 36.9948 29.3471H44.0226C44.5626 29.3471 45.0009 28.9088 45.0009 28.3688C45.0009 23.5147 41.0507 19.5645 36.1965 19.5645Z" fill="#D8447A"/>
</svg>
