<svg width="16" height="16" viewBox="0 0 16 16" fill="none" xmlns="http://www.w3.org/2000/svg">
<path d="M6.77992 0.5C10.1481 0.5 12.8884 3.25994 12.8884 6.65234C12.8884 8.14484 12.358 9.51491 11.4771 10.5814L15.3927 14.4983C15.6206 14.7264 15.6219 15.0974 15.3955 15.327C15.2817 15.4423 15.1322 15.5 14.9827 15.5C14.8345 15.5 14.6862 15.4433 14.5728 15.3298L10.6518 11.4075C9.59714 12.2802 8.24819 12.8047 6.77992 12.8047C5.73201 12.8047 4.69793 12.5327 3.78958 12.0182C3.50952 11.8596 3.41018 11.5023 3.5677 11.2203C3.72518 10.9382 4.07987 10.8381 4.35993 10.9968C5.09452 11.4129 5.93134 11.6328 6.77992 11.6328C9.50656 11.6328 11.7249 9.39857 11.7249 6.65234C11.7249 3.90611 9.50656 1.67187 6.77992 1.67187C4.05329 1.67187 1.83499 3.90611 1.83499 6.65234C1.83499 7.51751 2.05847 8.3694 2.48124 9.11594C2.64043 9.39705 2.54322 9.75488 2.26415 9.91522C1.98506 10.0755 1.62978 9.97765 1.47058 9.69658C0.947812 8.77344 0.671478 7.72077 0.671478 6.65234C0.671478 3.25994 3.41173 0.5 6.77992 0.5Z" fill="#DEDEDE"/>
</svg>
