<svg width="45" height="45" viewBox="0 0 45 45" fill="none" xmlns="http://www.w3.org/2000/svg">
<g id="sell 1" clip-path="url(#clip0_151_4766)">
<path id="Vector" d="M44.9281 32.7743C44.8442 32.5962 44.6933 32.4583 44.5083 32.3912L40.3194 30.8665C39.9334 30.7268 39.5075 30.9264 39.3678 31.3124L39.1135 32.0107L34.2615 30.244C34.1389 30.1997 34.0072 30.1881 33.8787 30.2099L23.7814 31.9929C22.8668 32.1565 22.0807 32.7373 21.6555 33.5633L17.0233 31.8732C16.2832 31.6022 15.4655 31.6385 14.7527 31.9744C13.8472 32.397 13.2138 33.2452 13.0662 34.2337C12.8815 35.6645 13.729 37.0282 15.0937 37.4961L28.2562 42.2865L30.3504 43.0487C30.509 43.1071 30.6824 43.1093 30.8424 43.0549L35.1031 41.6165L35.5562 41.7805L35.3023 42.4795C35.1626 42.8655 35.3621 43.2918 35.7481 43.4314L39.9374 44.9558C40.3234 45.0958 40.7496 44.8963 40.8893 44.5103L44.9549 33.3399C45.0209 33.1552 45.0111 32.9521 44.9281 32.7743ZM34.8742 40.1299L30.6142 41.5683L15.6019 36.1013C14.9072 35.8702 14.4643 35.1893 14.535 34.4601C14.5996 34.0172 14.8597 33.6268 15.2435 33.3965C15.6277 33.1661 16.0946 33.12 16.5158 33.2717L21.3363 35.0264C21.3385 35.1632 21.3497 35.2996 21.3697 35.4349C21.6577 37.0485 23.1955 38.1256 24.8102 37.8451L33.1742 36.3705L32.916 34.9074L24.5555 36.3824C23.7494 36.5225 22.9815 35.987 22.8338 35.1824C22.803 35.013 22.8044 34.8396 22.8378 34.6705C22.8432 34.6459 22.8476 34.6212 22.8501 34.5962C22.861 34.533 22.8781 34.471 22.9016 34.4111C23.0845 33.9127 23.518 33.5485 24.0404 33.4542L33.9397 31.7092L38.6053 33.4074L36.0644 40.3914L35.3661 40.1378C35.2083 40.078 35.0345 40.074 34.8742 40.1266V40.1299ZM39.7437 43.3074L36.9507 42.2909L40.508 32.5168L43.301 33.5329L39.7437 43.3074Z" fill="#B6B6B6"/>
<path id="Vector_2" d="M15.0771 19.0992L16.4886 18.0635V27.4894C16.4886 28.31 17.1539 28.9753 17.9745 28.9753H31.3477C32.1687 28.9753 32.8336 28.31 32.8336 27.4894V18.0642L34.2455 19.0999C34.5974 19.359 35.0233 19.4983 35.4601 19.4983C36.1599 19.4986 36.8132 19.1496 37.2025 18.5681C37.8185 17.6347 37.5805 16.3806 36.6652 15.7381L31.0314 11.7603C31.2179 11.592 31.3811 11.3998 31.5171 11.189C32.2238 10.0205 32.0305 8.51898 31.0506 7.5678L25.0068 1.52366C24.0335 0.545264 22.7094 -0.00360985 21.3291 1.7869e-05H13.5168C13.4163 -0.000344903 13.3165 0.0203331 13.2244 0.060238L8.1677 2.22889H7.57312V0.742974C7.57312 0.332679 7.24082 1.7869e-05 6.83016 1.7869e-05H0.886511C0.476216 1.7869e-05 0.143555 0.332679 0.143555 0.742974V12.6303C0.143555 13.0406 0.476216 13.3732 0.886511 13.3732H6.83016C7.24082 13.3732 7.57312 13.0406 7.57312 12.6303V11.1444H7.68159C8.21377 12.9274 10.603 14.1162 12.7738 14.1162C14.945 14.1162 17.3342 12.9274 17.866 11.1444H19.1633L12.6559 15.7389C11.7381 16.389 11.5056 17.6521 12.1313 18.5866C12.8097 19.5313 14.1193 19.7591 15.0771 19.0992ZM6.08721 11.8873H1.62947V1.48593H6.08721V11.8873ZM20.9463 27.4894V23.0317H23.9182V27.4894H20.9463ZM31.3477 27.4894H25.4041V22.2887C25.4041 21.8784 25.0718 21.5458 24.6611 21.5458H20.2034C19.7931 21.5458 19.4604 21.8784 19.4604 22.2887V27.4894H17.9745V16.9737L24.6611 12.0658L31.3477 16.9737V27.4894ZM17.2316 9.65845C16.8213 9.65845 16.4886 9.99111 16.4886 10.4014C16.4886 11.5264 14.6486 12.6303 12.7738 12.6303C10.8994 12.6303 9.05903 11.5264 9.05903 10.4014C9.05903 9.99111 8.72673 9.65845 8.31608 9.65845H7.57312V3.7148H8.31608C8.41693 3.71516 8.51669 3.69448 8.60883 3.65458L13.6655 1.48593H21.3254C22.3125 1.4823 23.2597 1.87446 23.9555 2.57425L30 8.61838C30.4883 9.07475 30.5979 9.80719 30.2656 10.3865C30.0323 10.7188 29.6677 10.9347 29.2643 10.9793C28.8613 11.0236 28.4582 10.8926 28.1582 10.6191L25.3692 7.83008C25.1995 6.33546 23.9367 5.20507 22.4322 5.20071H15.7456V6.68663H22.4322C23.2532 6.68663 23.9182 7.35195 23.9182 8.17254C23.9182 8.99313 23.2532 9.65845 22.4322 9.65845H17.2316ZM13.3684 17.7566C13.1939 17.4911 13.2596 17.1352 13.5168 16.9491L21.7394 11.1444H22.4322C23.5209 11.1552 24.5236 10.5552 25.0282 9.59097L27.1087 11.6711C27.7298 12.2871 28.5994 12.5838 29.4675 12.4765L35.8055 16.9491C36.0028 17.0829 36.0982 17.3238 36.046 17.5567C35.9934 17.7893 35.8044 17.9659 35.5686 18.0026C35.4122 18.0312 35.2511 17.9946 35.1227 17.901L25.1004 10.5454C24.8385 10.3532 24.4823 10.3532 24.2207 10.5454L14.2057 17.8963C14.1048 17.9695 13.9833 18.0091 13.8589 18.0095C13.6641 18.0091 13.4816 17.9151 13.3684 17.7566Z" fill="#B6B6B6"/>
<path id="Vector_3" d="M26.1475 22.2889V25.2607C26.1475 25.671 26.4801 26.0036 26.8904 26.0036H29.8622C30.2729 26.0036 30.6052 25.671 30.6052 25.2607V22.2889C30.6052 21.8786 30.2729 21.5459 29.8622 21.5459H26.8904C26.4801 21.5459 26.1475 21.8786 26.1475 22.2889ZM27.6334 23.0318H29.1193V24.5177H27.6334V23.0318Z" fill="#B6B6B6"/>
<path id="Vector_4" d="M22.4326 16.3451C22.4326 17.576 23.4306 18.5739 24.6615 18.5739C25.8927 18.5739 26.8903 17.576 26.8903 16.3451C26.8903 15.1142 25.8927 14.1162 24.6615 14.1162C23.4306 14.1162 22.4326 15.1142 22.4326 16.3451ZM25.4044 16.3451C25.4044 16.7554 25.0721 17.088 24.6615 17.088C24.2512 17.088 23.9185 16.7554 23.9185 16.3451C23.9185 15.9348 24.2512 15.6021 24.6615 15.6021C25.0721 15.6021 25.4044 15.9348 25.4044 16.3451Z" fill="#B6B6B6"/>
</g>
<defs>
<clipPath id="clip0_151_4766">
<rect width="45" height="45" fill="white"/>
</clipPath>
</defs>
</svg>
