<svg width="95" height="22" viewBox="0 0 95 22" fill="none" xmlns="http://www.w3.org/2000/svg">
<path d="M0.400391 3.3C0.400391 1.47746 1.87785 0 3.70039 0H91.7004C93.5229 0 95.0004 1.47746 95.0004 3.3V18.7C95.0004 20.5225 93.5229 22 91.7004 22H3.70039C1.87785 22 0.400391 20.5225 0.400391 18.7V3.3Z" fill="#44BFE5"/>
<path d="M27.0803 15.5654C26.5193 15.5654 26.0133 15.4701 25.5623 15.2794C25.1149 15.0888 24.7446 14.8174 24.4513 14.4654C24.1616 14.1098 23.9728 13.6899 23.8848 13.2059L24.8968 13.0464C25.0251 13.5451 25.2909 13.9356 25.6943 14.2179C26.1013 14.4966 26.5798 14.6359 27.1298 14.6359C27.4854 14.6359 27.8063 14.5809 28.0923 14.4709C28.3819 14.3573 28.6111 14.1959 28.7798 13.9869C28.9484 13.7779 29.0328 13.5304 29.0328 13.2444C29.0328 13.0684 29.0016 12.9181 28.9393 12.7934C28.8806 12.6651 28.7981 12.5569 28.6918 12.4689C28.5891 12.3773 28.4718 12.3003 28.3398 12.2379C28.2078 12.1756 28.0703 12.1243 27.9273 12.0839L25.9088 11.4844C25.6888 11.4184 25.4761 11.3359 25.2708 11.2369C25.0654 11.1343 24.8821 11.0078 24.7208 10.8574C24.5594 10.7034 24.4311 10.5201 24.3358 10.3074C24.2404 10.0911 24.1928 9.83626 24.1928 9.54293C24.1928 9.0736 24.3138 8.67393 24.5558 8.34393C24.8014 8.01026 25.1333 7.75543 25.5513 7.57943C25.9693 7.40343 26.4404 7.31726 26.9648 7.32093C27.4964 7.3246 27.9713 7.41993 28.3893 7.60693C28.8109 7.79026 29.1593 8.05426 29.4343 8.39893C29.7129 8.7436 29.8999 9.1561 29.9953 9.63643L28.9558 9.81793C28.9008 9.49526 28.7779 9.21843 28.5873 8.98743C28.4003 8.75276 28.1656 8.5731 27.8833 8.44843C27.6009 8.3201 27.2911 8.2541 26.9538 8.25043C26.6311 8.24676 26.3396 8.2981 26.0793 8.40443C25.8189 8.51076 25.6118 8.65926 25.4578 8.84993C25.3038 9.03693 25.2268 9.25326 25.2268 9.49893C25.2268 9.74093 25.2964 9.9371 25.4358 10.0874C25.5751 10.2341 25.7456 10.3514 25.9473 10.4394C26.1526 10.5238 26.3524 10.5934 26.5468 10.6484L28.0538 11.0829C28.2261 11.1306 28.4241 11.1966 28.6478 11.2809C28.8751 11.3653 29.0951 11.4844 29.3078 11.6384C29.5204 11.7888 29.6964 11.9904 29.8358 12.2434C29.9751 12.4928 30.0448 12.8081 30.0448 13.1894C30.0448 13.5708 29.9678 13.9099 29.8138 14.2069C29.6634 14.5039 29.4526 14.7533 29.1813 14.9549C28.9099 15.1529 28.5946 15.3033 28.2353 15.4059C27.8759 15.5123 27.4909 15.5654 27.0803 15.5654Z" fill="white"/>
<path d="M31.1985 15.4004V7.48043H32.0895L35.0815 13.7889L38.057 7.48043H38.959V15.3949H38.0295V9.63093L35.34 15.4004H34.8175L32.128 9.63093V15.4004H31.1985Z" fill="white"/>
<path d="M39.9512 15.4004L42.6022 7.48043H43.9662L46.6172 15.4004H45.5997L43.1192 8.05243H43.4272L40.9687 15.4004H39.9512ZM41.2272 13.5469V12.6284H45.3412V13.5469H41.2272Z" fill="white"/>
<path d="M47.6018 15.4004V7.48043H50.7313C50.8083 7.48043 50.9 7.4841 51.0063 7.49143C51.1126 7.4951 51.2153 7.5061 51.3143 7.52443C51.7433 7.59043 52.1026 7.7371 52.3923 7.96443C52.6856 8.19176 52.9056 8.4796 53.0523 8.82793C53.199 9.1726 53.2723 9.55576 53.2723 9.97743C53.2723 10.5898 53.1128 11.1214 52.7938 11.5724C52.4748 12.0198 52.0073 12.3003 51.3913 12.4139L51.0173 12.4744H48.5808V15.4004H47.6018ZM52.3153 15.4004L50.7533 12.1774L51.7213 11.8804L53.4373 15.4004H52.3153ZM48.5808 11.5449H50.6983C50.768 11.5449 50.8468 11.5413 50.9348 11.5339C51.0265 11.5266 51.1126 11.5138 51.1933 11.4954C51.4463 11.4368 51.6516 11.3304 51.8093 11.1764C51.9706 11.0188 52.088 10.8354 52.1613 10.6264C52.2346 10.4138 52.2713 10.1974 52.2713 9.97743C52.2713 9.75743 52.2346 9.54293 52.1613 9.33393C52.088 9.12126 51.9706 8.9361 51.8093 8.77843C51.6516 8.62076 51.4463 8.51443 51.1933 8.45943C51.1126 8.43743 51.0265 8.4246 50.9348 8.42093C50.8468 8.4136 50.768 8.40993 50.6983 8.40993H48.5808V11.5449Z" fill="white"/>
<path d="M56.6892 15.4004V8.40993H53.9887V7.48043H60.3687V8.40993H57.6682V15.4004H56.6892Z" fill="white"/>
<path d="M61.3544 15.4004V7.48043H62.3334V14.4709H66.0074V15.4004H61.3544Z" fill="white"/>
<path d="M69.9789 15.5654C69.1906 15.5654 68.5214 15.3913 67.9714 15.0429C67.4214 14.6946 67.0016 14.2106 66.7119 13.5909C66.4259 12.9713 66.2829 12.2544 66.2829 11.4404C66.2829 10.6264 66.4259 9.9096 66.7119 9.28993C67.0016 8.67026 67.4214 8.18626 67.9714 7.83793C68.5214 7.4896 69.1906 7.31543 69.9789 7.31543C70.7709 7.31543 71.4419 7.4896 71.9919 7.83793C72.5419 8.18626 72.9599 8.67026 73.2459 9.28993C73.5319 9.9096 73.6749 10.6264 73.6749 11.4404C73.6749 12.2544 73.5319 12.9713 73.2459 13.5909C72.9599 14.2106 72.5419 14.6946 71.9919 15.0429C71.4419 15.3913 70.7709 15.5654 69.9789 15.5654ZM69.9789 14.6304C70.5692 14.6341 71.0606 14.5021 71.4529 14.2344C71.8489 13.9631 72.1441 13.5873 72.3384 13.1069C72.5364 12.6266 72.6354 12.0711 72.6354 11.4404C72.6354 10.8061 72.5364 10.2506 72.3384 9.77393C72.1441 9.29726 71.8489 8.9251 71.4529 8.65743C71.0606 8.38976 70.5692 8.2541 69.9789 8.25043C69.3886 8.24676 68.8972 8.37876 68.5049 8.64643C68.1162 8.9141 67.8229 9.2881 67.6249 9.76843C67.4269 10.2488 67.3261 10.8061 67.3224 11.4404C67.3187 12.0711 67.4159 12.6248 67.6139 13.1014C67.8119 13.5781 68.1071 13.9521 68.4994 14.2234C68.8954 14.4911 69.3886 14.6268 69.9789 14.6304Z" fill="white"/>
<path d="M78.0355 15.5654C77.2472 15.5654 76.578 15.3913 76.028 15.0429C75.478 14.6946 75.0582 14.2106 74.7685 13.5909C74.4825 12.9713 74.3395 12.2544 74.3395 11.4404C74.3395 10.6264 74.4825 9.9096 74.7685 9.28993C75.0582 8.67026 75.478 8.18626 76.028 7.83793C76.578 7.4896 77.2472 7.31543 78.0355 7.31543C78.9522 7.31543 79.7057 7.54826 80.296 8.01393C80.89 8.4796 81.2989 9.1066 81.5225 9.89493L80.527 10.1589C80.3657 9.5686 80.0779 9.10293 79.6635 8.76193C79.2492 8.42093 78.7065 8.25043 78.0355 8.25043C77.4452 8.25043 76.9539 8.38426 76.5615 8.65193C76.1692 8.9196 75.874 9.2936 75.676 9.77393C75.478 10.2506 75.3772 10.8061 75.3735 11.4404C75.3699 12.0711 75.467 12.6266 75.665 13.1069C75.863 13.5836 76.16 13.9576 76.556 14.2289C76.952 14.4966 77.4452 14.6304 78.0355 14.6304C78.7065 14.6304 79.2492 14.4599 79.6635 14.1189C80.0779 13.7743 80.3657 13.3086 80.527 12.7219L81.5225 12.9859C81.2989 13.7706 80.89 14.3976 80.296 14.8669C79.7057 15.3326 78.9522 15.5654 78.0355 15.5654Z" fill="white"/>
<path d="M82.7288 15.4004V7.48043H83.7078V11.1984L87.1728 7.48043H88.4048L84.8078 11.3249L88.6853 15.4004H87.4203L83.7078 11.5284V15.4004H82.7288Z" fill="white"/>
<g clip-path="url(#clip0_21142_8609)">
<path d="M15.8555 11.4951C15.5755 11.4951 15.3477 11.7229 15.3477 12.0029C15.3477 12.2829 15.5754 12.5107 15.8555 12.5107C16.1355 12.5107 16.3632 12.2829 16.3632 12.0029C16.3632 11.7229 16.1355 11.4951 15.8555 11.4951Z" fill="white"/>
<path d="M10.2734 14.9951C9.9934 14.9951 9.76562 15.2229 9.76562 15.5029C9.76562 15.7829 9.9934 16.0107 10.2734 16.0107C10.5534 16.0107 10.7812 15.7829 10.7812 15.5029C10.7812 15.2229 10.5534 14.9951 10.2734 14.9951Z" fill="white"/>
<path d="M17.8891 8.67548H17.4126V6.15046C17.4126 3.97175 15.6401 2.19922 13.4614 2.19922H12.6346C10.4559 2.19922 8.68339 3.97175 8.68339 6.15046V8.67548H8.20695C7.59538 8.67548 7.09961 9.17126 7.09961 9.78282V17.5918C7.09961 18.2034 7.59542 18.6992 8.20698 18.6992H9.49717C9.65873 18.6992 9.78966 18.5683 9.78966 18.4067V17.0922C9.78966 16.9809 9.72837 16.877 9.62834 16.8282C9.11432 16.5773 8.76672 16.0365 8.80037 15.4197C8.84043 14.686 9.42702 14.0861 10.1598 14.031C11.0243 13.966 11.7487 14.651 11.7487 15.502C11.7487 16.0848 11.4089 16.5894 10.917 16.8288C10.8181 16.877 10.7571 16.9794 10.7571 17.0895V18.4067C10.7571 18.5683 10.8881 18.6992 11.0496 18.6992H12.2716C12.4331 18.6992 12.5641 18.5682 12.5641 18.4067V14.0772C12.5641 13.9848 12.5204 13.8978 12.4462 13.8426L11.7689 13.3384C11.6804 13.2725 11.5615 13.2603 11.4637 13.3112C11.2292 13.4335 10.958 13.4946 10.6713 13.4732C9.95824 13.4198 9.37903 12.85 9.31503 12.1378C9.23259 11.2204 9.99585 10.4545 10.9124 10.5323C11.6221 10.5926 12.1935 11.1646 12.254 11.8742C12.271 12.0747 12.2475 12.2678 12.1909 12.4464L13.3366 13.2994C13.3395 13.3015 13.342 13.304 13.3448 13.3062C13.3519 13.3117 13.3587 13.3173 13.3654 13.3232C13.3712 13.3282 13.3768 13.3333 13.3823 13.3385C13.3878 13.3438 13.3932 13.3493 13.3985 13.355C13.4043 13.3611 13.41 13.3673 13.4154 13.3736C13.42 13.3789 13.4243 13.3844 13.4286 13.3899C13.434 13.3968 13.4393 13.4037 13.4443 13.4108C13.4483 13.4166 13.4521 13.4226 13.4558 13.4285C13.4603 13.4356 13.4648 13.4427 13.4688 13.45C13.4726 13.4567 13.4761 13.4636 13.4796 13.4704C13.483 13.4772 13.4864 13.484 13.4895 13.4909C13.4929 13.4987 13.496 13.5066 13.499 13.5146C13.5015 13.5211 13.504 13.5275 13.5062 13.5341C13.509 13.5424 13.5114 13.5509 13.5137 13.5595C13.5155 13.5661 13.5173 13.5727 13.5188 13.5794C13.5207 13.5877 13.5223 13.5961 13.5237 13.6045C13.525 13.6121 13.5262 13.6196 13.5272 13.6271C13.5281 13.6347 13.5289 13.6424 13.5294 13.6501C13.5301 13.6588 13.5306 13.6676 13.5308 13.6764C13.5309 13.6801 13.5313 13.6836 13.5313 13.6873V18.4066C13.5313 18.5682 13.6623 18.6992 13.8238 18.6992H15.0769C15.2385 18.6992 15.3694 18.5682 15.3694 18.4066V13.5923C15.3694 13.4811 15.3081 13.3771 15.2081 13.3283C14.694 13.0773 14.3464 12.5365 14.3802 11.9197C14.4203 11.186 15.0069 10.5862 15.7397 10.5311C16.6042 10.4661 17.3284 11.1511 17.3284 12.0021C17.3284 12.5849 16.9886 13.0895 16.4968 13.329C16.3979 13.3772 16.3369 13.4796 16.3369 13.5897V18.4067C16.3369 18.5683 16.4679 18.6992 16.6294 18.6992H17.8886C18.5002 18.6992 18.996 18.2034 18.996 17.5919V9.78285C18.9964 9.17129 18.5006 8.67548 17.8891 8.67548ZM9.65086 8.67094V6.15046C9.65086 4.50523 10.9894 3.16673 12.6346 3.16673H13.4613C15.1066 3.16673 16.4451 4.50523 16.4451 6.15046V8.67094H9.65086Z" fill="white"/>
<path d="M10.7851 11.4951C10.5051 11.4951 10.2773 11.7229 10.2773 12.0029C10.2773 12.2829 10.5051 12.5107 10.7851 12.5107C11.0651 12.5107 11.2929 12.2829 11.2929 12.0029C11.2929 11.7229 11.0651 11.4951 10.7851 11.4951Z" fill="white"/>
</g>
<defs>
<clipPath id="clip0_21142_8609">
<rect width="16.5" height="16.5" fill="white" transform="translate(4.80078 2.2002)"/>
</clipPath>
</defs>
</svg>
