<svg width="20" height="21" viewBox="0 0 20 21" fill="none" xmlns="http://www.w3.org/2000/svg">
<g clip-path="url(#clip0)">
<path d="M7.80078 18.415C7.80078 19.6219 8.79573 20.6047 10.023 20.6047C11.2478 20.6047 12.2453 19.6243 12.2453 18.415H7.80078Z" fill="#252525"/>
<path d="M18.5404 14.3933L16.6956 11.7288V7.42435C16.6956 3.84834 13.7942 0.957814 10.1785 0.899259C10.1528 0.898848 10.127 0.898591 10.1012 0.898438C10.0754 0.898899 10.0497 0.899464 10.0239 0.900182C6.40861 1.00333 3.43012 3.92994 3.3383 7.50816L3.2308 11.6993L1.4485 14.3684C0.773661 15.3791 1.22361 16.1983 2.45173 16.1983H17.565C18.7939 16.1984 19.2297 15.389 18.5404 14.3933ZM4.34877 14.0087L5.43621 12.3802L5.55975 7.56353C5.62189 5.14242 7.66408 3.14439 10.1151 3.0883C12.5333 3.11386 14.4733 5.03711 14.4733 7.4244V12.4046L15.584 14.0088H4.34877V14.0087Z" fill="#252525"/>
<path d="M10.0234 0.898451C10.0492 0.898294 10.075 0.898294 10.1007 0.898398C10.1265 0.89793 10.1522 0.897617 10.178 0.897461L10.0234 0.898451Z" fill="#252525"/>
</g>
<defs>
<clipPath id="clip0">
<rect width="20" height="19.7068" fill="white" transform="translate(0 0.897461)"/>
</clipPath>
</defs>
</svg>
