<svg width="198" height="198" viewBox="0 0 198 198" fill="none" xmlns="http://www.w3.org/2000/svg">
<g opacity="0.5">
<path d="M144.487 192.649H53.5136C52.8039 192.649 52.1234 192.367 51.6216 191.865C51.1198 191.363 50.8379 190.683 50.8379 189.973V8.02702C50.8378 7.61719 50.9318 7.21281 51.1127 6.84507C51.2936 6.47733 51.5565 6.15606 51.8813 5.90604C52.206 5.65603 52.5838 5.48395 52.9856 5.40308C53.3874 5.32222 53.8024 5.33472 54.1985 5.43964L145.172 29.5207C145.742 29.6719 146.247 30.0076 146.607 30.4756C146.967 30.9436 147.162 31.5176 147.162 32.1081V189.973C147.162 190.683 146.88 191.363 146.379 191.865C145.877 192.367 145.196 192.649 144.487 192.649ZM56.1892 187.297H141.811V34.1684L56.1892 11.5054V187.297Z" fill="#FAE3EC"/>
<path d="M189.973 192.649H144.487C143.777 192.649 143.097 192.367 142.595 191.865C142.093 191.363 141.811 190.683 141.811 189.973V61.5405C141.811 60.8309 142.093 60.1503 142.595 59.6486C143.097 59.1468 143.777 58.8649 144.487 58.8649H189.973C190.683 58.8649 191.363 59.1468 191.865 59.6486C192.367 60.1503 192.649 60.8309 192.649 61.5405V189.973C192.649 190.683 192.367 191.363 191.865 191.865C191.363 192.367 190.683 192.649 189.973 192.649ZM147.162 187.297H187.298V64.2162H147.162V187.297Z" fill="#FAE3EC"/>
<path d="M8.02724 110.96C7.31761 110.96 6.63704 110.678 6.13525 110.177C5.63346 109.675 5.35156 108.994 5.35156 108.285V100.498C5.35156 99.7888 5.63346 99.1082 6.13525 98.6064C6.63704 98.1046 7.31761 97.8227 8.02724 97.8227C8.73687 97.8227 9.41744 98.1046 9.91923 98.6064C10.421 99.1082 10.7029 99.7888 10.7029 100.498V108.285C10.7029 108.994 10.421 109.675 9.91923 110.177C9.41744 110.678 8.73687 110.96 8.02724 110.96Z" fill="#FAE3EC"/>
<path d="M53.5137 192.649H8.02724C7.31761 192.649 6.63704 192.367 6.13525 191.865C5.63346 191.363 5.35156 190.683 5.35156 189.973V153.691C5.35156 152.981 5.63346 152.301 6.13525 151.799C6.63704 151.297 7.31761 151.015 8.02724 151.015C8.73687 151.015 9.41744 151.297 9.91923 151.799C10.421 152.301 10.7029 152.981 10.7029 153.691V187.297H50.8381V37.4595H10.7029V81.7686C10.7029 82.4783 10.421 83.1588 9.91923 83.6606C9.41744 84.1624 8.73687 84.4443 8.02724 84.4443C7.31761 84.4443 6.63704 84.1624 6.13525 83.6606C5.63346 83.1588 5.35156 82.4783 5.35156 81.7686V34.7838C5.35156 34.0742 5.63346 33.3936 6.13525 32.8918C6.63704 32.39 7.31761 32.1081 8.02724 32.1081H53.5137C54.2234 32.1081 54.9039 32.39 55.4057 32.8918C55.9075 33.3936 56.1894 34.0742 56.1894 34.7838V189.973C56.1894 190.683 55.9075 191.363 55.4057 191.865C54.9039 192.367 54.2234 192.649 53.5137 192.649Z" fill="#FAE3EC"/>
<path d="M8.02724 137.637C7.31761 137.637 6.63704 137.355 6.13525 136.853C5.63346 136.351 5.35156 135.671 5.35156 134.961V127.014C5.35156 126.305 5.63346 125.624 6.13525 125.122C6.63704 124.621 7.31761 124.339 8.02724 124.339C8.73687 124.339 9.41744 124.621 9.91923 125.122C10.421 125.624 10.7029 126.305 10.7029 127.014V134.961C10.7029 135.671 10.421 136.351 9.91923 136.853C9.41744 137.355 8.73687 137.637 8.02724 137.637Z" fill="#FAE3EC"/>
<path d="M53.5136 71.3522H27.6478C26.9382 71.3522 26.2576 71.0703 25.7559 70.5686C25.2541 70.0668 24.9722 69.3862 24.9722 68.6766V54.4045C24.9722 53.6949 25.2541 53.0143 25.7559 52.5125C26.2576 52.0107 26.9382 51.7288 27.6478 51.7288H53.5136C54.2232 51.7288 54.9038 52.0107 55.4056 52.5125C55.9074 53.0143 56.1893 53.6949 56.1893 54.4045V68.6766C56.1893 69.3862 55.9074 70.0668 55.4056 70.5686C54.9038 71.0703 54.2232 71.3522 53.5136 71.3522ZM30.3235 66.0009H50.8379V57.0802H30.3235V66.0009Z" fill="#FAE3EC"/>
<path d="M53.5136 105.242H27.6478C26.9382 105.242 26.2576 104.96 25.7559 104.459C25.2541 103.957 24.9722 103.276 24.9722 102.567V88.2973C24.9722 87.5877 25.2541 86.9071 25.7559 86.4053C26.2576 85.9035 26.9382 85.6216 27.6478 85.6216H53.5136C54.2232 85.6216 54.9038 85.9035 55.4056 86.4053C55.9074 86.9071 56.1893 87.5877 56.1893 88.2973V102.567C56.1893 103.276 55.9074 103.957 55.4056 104.459C54.9038 104.96 54.2232 105.242 53.5136 105.242ZM30.3235 99.891H50.8379V90.973H30.3235V99.891Z" fill="#FAE3EC"/>
<path d="M53.5136 139.135H27.6478C26.9382 139.135 26.2576 138.853 25.7559 138.351C25.2541 137.85 24.9722 137.169 24.9722 136.459V122.19C24.9722 121.48 25.2541 120.8 25.7559 120.298C26.2576 119.796 26.9382 119.514 27.6478 119.514H53.5136C54.2232 119.514 54.9038 119.796 55.4056 120.298C55.9074 120.8 56.1893 121.48 56.1893 122.19V136.459C56.1893 137.169 55.9074 137.85 55.4056 138.351C54.9038 138.853 54.2232 139.135 53.5136 139.135ZM30.3235 133.784H50.8379V124.866H30.3235V133.784Z" fill="#FAE3EC"/>
<path d="M53.5136 173.028H27.6478C26.9382 173.028 26.2576 172.746 25.7559 172.244C25.2541 171.742 24.9722 171.062 24.9722 170.352V156.08C24.9722 155.371 25.2541 154.69 25.7559 154.188C26.2576 153.686 26.9382 153.404 27.6478 153.404H53.5136C54.2232 153.404 54.9038 153.686 55.4056 154.188C55.9074 154.69 56.1893 155.371 56.1893 156.08V170.352C56.1893 171.062 55.9074 171.742 55.4056 172.244C54.9038 172.746 54.2232 173.028 53.5136 173.028ZM30.3235 167.677H50.8379V158.756H30.3235V167.677Z" fill="#FAE3EC"/>
<path d="M126.76 68.3956H110.875C110.165 68.3956 109.485 68.1137 108.983 67.6119C108.481 67.1101 108.199 66.4296 108.199 65.7199V49.8345C108.199 49.1248 108.481 48.4443 108.983 47.9425C109.485 47.4407 110.165 47.1588 110.875 47.1588H126.76C127.47 47.1588 128.151 47.4407 128.652 47.9425C129.154 48.4443 129.436 49.1248 129.436 49.8345V65.7199C129.436 66.4296 129.154 67.1101 128.652 67.6119C128.151 68.1137 127.47 68.3956 126.76 68.3956ZM113.551 63.0443H124.085V52.5101H113.551V63.0443Z" fill="#FAE3EC"/>
<path d="M87.1251 68.3956H71.2396C70.53 68.3956 69.8494 68.1137 69.3476 67.6119C68.8459 67.1101 68.564 66.4296 68.564 65.7199V49.8345C68.564 49.1248 68.8459 48.4443 69.3476 47.9425C69.8494 47.4407 70.53 47.1588 71.2396 47.1588H87.1251C87.8348 47.1588 88.5153 47.4407 89.0171 47.9425C89.5189 48.4443 89.8008 49.1248 89.8008 49.8345V65.7199C89.8008 66.4296 89.5189 67.1101 89.0171 67.6119C88.5153 68.1137 87.8348 68.3956 87.1251 68.3956ZM73.9153 63.0443H84.4494V52.5101H73.9153V63.0443Z" fill="#FAE3EC"/>
<path d="M126.76 101.593H110.875C110.165 101.593 109.485 101.311 108.983 100.809C108.481 100.307 108.199 99.6267 108.199 98.9171V83.0289C108.199 82.3193 108.481 81.6387 108.983 81.1369C109.485 80.6351 110.165 80.3532 110.875 80.3532H126.76C127.47 80.3532 128.151 80.6351 128.652 81.1369C129.154 81.6387 129.436 82.3193 129.436 83.0289V98.9171C129.436 99.6267 129.154 100.307 128.652 100.809C128.151 101.311 127.47 101.593 126.76 101.593ZM113.551 96.2414H124.085V85.7046H113.551V96.2414Z" fill="#FAE3EC"/>
<path d="M87.1251 101.593H71.2396C70.53 101.593 69.8494 101.311 69.3476 100.809C68.8459 100.307 68.564 99.6267 68.564 98.9171V83.0289C68.564 82.3193 68.8459 81.6387 69.3476 81.1369C69.8494 80.6351 70.53 80.3532 71.2396 80.3532H87.1251C87.8348 80.3532 88.5153 80.6351 89.0171 81.1369C89.5189 81.6387 89.8008 82.3193 89.8008 83.0289V98.9171C89.8008 99.6267 89.5189 100.307 89.0171 100.809C88.5153 101.311 87.8348 101.593 87.1251 101.593ZM73.9153 96.2414H84.4494V85.7046H73.9153V96.2414Z" fill="#FAE3EC"/>
<path d="M126.76 134.787H110.875C110.165 134.787 109.485 134.505 108.983 134.003C108.481 133.502 108.199 132.821 108.199 132.111V116.226C108.199 115.516 108.481 114.836 108.983 114.334C109.485 113.832 110.165 113.55 110.875 113.55H126.76C127.47 113.55 128.151 113.832 128.652 114.334C129.154 114.836 129.436 115.516 129.436 116.226V132.111C129.436 132.821 129.154 133.502 128.652 134.003C128.151 134.505 127.47 134.787 126.76 134.787ZM113.551 129.436H124.085V118.902H113.551V129.436Z" fill="#FAE3EC"/>
<path d="M87.1251 134.787H71.2396C70.53 134.787 69.8494 134.505 69.3476 134.003C68.8459 133.502 68.564 132.821 68.564 132.111V116.226C68.564 115.516 68.8459 114.836 69.3476 114.334C69.8494 113.832 70.53 113.55 71.2396 113.55H87.1251C87.8348 113.55 88.5153 113.832 89.0171 114.334C89.5189 114.836 89.8008 115.516 89.8008 116.226V132.111C89.8008 132.821 89.5189 133.502 89.0171 134.003C88.5153 134.505 87.8348 134.787 87.1251 134.787ZM73.9153 129.436H84.4494V118.902H73.9153V129.436Z" fill="#FAE3EC"/>
<path d="M126.76 167.982H110.875C110.165 167.982 109.485 167.7 108.983 167.198C108.481 166.696 108.199 166.016 108.199 165.306V149.42C108.199 148.711 108.481 148.03 108.983 147.528C109.485 147.027 110.165 146.745 110.875 146.745H126.76C127.47 146.745 128.151 147.027 128.652 147.528C129.154 148.03 129.436 148.711 129.436 149.42V165.306C129.436 166.016 129.154 166.696 128.652 167.198C128.151 167.7 127.47 167.982 126.76 167.982ZM113.551 162.63H124.085V152.096H113.551V162.63Z" fill="#FAE3EC"/>
<path d="M87.1251 167.982H71.2396C70.53 167.982 69.8494 167.7 69.3476 167.198C68.8459 166.696 68.564 166.016 68.564 165.306V149.42C68.564 148.711 68.8459 148.03 69.3476 147.528C69.8494 147.027 70.53 146.745 71.2396 146.745H87.1251C87.8348 146.745 88.5153 147.027 89.0171 147.528C89.5189 148.03 89.8008 148.711 89.8008 149.42V165.306C89.8008 166.016 89.5189 166.696 89.0171 167.198C88.5153 167.7 87.8348 167.982 87.1251 167.982ZM73.9153 162.63H84.4494V152.096H73.9153V162.63Z" fill="#FAE3EC"/>
<path d="M178.045 94.5396H156.414C155.705 94.5396 155.024 94.2578 154.522 93.756C154.021 93.2542 153.739 92.5736 153.739 91.864V79.3793C153.739 78.6696 154.021 77.9891 154.522 77.4873C155.024 76.9855 155.705 76.7036 156.414 76.7036H178.045C178.754 76.7036 179.435 76.9855 179.937 77.4873C180.438 77.9891 180.72 78.6696 180.72 79.3793V91.864C180.72 92.5736 180.438 93.2542 179.937 93.756C179.435 94.2578 178.754 94.5396 178.045 94.5396ZM159.09 89.1883H175.369V82.0549H159.09V89.1883Z" fill="#FAE3EC"/>
<path d="M178.045 121.296H156.414C155.705 121.296 155.024 121.015 154.522 120.513C154.021 120.011 153.739 119.33 153.739 118.621V106.136C153.739 105.426 154.021 104.746 154.522 104.244C155.024 103.742 155.705 103.46 156.414 103.46H178.045C178.754 103.46 179.435 103.742 179.937 104.244C180.438 104.746 180.72 105.426 180.72 106.136V118.621C180.72 119.33 180.438 120.011 179.937 120.513C179.435 121.015 178.754 121.296 178.045 121.296ZM159.09 115.945H175.369V108.812H159.09V115.945Z" fill="#FAE3EC"/>
<path d="M178.045 148.053H156.414C155.705 148.053 155.024 147.771 154.522 147.269C154.021 146.768 153.739 146.087 153.739 145.377V132.893C153.739 132.183 154.021 131.503 154.522 131.001C155.024 130.499 155.705 130.217 156.414 130.217H178.045C178.754 130.217 179.435 130.499 179.937 131.001C180.438 131.503 180.72 132.183 180.72 132.893V145.377C180.72 146.087 180.438 146.768 179.937 147.269C179.435 147.771 178.754 148.053 178.045 148.053ZM159.09 142.702H175.369V135.568H159.09V142.702Z" fill="#FAE3EC"/>
<path d="M178.045 174.81H156.414C155.705 174.81 155.024 174.528 154.522 174.026C154.021 173.524 153.739 172.844 153.739 172.134V159.65C153.739 158.94 154.021 158.259 154.522 157.758C155.024 157.256 155.705 156.974 156.414 156.974H178.045C178.754 156.974 179.435 157.256 179.937 157.758C180.438 158.259 180.72 158.94 180.72 159.65V172.134C180.72 172.844 180.438 173.524 179.937 174.026C179.435 174.528 178.754 174.81 178.045 174.81ZM159.09 169.459H175.369V162.325H159.09V169.459Z" fill="#FAE3EC"/>
</g>
</svg>
