<svg width="20" height="18" viewBox="0 0 20 18" fill="none" xmlns="http://www.w3.org/2000/svg">
<path d="M17.8704 5.18518H2.12963C0.95537 5.18518 0 4.22981 0 3.05556V2.12963C0 0.95537 0.95537 0 2.12963 0H17.8704C19.0446 0 20 0.95537 20 2.12963V3.05556C20 4.22981 19.0446 5.18518 17.8704 5.18518Z" fill="#BE1452"/>
<path d="M9.99957 14.8146C11.2269 14.8146 12.2218 13.8196 12.2218 12.5923C12.2218 11.365 11.2269 10.3701 9.99957 10.3701C8.77227 10.3701 7.77734 11.365 7.77734 12.5923C7.77734 13.8196 8.77227 14.8146 9.99957 14.8146Z" fill="#BE1452"/>
<path d="M17.9164 6.66699H2.08304C1.95522 6.66699 1.85156 6.77065 1.85156 6.89847V9.55107C1.85156 14.055 5.47267 17.7655 9.97661 17.7781C14.4801 17.7906 18.1479 14.1306 18.1479 9.62996V6.89847C18.1479 6.77065 18.0442 6.66699 17.9164 6.66699ZM9.99971 16.2966C7.95749 16.2966 6.29601 14.6351 6.29601 12.5929C6.29601 10.5507 7.95749 8.88921 9.99971 8.88921C12.0419 8.88921 13.7034 10.5507 13.7034 12.5929C13.7034 14.6351 12.0419 16.2966 9.99971 16.2966Z" fill="#BE1452"/>
</svg>
