<svg width="25" height="24" viewBox="0 0 25 24" fill="none" xmlns="http://www.w3.org/2000/svg">
<path d="M24.9348 9.05346C24.7712 8.54724 24.3222 8.18769 23.791 8.13982L16.5753 7.48463L13.722 0.806257C13.5116 0.316819 13.0325 0 12.5001 0C11.9678 0 11.4886 0.316819 11.2782 0.807401L8.42497 7.48463L1.20814 8.13982C0.677886 8.18884 0.230029 8.54724 0.0654206 9.05346C-0.0991878 9.55969 0.0528317 10.1149 0.453957 10.4649L5.90816 15.2483L4.29984 22.333C4.18216 22.8539 4.38434 23.3923 4.81656 23.7048C5.04888 23.8726 5.32068 23.9581 5.59478 23.9581C5.8311 23.9581 6.06552 23.8944 6.27591 23.7685L12.5001 20.0485L18.7221 23.7685C19.1774 24.0424 19.7513 24.0174 20.1826 23.7048C20.615 23.3914 20.817 22.8527 20.6993 22.333L19.091 15.2483L24.5452 10.4659C24.9463 10.1149 25.0994 9.56064 24.9348 9.05346Z" fill="#D6D6D6"/>
</svg>
