<svg width="15" height="15" viewBox="0 0 15 15" fill="none" xmlns="http://www.w3.org/2000/svg">
<g clip-path="url(#clip0)">
<path d="M12.6098 1.89465L7.6099 0.0196871C7.53927 -0.00656236 7.46117 -0.00656236 7.38992 0.0196871L2.39001 1.89465C2.24878 1.94776 2.16564 2.09465 2.19253 2.24339C2.21942 2.39213 2.34877 2.50026 2.50002 2.50026H3.4375V14.6875C3.4375 14.86 3.57751 15 3.75001 15H5.93747V10.9376C5.93747 10.7651 6.07747 10.6251 6.24997 10.6251H8.74991C8.9224 10.6251 9.06241 10.7651 9.06241 10.9376V15H11.2499C11.4224 15 11.5624 14.86 11.5624 14.6875V2.49964H12.4999C12.6511 2.49964 12.7805 2.39151 12.8073 2.24277C12.8342 2.09465 12.751 1.94776 12.6098 1.89465ZM9.06238 9.68698C9.06238 9.85948 8.92237 9.99948 8.74988 9.99948H6.24994C6.07745 9.99948 5.93744 9.85948 5.93744 9.68698V7.18704C5.93744 7.01455 6.07745 6.87454 6.24994 6.87454H8.74988C8.92237 6.87454 9.06238 7.01455 9.06238 7.18704V9.68698ZM9.06238 5.93706C9.06238 6.10956 8.92237 6.24956 8.74988 6.24956H6.24994C6.07745 6.24956 5.93744 6.10956 5.93744 5.93706V3.43712C5.93744 3.26463 6.07745 3.12462 6.24994 3.12462H8.74988C8.92237 3.12462 9.06238 3.26463 9.06238 3.43712V5.93706Z" fill="#D8447A"/>
</g>
<defs>
<clipPath id="clip0">
<rect width="15" height="15" fill="white"/>
</clipPath>
</defs>
</svg>
