<svg width="29" height="30" viewBox="0 0 29 30" fill="none" xmlns="http://www.w3.org/2000/svg">
<path d="M20.9674 27C20.1604 27 19.3602 26.8573 18.5778 26.5731C15.1308 25.3209 11.9312 23.2814 9.32487 20.6751C6.71853 18.0688 4.67906 14.8692 3.42691 11.4222C3.02454 10.3144 2.90579 9.1709 3.0741 8.02329C3.23176 6.94833 3.64815 5.90477 4.2783 5.00539C4.91123 4.10206 5.75504 3.35073 6.71848 2.83263C7.74588 2.28016 8.86727 2 10.0516 2C10.4199 2 10.7383 2.25736 10.8155 2.6175L12.0417 8.33988C12.0972 8.599 12.0176 8.86862 11.8302 9.05601L9.73496 11.1512C11.7115 15.0811 14.9188 18.2883 18.8486 20.2649L20.9439 18.1696C21.1313 17.9823 21.4009 17.9028 21.66 17.9582L27.3824 19.1844C27.7426 19.2616 27.9999 19.5799 27.9999 19.9483C27.9999 21.1326 27.7197 22.2541 27.1672 23.2815C26.6491 24.2449 25.8978 25.0887 24.9944 25.7216C24.0951 26.3518 23.0515 26.7682 21.9765 26.9258C21.6397 26.9753 21.3029 27 20.9674 27ZM9.4274 3.59661C7.86521 3.76907 6.47864 4.58788 5.55788 5.90204C4.52247 7.37976 4.28103 9.19731 4.89546 10.8887C7.30278 17.5157 12.4843 22.6972 19.1112 25.1045C20.8026 25.719 22.6202 25.4776 24.0979 24.4421C25.4121 23.5213 26.2309 22.1348 26.4034 20.5726L21.7482 19.5751L19.56 21.7633C19.3272 21.9961 18.9734 22.058 18.6755 21.9179C14.0277 19.7344 10.2656 15.9723 8.08205 11.3245C7.94206 11.0265 8.00388 10.6727 8.23673 10.4399L10.4249 8.25175L9.4274 3.59661Z" fill="white"/>
<rect x="27" width="2" height="38.6996" rx="1" transform="rotate(43.192 27 0)" fill="white"/>
</svg>
