<svg width="10" height="17" viewBox="0 0 10 17" fill="none" xmlns="http://www.w3.org/2000/svg">
<path d="M3.36037 8.49641L9.7282 14.8563C9.90354 15.031 10 15.2646 10 15.5137C10 15.7629 9.90354 15.9963 9.7282 16.1713L9.17022 16.7283C8.99516 16.9035 8.76114 17 8.51176 17C8.26239 17 8.02865 16.9035 7.85345 16.7283L0.271523 9.15623C0.09563 8.9807 -0.000688829 8.74616 3.09876e-06 8.49682C-0.000688865 8.24638 0.0954915 8.01211 0.271522 7.83645L7.84639 0.271724C8.02159 0.0964729 8.25533 1.04902e-06 8.50484 1.02307e-06C8.75422 9.97145e-07 8.98796 0.0964728 9.1633 0.271724L9.72115 0.828715C10.0841 1.19124 10.0841 1.78141 9.72115 2.1438L3.36037 8.49641Z" fill="#252525"/>
</svg>
