<svg width="6" height="10" viewBox="0 0 6 10" fill="none" xmlns="http://www.w3.org/2000/svg">
<path d="M3.90085 4.99789L0.159876 8.73902C0.0568682 8.84179 0.000201298 8.97919 0.000201288 9.12569C0.000201277 9.27228 0.0568681 9.40959 0.159876 9.51252L0.48768 9.84016C0.590526 9.94325 0.728006 10 0.87451 10C1.02101 10 1.15833 9.94325 1.26126 9.84016L5.71549 5.38602C5.81882 5.28276 5.8754 5.1448 5.875 4.99813C5.8754 4.85081 5.8189 4.71301 5.71549 4.60967L1.2654 0.159837C1.16248 0.0567479 1.02516 -5.04253e-07 0.878576 -5.19494e-07C0.732072 -5.34726e-07 0.594755 0.0567478 0.491747 0.159837L0.164023 0.48748C-0.049229 0.700732 -0.049229 1.04789 0.164023 1.26106L3.90085 4.99789Z" fill="#252525"/>
</svg>
